<svg width="60" height="60" viewBox="0 0 60 60" fill="none" xmlns="http://www.w3.org/2000/svg">
<path d="M36.2601 23.7398C32.8876 20.3648 36.7776 12.9473 42.3601 7.35983C47.9451 1.77483 55.3651 -2.11517 58.7401 1.25983C62.1126 4.63483 58.2226 12.0523 52.6401 17.6398C47.0551 23.2223 39.6326 27.1148 36.2601 23.7398V23.7398ZM45.0126 10.0123C39.4351 15.5923 38.1901 20.3673 38.9126 21.0898C39.6401 21.8173 44.4126 20.5648 49.9901 14.9898C55.5676 9.41233 56.8126 4.63483 56.0901 3.91233C54.3876 2.22733 46.7951 8.22983 45.0126 10.0123Z" fill="#F7F8FB"/>
<path d="M42.3601 17.6399C36.7751 12.0549 32.8851 4.63486 36.2601 1.25986C39.6351 -2.11264 47.0526 1.77736 52.6401 7.35986C58.2251 12.9449 62.1151 20.3649 58.7401 23.7399C54.8626 27.6174 46.5776 21.8549 42.3601 17.6399V17.6399ZM38.9101 3.90986C38.1901 4.63236 39.4326 9.40736 45.0101 14.9874C50.5876 20.5649 55.3701 21.8049 56.0876 21.0874C56.8101 20.3649 55.5651 15.5899 49.9876 10.0099C44.4126 4.43736 39.6376 3.18986 38.9101 3.90986V3.90986Z" fill="#F7F8FB"/>
<path d="M47.5 27.725C42.46 30.3725 36.73 31.28 32.725 27.275C29.225 23.775 29.225 18.375 32.275 12.5C29.825 7.8 29.35 3.4 31.075 0.025C30.725 0 30.35 0 30 0C17.6 0 7.5 10.1 7.5 22.5C7.5 24.05 7.075 25.575 6.225 26.9L0.4 36.175C0.125 36.575 0 37.025 0 37.5C0 38.9 1.1 40 2.5 40H7.5V47.5C7.5 50.25 9.75 52.5 12.5 52.5C13.05 52.5 13.55 52.425 13.975 52.275L20 50.425V58.75C20 59.45 20.55 60 21.25 60H43.75C44.45 60 45 59.45 45 58.75V46.175C45 42.325 46.175 38.6 48.4 35.425C49.725 33.55 50.75 31.5 51.425 29.35C50.075 28.95 48.75 28.375 47.5 27.725V27.725Z" fill="#F7F8FB"/>
</svg>
