<svg width="60" height="60" viewBox="0 0 60 60" fill="none" xmlns="http://www.w3.org/2000/svg">
<g clip-path="url(#clip0)">
<path d="M58.9923 26.8223L53.9236 22.2038V6.88939C53.9236 5.91498 53.1336 5.1249 52.1591 5.1249H39.9581C38.9837 5.1249 38.1936 5.91486 38.1936 6.88939V7.87072L32.0722 2.29295C30.8906 1.21611 29.1088 1.21623 27.9276 2.29283L1.00756 26.8224C0.061154 27.6849 -0.251619 29.0138 0.210802 30.2078C0.673342 31.4019 1.79951 32.1733 3.08002 32.1733H7.37951V56.75C7.37951 57.7244 8.16947 58.5145 9.14401 58.5145H23.8994C24.8738 58.5145 25.6639 57.7245 25.6639 56.75V41.8278H34.3359V56.7501C34.3359 57.7245 35.1259 58.5146 36.1004 58.5146H50.8553C51.8297 58.5146 52.6197 57.7246 52.6196 56.7501V32.1734H56.9201C58.2004 32.1734 59.3267 31.4019 59.7893 30.2079C60.2516 29.0138 59.9389 27.6849 58.9923 26.8223ZM50.8553 28.6444C49.8808 28.6444 49.0908 29.4344 49.0908 30.4089V54.9856H37.865V40.0633C37.865 39.0889 37.0749 38.2988 36.1005 38.2988H23.8994C22.925 38.2988 22.1349 39.0888 22.1349 40.0633V54.9856H10.9084V30.4089C10.9084 29.4345 10.1184 28.6444 9.14389 28.6444H4.24744L30.0001 5.17881L38.7699 13.1699C39.2865 13.6406 40.0322 13.7619 40.6712 13.4798C41.3103 13.1974 41.7227 12.5643 41.7227 11.8656V8.65389H50.3948V22.9831C50.3948 23.4796 50.6039 23.9529 50.9709 24.2874L55.7525 28.6444H50.8553Z" fill="#F7F8FB"/>
</g>
<defs>
<clipPath id="clip0">
<rect width="60" height="60" fill="white"/>
</clipPath>
</defs>
</svg>
