<?xml version="1.0"?>
<svg xmlns="http://www.w3.org/2000/svg" xmlns:xlink="http://www.w3.org/1999/xlink" xmlns:svgjs="http://svgjs.com/svgjs" version="1.1" width="512" height="512" x="0" y="0" viewBox="0 0 512 512" style="enable-background:new 0 0 512 512" xml:space="preserve" class=""><g>
<g xmlns="http://www.w3.org/2000/svg">
	<g>
		<g>
			<path d="M170.451,353.774c2.487-2.312,4.012-5.474,4.273-8.859c0.459-5.529-2.459-10.79-7.392-13.329s-10.91-1.856-15.143,1.731     l-28.795,22.268c-4.072,3.661-5.576,9.393-3.828,14.583c1.749,5.189,6.415,8.842,11.872,9.292     c3.624,0.319,7.225-0.833,9.991-3.197l21.187-16.375L170.451,353.774z" fill="#f7f8fb" data-original="#000000" style="" class=""/>
			<path d="M127.511,321.543c-1.159-3.351-4.184-5.704-7.717-6.003c-0.25-0.018-0.5-0.027-0.75-0.027     c-2.113-0.005-4.159,0.745-5.768,2.116l-22.866,17.679c-2.592,2.417-3.516,6.134-2.357,9.483c1.159,3.349,4.182,5.7,7.714,5.999     c2.367,0.237,4.726-0.516,6.518-2.08l22.866-17.679C127.745,328.613,128.67,324.894,127.511,321.543z" fill="#f7f8fb" data-original="#000000" style="" class=""/>
			<polygon points="0,78.013 0,273.638 18.35,284.121 102.076,156.067    " fill="#f7f8fb" data-original="#000000" style="" class=""/>
			<path d="M202.623,366.896c-1.154-3.358-4.183-5.718-7.721-6.017c-0.252-0.025-0.505-0.037-0.759-0.036     c-2.112-0.002-4.154,0.752-5.759,2.125l-6.456,5.038c-0.069,0.06-0.117,0.135-0.186,0.194l-6.305,4.873l-21.373,16.681     c-1.671,1.511-2.692,3.61-2.848,5.857c-0.207,2.365,0.546,4.714,2.089,6.518h0c1.532,1.813,3.722,2.942,6.087,3.138     c2.365,0.196,4.711-0.557,6.52-2.093l12.203-9.523l0.021-0.021l0.711-0.549l21.387-16.692     C202.84,373.977,203.777,370.254,202.623,366.896z" fill="#f7f8fb" data-original="#000000" style="" class=""/>
			<polygon points="116.638,167.203 34.253,293.206 51.982,303.335 133.929,180.423    " fill="#f7f8fb" data-original="#000000" style="" class=""/>
			<polygon points="409.925,156.069 493.65,284.121 512,273.638 512,78.013    " fill="#f7f8fb" data-original="#000000" style="" class=""/>
			<path d="M340.687,214.62c-1.982,0.555-4.095,0.41-5.982-0.411l-36.232-15.429c-30.08-5.563-41.125,1.393-43.803,3.688     c-0.352,0.299-0.675,0.631-0.964,0.991c-0.374,0.739-0.893,1.395-1.527,1.929c-5.905,4.973-12.34,9.282-19.187,12.848     c-3.22,1.68-4.961,5.27-4.286,8.839c0.539,3.408,3.279,6.042,6.705,6.446c14.687,1.925,29.612-0.702,42.759-7.527     c2.949-1.686,6.589-1.6,9.455,0.223l26.897,17.106c0.443,0.133,0.874,0.3,1.29,0.501l90.42,58.241     c1.081,0.81,2.11,1.687,3.08,2.627l17.779-17.773L373,205.809L340.687,214.62z" fill="#f7f8fb" data-original="#000000" style="" class=""/>
			<polygon points="378.063,180.433 460.018,303.335 477.747,293.206 395.363,167.203    " fill="#f7f8fb" data-original="#000000" style="" class=""/>
			<path d="M212.5,390.165l-22.455,17.36l-0.417,0.326c-2.588,2.418-3.508,6.134-2.348,9.48c1.16,3.346,4.182,5.696,7.711,5.994     c2.368,0.25,4.733-0.505,6.518-2.08l22.866-17.679c3.561-3.311,3.83-8.859,0.605-12.498     C221.755,387.429,216.215,387.028,212.5,390.165z" fill="#f7f8fb" data-original="#000000" style="" class=""/>
			<path d="M400.562,321.986c-1.099-1.832-2.579-3.406-4.339-4.616l-89.132-57.404c-0.571-0.191-1.122-0.438-1.645-0.739     l-23.312-14.83c-15.549,7.07-32.793,9.554-49.705,7.161c-11.065-1.692-19.811-10.266-21.723-21.295     c-1.646-9.087,1.593-18.372,8.534-24.464h-80.252l-63.936,95.897l14.239,11.377l12.487-9.65     c6.967-5.736,16.326-7.642,24.982-5.088c8.656,2.554,15.48,9.236,18.217,17.836c9.691-5.729,21.691-5.9,31.541-0.449     c9.85,5.451,16.079,15.709,16.372,26.963c1.172-0.089,2.349-0.099,3.523-0.029c14.191,1.117,25.073,13.066,24.862,27.299     c9.35,0.999,17.512,6.779,21.558,15.267c4.046,8.488,3.398,18.468-1.714,26.361l30.115,20.126     c5.946,3.928,13.909,2.66,18.341-2.92c4.433-5.58,3.866-13.623-1.306-18.526c-0.731-0.754-1.508-1.464-2.325-2.125     l-16.952-12.027c-2.664-1.892-4.116-5.06-3.809-8.313c0.306-3.253,2.325-6.094,5.295-7.455s6.44-1.034,9.104,0.858l16.48,11.697     h0.002l0.007,0.006l16.171,11.477c6.296,4.045,14.674,2.273,18.795-3.973c4.127-6.554,2.391-15.192-3.946-19.643l-0.015-0.016     l-43.887-30.279c-4.147-2.874-5.184-8.562-2.317-12.714c2.866-4.152,8.554-5.199,12.71-2.339l60.089,41.464     c2.996,1.977,6.656,2.677,10.17,1.946c5.424-1.075,9.663-5.317,10.735-10.741c1.072-5.425-1.235-10.96-5.843-14.018l-0.029-0.029     l-58.105-40.167c-2.696-1.853-4.196-5.005-3.933-8.265c0.262-3.26,2.247-6.132,5.205-7.53c2.957-1.398,6.436-1.108,9.122,0.759     l60.045,41.5l0.071,0.045c6.311,4.007,14.664,2.266,18.848-3.929c2.831-4.221,3.122-9.653,0.759-14.152     C400.66,322.192,400.607,322.093,400.562,321.986z" fill="#f7f8fb" data-original="#000000" style="" class=""/>
		</g>
	</g>
</g>
<g xmlns="http://www.w3.org/2000/svg">
</g>
<g xmlns="http://www.w3.org/2000/svg">
</g>
<g xmlns="http://www.w3.org/2000/svg">
</g>
<g xmlns="http://www.w3.org/2000/svg">
</g>
<g xmlns="http://www.w3.org/2000/svg">
</g>
<g xmlns="http://www.w3.org/2000/svg">
</g>
<g xmlns="http://www.w3.org/2000/svg">
</g>
<g xmlns="http://www.w3.org/2000/svg">
</g>
<g xmlns="http://www.w3.org/2000/svg">
</g>
<g xmlns="http://www.w3.org/2000/svg">
</g>
<g xmlns="http://www.w3.org/2000/svg">
</g>
<g xmlns="http://www.w3.org/2000/svg">
</g>
<g xmlns="http://www.w3.org/2000/svg">
</g>
<g xmlns="http://www.w3.org/2000/svg">
</g>
<g xmlns="http://www.w3.org/2000/svg">
</g>
</g></svg>
