<svg width="60" height="60" viewBox="0 0 60 60" fill="none" xmlns="http://www.w3.org/2000/svg">
<g clip-path="url(#clip0)">
<path d="M19.9745 41.4578C20.266 41.1869 20.4447 40.8163 20.4753 40.4196C20.5291 39.7717 20.1871 39.1552 19.609 38.8576C19.0309 38.5601 18.3305 38.6401 17.8345 39.0605L14.46 41.67C13.9829 42.099 13.8066 42.7708 14.0115 43.379C14.2164 43.9871 14.7632 44.4151 15.4027 44.4679C15.8274 44.5053 16.2494 44.3703 16.5735 44.0932L19.0564 42.1743L19.9745 41.4578Z" fill="#F7F8FB"/>
<path d="M14.9425 37.6808C14.8067 37.2881 14.4522 37.0123 14.0382 36.9773C14.0089 36.9752 13.9796 36.9741 13.9503 36.9741C13.7027 36.9735 13.4629 37.0614 13.2743 37.2221L10.5947 39.2938C10.291 39.5771 10.1827 40.0127 10.3185 40.4051C10.4543 40.7976 10.8086 41.0731 11.2225 41.1081C11.4999 41.1359 11.7763 41.0477 11.9863 40.8644L14.6659 38.7926C14.9699 38.5093 15.0783 38.0735 14.9425 37.6808Z" fill="#F7F8FB"/>
<path d="M0 9.14209V32.0669L2.15039 33.2954L11.962 18.289L0 9.14209Z" fill="#F7F8FB"/>
<path d="M23.745 42.9957C23.6098 42.6022 23.2548 42.3256 22.8402 42.2906C22.8107 42.2877 22.781 42.2863 22.7512 42.2864C22.5037 42.2861 22.2645 42.3745 22.0764 42.5354L21.3198 43.1258C21.3117 43.1328 21.3061 43.1416 21.298 43.1485L20.5591 43.7196L18.0545 45.6744C17.8587 45.8515 17.739 46.0974 17.7207 46.3608C17.6965 46.6379 17.7847 46.9132 17.9655 47.1246C18.1451 47.337 18.4017 47.4694 18.6789 47.4923C18.956 47.5153 19.2309 47.4271 19.4429 47.2471L20.873 46.1311L20.8754 46.1286L20.9588 46.0643L23.465 44.1082C23.7704 43.8255 23.8802 43.3892 23.745 42.9957Z" fill="#F7F8FB"/>
<path d="M13.6687 19.594L4.01416 34.36L6.09178 35.547L15.6949 21.1432L13.6687 19.594Z" fill="#F7F8FB"/>
<path d="M48.0381 18.2893L57.8496 33.2954L60 32.0669V9.14209L48.0381 18.2893Z" fill="#F7F8FB"/>
<path d="M39.9243 25.1507C39.6921 25.2158 39.4444 25.1988 39.2233 25.1026L34.9774 23.2945C31.4524 22.6426 30.158 23.4577 29.8442 23.7267C29.803 23.7617 29.7651 23.8006 29.7312 23.8428C29.6874 23.9294 29.6266 24.0063 29.5523 24.0688C28.8603 24.6516 28.1062 25.1566 27.3038 25.5745C26.9265 25.7713 26.7225 26.192 26.8016 26.6103C26.8647 27.0097 27.1858 27.3183 27.5873 27.3657C29.3084 27.5913 31.0575 27.2834 32.5981 26.4836C32.9437 26.286 33.3703 26.2961 33.7061 26.5097L36.8581 28.5144C36.91 28.5299 36.9605 28.5495 37.0093 28.5731L47.6054 35.3982C47.7321 35.4931 47.8526 35.5959 47.9663 35.706L50.0498 33.6233L43.711 24.1182L39.9243 25.1507Z" fill="#F7F8FB"/>
<path d="M44.3042 21.1444L53.9083 35.547L55.9859 34.36L46.3315 19.594L44.3042 21.1444Z" fill="#F7F8FB"/>
<path d="M24.9021 45.7222L22.2706 47.7566L22.2218 47.7948C21.9185 48.0782 21.8107 48.5136 21.9466 48.9057C22.0826 49.2978 22.4367 49.5732 22.8503 49.6082C23.1278 49.6375 23.4049 49.549 23.6141 49.3644L26.2937 47.2927C26.711 46.9046 26.7425 46.2545 26.3646 45.828C25.9867 45.4016 25.3374 45.3546 24.9021 45.7222Z" fill="#F7F8FB"/>
<path d="M46.9411 37.7329C46.8123 37.5182 46.6389 37.3337 46.4326 37.1919L35.9875 30.4649C35.9206 30.4425 35.856 30.4136 35.7947 30.3783L33.0628 28.6404C31.2407 29.4689 29.2199 29.76 27.238 29.4796C25.9413 29.2813 24.9164 28.2765 24.6924 26.9841C24.4995 25.9192 24.879 24.8311 25.6924 24.1172H16.2879L8.79541 35.3551L10.464 36.6884L11.9274 35.5575C12.7438 34.8853 13.8406 34.662 14.8549 34.9613C15.8693 35.2606 16.669 36.0436 16.9897 37.0514C18.1254 36.38 19.5317 36.36 20.686 36.9988C21.8403 37.6376 22.5702 38.8397 22.6046 40.1585C22.7419 40.1481 22.8798 40.1469 23.0174 40.1551C24.6804 40.286 25.9556 41.6863 25.9309 43.3542C27.0266 43.4713 27.9831 44.1486 28.4572 45.1433C28.9314 46.138 28.8555 47.3075 28.2564 48.2325L31.7855 50.591C32.4823 51.0513 33.4155 50.9027 33.9348 50.2488C34.4543 49.5949 34.3879 48.6524 33.7818 48.0778C33.6961 47.9895 33.6051 47.9063 33.5093 47.8288L31.5228 46.4194C31.2106 46.1977 31.0404 45.8264 31.0764 45.4452C31.1122 45.064 31.3488 44.7311 31.6969 44.5716C32.0449 44.4121 32.4516 44.4504 32.7638 44.6721L34.695 46.0429H34.6953L34.6961 46.0436L36.5911 47.3885C37.3289 47.8626 38.3107 47.6549 38.7937 46.9229C39.2773 46.1549 39.0738 45.1426 38.3312 44.621L38.3295 44.6191L33.1865 41.0708C32.7005 40.734 32.579 40.0675 32.9149 39.5809C33.2508 39.0943 33.9174 38.9716 34.4044 39.3068L41.4461 44.1659C41.7972 44.3975 42.2261 44.4796 42.6379 44.3939C43.2735 44.2679 43.7703 43.7708 43.8959 43.1352C44.0215 42.4995 43.7512 41.8508 43.2112 41.4925L43.2078 41.4891L36.3986 36.782C36.0826 36.5649 35.9069 36.1955 35.9377 35.8134C35.9684 35.4314 36.201 35.0948 36.5476 34.931C36.8942 34.7672 37.3019 34.8012 37.6166 35.02L44.6531 39.8832L44.6615 39.8885C45.401 40.3581 46.3799 40.1541 46.8702 39.4281C47.202 38.9334 47.2361 38.2969 46.9592 37.7697C46.9526 37.757 46.9464 37.7454 46.9411 37.7329Z" fill="#F7F8FB"/>
</g>
<defs>
<clipPath id="clip0">
<rect width="60" height="60" fill="white"/>
</clipPath>
</defs>
</svg>
