<svg width="60" height="60" viewBox="0 0 60 60" fill="none" xmlns="http://www.w3.org/2000/svg">
<g clip-path="url(#clip0)">
<path d="M21.875 44.03V55.625C21.875 56.435 22.395 57.1525 23.165 57.4075C23.3575 57.47 23.555 57.5 23.75 57.5C24.335 57.5 24.9 57.225 25.26 56.735L32.0425 47.505L21.875 44.03Z" fill="#F7F8FB"/>
<path d="M59.2116 0.347477C58.6366 -0.0600226 57.8816 -0.115023 57.2566 0.212477L1.00663 29.5875C0.341635 29.935 -0.0508654 30.645 0.00413463 31.3925C0.0616346 32.1425 0.559135 32.7825 1.26663 33.025L16.9041 38.37L50.2066 9.89498L24.4366 40.9425L50.6441 49.9C50.8391 49.965 51.0441 50 51.2491 50C51.5891 50 51.9266 49.9075 52.2241 49.7275C52.6991 49.4375 53.0216 48.95 53.1041 48.4025L59.9791 2.15248C60.0816 1.45248 59.7866 0.757477 59.2116 0.347477V0.347477Z" fill="#F7F8FB"/>
</g>
<defs>
<clipPath id="clip0">
<rect width="60" height="60" fill="white"/>
</clipPath>
</defs>
</svg>
