<svg width="60" height="60" viewBox="0 0 60 60" fill="none" xmlns="http://www.w3.org/2000/svg">
<path d="M58.4363 17.314C58.2948 16.7853 57.9556 16.3431 57.4814 16.0693L55.757 15.0737C55.2827 14.8 54.7302 14.7272 54.201 14.8691C53.6723 15.0105 53.2301 15.3497 52.9564 15.824L51.9273 17.606C51.4906 17.401 51.0004 17.3557 50.5284 17.482C49.9997 17.6239 49.5575 17.9631 49.2838 18.4373L49.2188 18.5495V10.957C49.2188 8.53363 47.2476 6.5625 44.8242 6.5625H38.4142C38.2709 5.57053 37.4176 4.80469 36.3867 4.80469H33.3984V2.63672C33.3984 1.18286 32.2156 0 30.7617 0H24.3164C22.8625 0 21.6797 1.18286 21.6797 2.63672V4.80469H18.6914C17.6605 4.80469 16.8068 5.57053 16.664 6.5625H10.2539C7.83051 6.5625 5.85938 8.53363 5.85938 10.957V55.6055C5.85938 58.0289 7.83051 60 10.2539 60H37.6813C38.1665 60 38.5602 59.6068 38.5602 59.1211C38.5602 58.6354 38.1665 58.2422 37.6813 58.2422H10.2539C8.80005 58.2422 7.61719 57.0593 7.61719 55.6055V10.957C7.61719 9.50317 8.80005 8.32031 10.2539 8.32031H16.6406V12.5977C16.6406 13.7283 17.5607 14.6484 18.6914 14.6484H36.3867C37.5174 14.6484 38.4375 13.7283 38.4375 12.5977V11.7773H44.0039V27.5821L35.0606 43.0724C34.7374 43.6317 34.5909 44.268 34.6371 44.9126L35.029 50.403C35.0633 50.8832 35.3316 51.3158 35.7463 51.5602C35.9752 51.6948 36.232 51.763 36.4902 51.763C36.6998 51.763 36.9099 51.7177 37.1059 51.627L42.1587 49.2838C42.7638 49.0031 43.26 48.5495 43.5933 47.9723L44.0039 47.2614V54.7852H11.0742V11.7773H13.418C13.9032 11.7773 14.2969 11.3841 14.2969 10.8984C14.2969 10.4128 13.9032 10.0195 13.418 10.0195H10.7812C9.9733 10.0195 9.31641 10.6764 9.31641 11.4844V55.0781C9.31641 55.8861 9.9733 56.543 10.7812 56.543H44.2969C45.1044 56.543 45.7617 55.8861 45.7617 55.0781V44.2163L47.4609 41.2733V55.6055C47.4609 57.0593 46.2781 58.2422 44.8242 58.2422H41.7824C41.2971 58.2422 40.9035 58.6354 40.9035 59.1211C40.9035 59.6063 41.2971 60 41.7824 60H44.8242C47.2472 60 49.2188 58.0284 49.2188 55.6055V38.2288L56.6336 25.3857L57.805 23.3569C58.0788 22.8827 58.1516 22.3302 58.0096 21.8015C57.8833 21.3295 57.599 20.928 57.2026 20.652L58.2317 18.8699C58.5054 18.3957 58.5782 17.8432 58.4363 17.314V17.314ZM54.4785 16.7029C54.559 16.5633 54.738 16.5152 54.8781 16.5958L56.6025 17.5914C56.6936 17.644 56.727 17.7255 56.7389 17.769C56.7503 17.813 56.7622 17.8995 56.7096 17.991L55.6847 19.7658L53.454 18.4781L54.4785 16.7029ZM50.8058 19.3163C50.8585 19.2252 50.9399 19.1917 50.9834 19.1803C51.0274 19.1679 51.1139 19.1565 51.205 19.2091L56.1754 22.0789C56.2669 22.1315 56.3004 22.2125 56.3118 22.2565C56.3237 22.3 56.3351 22.3869 56.2825 22.478L55.5505 23.7456L50.0743 20.5838L50.8058 19.3163ZM23.4375 2.63672C23.4375 2.15195 23.8316 1.75781 24.3164 1.75781H30.7617C31.2465 1.75781 31.6406 2.15195 31.6406 2.63672V4.80469H23.4375V2.63672ZM36.6797 12.5977C36.6797 12.7592 36.5483 12.8906 36.3867 12.8906H18.6914C18.5298 12.8906 18.3984 12.7592 18.3984 12.5977V6.85547C18.3984 6.69388 18.5298 6.5625 18.6914 6.5625H36.3867C36.5483 6.5625 36.6797 6.69388 36.6797 6.85547V12.5977ZM44.2969 10.0195H38.4375V8.32031H44.8242C46.2781 8.32031 47.4609 9.50317 47.4609 10.957V21.5945L45.7617 24.5375V11.4844C45.7617 10.6764 45.1048 10.0195 44.2969 10.0195ZM49.1954 22.1063L54.6716 25.2681L43.8968 43.9311L38.4201 40.7693L49.1954 22.1063ZM42.0712 47.0934C41.9197 47.3557 41.694 47.5616 41.4194 47.6889V47.6894L36.752 49.8537L36.3904 44.7876C36.3693 44.4946 36.4362 44.2058 36.5831 43.9517L37.5412 42.2914L43.0179 45.4532L42.0712 47.0934Z" fill="#F7F8FB"/>
<path d="M14.9369 49.0357C15.104 49.1844 15.3127 49.2572 15.5201 49.2572C15.7627 49.2572 16.004 49.1574 16.1775 48.962L17.9202 47L19.2692 48.609C19.5397 48.9322 19.9366 49.1227 20.3577 49.1327C20.7793 49.14 21.184 48.9707 21.4692 48.6608L23.0915 46.8993L24.8896 48.9345C25.2114 49.2984 25.7667 49.3328 26.1301 49.0114C26.4941 48.6901 26.5284 48.1348 26.2071 47.7709L24.1938 45.4921C23.9196 45.1818 23.525 45.0014 23.1112 44.9973C23.1062 44.9968 23.1011 44.9968 23.0961 44.9968C22.6873 44.9968 22.2955 45.1685 22.0185 45.4692L20.4022 47.2243L19.049 45.6107C18.7753 45.2843 18.3738 45.0934 17.9472 45.087C17.5205 45.0774 17.1145 45.2605 16.8316 45.5791L14.8637 47.7947C14.5409 48.1577 14.5739 48.7134 14.9369 49.0357V49.0357Z" fill="#F7F8FB"/>
<path d="M40.8691 19.3945C40.8691 18.9088 40.4755 18.5156 39.9902 18.5156H15.0293C14.5441 18.5156 14.1504 18.9088 14.1504 19.3945C14.1504 19.8802 14.5441 20.2734 15.0293 20.2734H39.9902C40.4755 20.2734 40.8691 19.8802 40.8691 19.3945Z" fill="#F7F8FB"/>
<path d="M15.1465 24.9609H25.5762C26.0614 24.9609 26.4551 24.5677 26.4551 24.082C26.4551 23.5963 26.0614 23.2031 25.5762 23.2031H15.1465C14.6613 23.2031 14.2676 23.5963 14.2676 24.082C14.2676 24.5677 14.6613 24.9609 15.1465 24.9609Z" fill="#F7F8FB"/>
<path d="M34.6582 24.082C34.6582 23.5963 34.2645 23.2031 33.7793 23.2031H29.6777C29.1925 23.2031 28.7988 23.5963 28.7988 24.082C28.7988 24.5677 29.1925 24.9609 29.6777 24.9609H33.7793C34.2645 24.9609 34.6582 24.5677 34.6582 24.082Z" fill="#F7F8FB"/>
<path d="M15.1465 29.6484H23.584C24.0692 29.6484 24.4629 29.2552 24.4629 28.7695C24.4629 28.2838 24.0692 27.8906 23.584 27.8906H15.1465C14.6613 27.8906 14.2676 28.2838 14.2676 28.7695C14.2676 29.2552 14.6613 29.6484 15.1465 29.6484Z" fill="#F7F8FB"/>
<path d="M31.3184 27.8906H27.334C26.8488 27.8906 26.4551 28.2838 26.4551 28.7695C26.4551 29.2552 26.8488 29.6484 27.334 29.6484H31.3184C31.8036 29.6484 32.1973 29.2552 32.1973 28.7695C32.1973 28.2838 31.8036 27.8906 31.3184 27.8906Z" fill="#F7F8FB"/>
<path d="M15.1465 34.3359H21.2402C21.7255 34.3359 22.1191 33.9427 22.1191 33.457C22.1191 32.9713 21.7255 32.5781 21.2402 32.5781H15.1465C14.6613 32.5781 14.2676 32.9713 14.2676 33.457C14.2676 33.9427 14.6613 34.3359 15.1465 34.3359Z" fill="#F7F8FB"/>
<path d="M32.1973 33.457C32.1973 32.9713 31.8036 32.5781 31.3184 32.5781H24.9902C24.505 32.5781 24.1113 32.9713 24.1113 33.457C24.1113 33.9427 24.505 34.3359 24.9902 34.3359H31.3184C31.8036 34.3359 32.1973 33.9427 32.1973 33.457Z" fill="#F7F8FB"/>
<path d="M15.1465 39.0234H21.2402C21.7255 39.0234 22.1191 38.6302 22.1191 38.1445C22.1191 37.6588 21.7255 37.2656 21.2402 37.2656H15.1465C14.6613 37.2656 14.2676 37.6588 14.2676 38.1445C14.2676 38.6302 14.6613 39.0234 15.1465 39.0234Z" fill="#F7F8FB"/>
</svg>
