<?xml version="1.0"?>
<svg xmlns="http://www.w3.org/2000/svg" xmlns:xlink="http://www.w3.org/1999/xlink" xmlns:svgjs="http://svgjs.com/svgjs" version="1.1" width="512" height="512" x="0" y="0" viewBox="0 0 56 54" style="enable-background:new 0 0 512 512" xml:space="preserve" class=""><g><g xmlns="http://www.w3.org/2000/svg" id="Page-1" fill="none" fill-rule="evenodd"><g id="055---Image-Folder" fill="rgb(0,0,0)" fill-rule="nonzero"><path id="Shape" d="m55 21h-54c-.29843918.0007146-.58096216.134687-.77037731.365313-.18941516.230626-.26592403.5337996-.20862269.826687l5.879 29.392c.28064664 1.4020818 1.51011079 2.412417 2.94 2.416h38.32c1.4301121-.0010539 2.6606518-1.0114358 2.94-2.414l5.88-29.393c.0576739-.2932089-.0188021-.5968456-.2084837-.827754-.1896816-.2309083-.4726892-.3648878-.7715163-.365246zm-49 4h-2c-.55228475 0-1-.4477153-1-1s.44771525-1 1-1h2c.55228475 0 1 .4477153 1 1s-.44771525 1-1 1zm20 0h-16c-.55228475 0-1-.4477153-1-1s.44771525-1 1-1h16c.5522847 0 1 .4477153 1 1s-.4477153 1-1 1z" fill="#f7f8fb" data-original="#000000" style="" class=""/><path id="Shape" d="m44.336 15.106 1.82 3.894h1.335l1.667-4.582-26.311-9.577-4.931 13.534 9.584-5.1c.242392-.1291386.5272278-.1529004.7876666-.0657092s.4735534.2776597.5893334.5267092l2.45 5.264h3.453l8.18-4.353c.2420473-.1289359.5264255-.1528066.7865801-.0660254.2601545.0867812.473252.2765976.5894199.5250254zm-7.236.267c-.5742657 1.5523445-2.2972657 2.3463035-3.8504392 1.7742837-1.5531734-.5720197-2.3496238-2.2938695-1.7798512-3.8478688.5697726-1.5539992 2.2904687-2.3529392 3.8452904-1.7854149.7508897.2717957 1.3619692.8324864 1.6972223 1.5572716.335253.7247853.3668571 1.5535152.0877777 2.3017284z" fill="#f7f8fb" data-original="#000000" style="" class=""/><path id="Shape" d="m39.038 19h4.91l-.978-2.092z" fill="#f7f8fb" data-original="#000000" style="" class=""/><path id="Shape" d="m15.56 19 5.751-15.783c.0902529-.24947617.2759419-.45286382.5161937-.56539393.2402518-.11253012.5153735-.12497887.7648063-.03460607l28.19 10.261c.2497158.0902433.4532895.2760945.5658418.5165811.1125522.2404866.1248414.5158625.0341582.7654189l-1.763 4.84h2.121l2.2-6.033c.1862241-.5185487-.0820796-1.0900356-.6-1.278l-31.952-11.629c-.5188429-.18688063-1.0910408.08154688-1.279.6l-6.672 18.34z" fill="#f7f8fb" data-original="#000000" style="" class=""/><path id="Shape" d="m33.866 13.426c-.4096794.1916569-.639713.6344368-.5609933 1.0798274.0787196.4453906.4465923.7824947.8971476.8221111.4505554.0396164.8716103-.2281191 1.0268457-.6529385.1389761-.380324.0348808-.8069193-.2636536-1.0804845-.2985343-.2735652-.7325767-.3400983-1.0993464-.1685155z" fill="#f7f8fb" data-original="#000000" style="" class=""/><path id="Shape" d="m14.22 11h-8.22c-1.1045695 0-2 .8954305-2 2v6h7.31z" fill="#f7f8fb" data-original="#000000" style="" class=""/><path id="Shape" d="m21 19h8.121l-1.612-3.462z" fill="#f7f8fb" data-original="#000000" style="" class=""/></g></g></g></svg>
