<svg width="60" height="60" viewBox="0 0 60 60" fill="none" xmlns="http://www.w3.org/2000/svg">
<path d="M58.929 23.5715H1.0718C0.752046 23.5723 0.449342 23.7158 0.246398 23.9629C0.0434528 24.21 -0.038521 24.5349 0.0228733 24.8487L6.3218 56.3401C6.6225 57.8423 7.93978 58.9248 9.4718 58.9287H50.529C52.0612 58.9275 53.3796 57.845 53.6789 56.3422L59.979 24.8497C60.0407 24.5356 59.9588 24.2103 59.7556 23.9629C59.5523 23.7155 59.2491 23.5719 58.929 23.5715V23.5715ZM6.42895 27.8572H4.28609C3.69435 27.8572 3.21466 27.3776 3.21466 26.7858C3.21466 26.1941 3.69435 25.7144 4.28609 25.7144H6.42895C7.02068 25.7144 7.50037 26.1941 7.50037 26.7858C7.50037 27.3776 7.02068 27.8572 6.42895 27.8572ZM27.8575 27.8572H10.7147C10.1229 27.8572 9.64323 27.3776 9.64323 26.7858C9.64323 26.1941 10.1229 25.7144 10.7147 25.7144H27.8575C28.4493 25.7144 28.9289 26.1941 28.9289 26.7858C28.9289 27.3776 28.4493 27.8572 27.8575 27.8572Z" fill="#F7F8FB"/>
<path d="M47.5034 17.2565L49.4534 21.4287H50.8838L52.6699 16.5194L24.4795 6.2583L19.1963 20.759L29.4649 15.2947C29.7246 15.1564 30.0297 15.1309 30.3088 15.2243C30.5878 15.3177 30.8162 15.5218 30.9402 15.7887L33.5652 21.4287H37.2649L46.0291 16.7647C46.2885 16.6266 46.5932 16.601 46.8719 16.694C47.1506 16.787 47.379 16.9903 47.5034 17.2565V17.2565ZM39.7506 17.5426C39.1353 19.2058 37.2892 20.0565 35.6251 19.4436C33.961 18.8307 33.1076 16.9859 33.7181 15.3209C34.3286 13.6559 36.1722 12.7999 37.8381 13.4079C38.6426 13.6992 39.2973 14.2999 39.6565 15.0765C40.0157 15.853 40.0496 16.7409 39.7506 17.5426Z" fill="#F7F8FB"/>
<path d="M41.8262 21.4287H47.0869L46.039 19.1873L41.8262 21.4287Z" fill="#F7F8FB"/>
<path d="M16.6711 21.4286L22.8329 4.51821C22.9296 4.25091 23.1286 4.033 23.386 3.91243C23.6434 3.79186 23.9382 3.77852 24.2054 3.87535L54.409 14.8693C54.6765 14.966 54.8947 15.1651 55.0152 15.4228C55.1358 15.6804 55.149 15.9755 55.0518 16.2429L53.1629 21.4286H55.4354L57.7926 14.9646C57.9921 14.409 57.7046 13.7967 57.1497 13.5954L22.9154 1.13571C22.3595 0.935477 21.7464 1.22308 21.5451 1.77856L14.3965 21.4286H16.6711Z" fill="#F7F8FB"/>
<path d="M36.2855 15.4564C35.8465 15.6618 35.6001 16.1362 35.6844 16.6134C35.7687 17.0906 36.1629 17.4518 36.6456 17.4942C37.1284 17.5367 37.5795 17.2498 37.7458 16.7947C37.8947 16.3872 37.7832 15.9301 37.4633 15.637C37.1435 15.3439 36.6784 15.2726 36.2855 15.4564V15.4564Z" fill="#F7F8FB"/>
<path d="M15.2361 12.8569H6.42899C5.24552 12.8569 4.28613 13.8163 4.28613 14.9998V21.4284H12.1183L15.2361 12.8569Z" fill="#F7F8FB"/>
<path d="M22.5 21.4285H31.2011L29.4739 17.7192L22.5 21.4285Z" fill="#F7F8FB"/>
</svg>
