<svg width="60" height="60" viewBox="0 0 60 60" fill="none" xmlns="http://www.w3.org/2000/svg">
<g clip-path="url(#clip0)">
<path d="M19.1004 19.9383C19.3936 20.3252 19.3176 20.8765 18.9307 21.1696L17.5562 22.2113C12.6539 25.9294 13.0401 29.1445 13.5747 33.5945C13.6401 34.1391 13.7078 34.7021 13.7673 35.2818C13.7704 35.3124 13.7718 35.3427 13.7718 35.3727V42.3169C13.7718 46.672 17.3129 50.2152 21.6655 50.2152H27.3846C26.7917 49.4502 26.4375 48.4913 26.4375 47.4507C26.4375 45.4653 27.7242 43.7759 29.5072 43.1693C28.7948 42.3698 28.3606 41.3171 28.3606 40.1644C28.3606 38.6716 29.088 37.3462 30.2064 36.5222C29.0879 35.6981 28.3606 34.3726 28.3606 32.8799C28.3606 30.3863 30.3893 28.3576 32.8829 28.3576H44.5268C44.5299 28.3576 44.5328 28.3578 44.5358 28.3578H55.4801C57.0032 28.3578 58.2422 27.1178 58.2422 25.5935C58.2422 24.8549 57.9548 24.1608 57.4327 23.6387C56.9116 23.1166 56.2181 22.829 55.4801 22.829H52.6231C52.1377 22.829 51.7443 22.4355 51.7443 21.9502C51.7443 21.4647 52.1378 21.0713 52.6231 21.0713H55.4801C56.6882 21.0713 57.8235 21.5421 58.6761 22.3964C59.5298 23.2496 60 24.3851 60 25.5933C60 28.0868 57.9724 30.1154 55.4801 30.1154H48.1021C48.695 30.8804 49.0491 31.8392 49.0491 32.8798C49.0491 35.1089 47.4276 36.9651 45.3024 37.334C45.9265 38.1094 46.3013 39.0938 46.3013 40.1643C46.3013 42.1497 45.0146 43.8392 43.2316 44.4458C43.9441 45.2453 44.3782 46.298 44.3782 47.4506C44.3782 49.9441 42.3495 51.9729 39.8559 51.9729H21.6655C18.1429 51.9729 15.0564 50.0741 13.3712 47.2469H7.52701C7.04158 47.2469 6.64815 46.8533 6.64815 46.368C6.64815 45.8826 7.0417 45.4892 7.52701 45.4892H12.5516C12.2049 44.4948 12.014 43.428 12.014 42.317V35.417C11.9572 34.8679 11.8923 34.3273 11.8294 33.8042C11.6673 32.4549 11.5115 31.1594 11.5115 29.8937C11.5115 29.1058 11.5725 28.3296 11.7293 27.5595H1.75771V45.489H3.77691C4.26234 45.489 4.65576 45.8826 4.65576 46.3679C4.65576 46.8533 4.26222 47.2467 3.77691 47.2467H0.87874C0.39331 47.2467 -0.000114283 46.8532 -0.000114283 46.3679V26.6807C-0.000114283 26.1953 0.393428 25.8018 0.87874 25.8018H12.2747C12.9787 24.1479 14.2626 22.5032 16.4941 20.8105L17.8689 19.7686C18.2561 19.4754 18.8073 19.5514 19.1004 19.9383V19.9383ZM47.2914 32.8797C47.2914 31.3583 46.0561 30.1203 44.536 30.1153L32.883 30.1151C31.3587 30.1151 30.1185 31.3552 30.1185 32.8795C30.1185 34.3898 31.3362 35.6204 32.8413 35.643C32.8552 35.6428 32.8691 35.6419 32.883 35.6419L44.5269 35.644C46.0513 35.644 47.2914 34.404 47.2914 32.8797ZM44.5435 40.1642C44.5435 38.6679 43.3483 37.4463 41.8625 37.4018H32.883C32.8691 37.4018 32.8552 37.4009 32.8413 37.4008C31.3361 37.4232 30.1185 38.6539 30.1185 40.1642C30.1185 41.6832 31.3502 42.9196 32.8673 42.9283H39.8561C39.8614 42.9283 39.8666 42.9287 39.8719 42.9287H41.7791C43.3033 42.9287 44.5435 41.6886 44.5435 40.1642V40.1642ZM39.8559 50.2151C41.3803 50.2151 42.6204 48.9749 42.6204 47.4506C42.6204 45.9316 41.3888 44.6952 39.8717 44.6865L30.9598 44.6861C29.4355 44.6861 28.1953 45.9262 28.1953 47.4506C28.1953 48.975 29.4355 50.2151 30.9598 50.2151H39.8559Z" fill="#F7F8FB"/>
<path d="M35.6956 8.07442C37.0038 8.25406 38.163 8.93248 38.9598 9.98484C39.7567 11.0375 40.0956 12.3379 39.9133 13.6468C39.7309 14.9577 39.0486 16.1189 37.9918 16.9165L32.4871 21.071L48.6329 21.071C49.1183 21.071 49.5117 21.4645 49.5117 21.9498C49.5117 22.4352 49.1182 22.8287 48.6329 22.8287L30.1774 22.8287C29.687 23.2809 29.4127 23.9378 29.4355 24.627C29.5522 28.0391 27.9992 31.3028 25.2828 33.3613C24.896 33.6545 24.3447 33.5786 24.0516 33.1916C23.7584 32.8047 23.8344 32.2534 24.2213 31.9603C26.483 30.2464 27.7752 27.5273 27.6788 24.6868C27.6326 23.3491 28.2342 22.0782 29.2863 21.2841L36.9328 15.5132C37.6145 14.9987 38.0546 14.2498 38.1721 13.4043C38.2893 12.5613 38.0714 11.7234 37.5581 11.0453C37.0453 10.3678 36.2988 9.93098 35.4564 9.81535C34.6136 9.69972 33.7755 9.91929 33.0966 10.4338L21.9192 18.9046C21.5324 19.1976 20.9811 19.1218 20.6879 18.7349C20.5676 18.5761 20.5095 18.3896 20.5095 18.2047C20.5095 17.9389 20.6294 17.6764 20.8576 17.5036L32.0351 9.03276C33.0879 8.2354 34.3878 7.89501 35.6956 8.07442V8.07442Z" fill="#F7F8FB"/>
</g>
<defs>
<clipPath id="clip0">
<rect width="60" height="60" fill="white"/>
</clipPath>
</defs>
</svg>
