<?xml version="1.0"?>
<svg xmlns="http://www.w3.org/2000/svg" xmlns:xlink="http://www.w3.org/1999/xlink" xmlns:svgjs="http://svgjs.com/svgjs" version="1.1" width="512" height="512" x="0" y="0" viewBox="0 0 508.003 508.003" style="enable-background:new 0 0 512 512" xml:space="preserve" class=""><g transform="matrix(6.123233995736766e-17,-1,-1,-6.123233995736766e-17,508.00357246398926,508.00357246398926)"><g xmlns="http://www.w3.org/2000/svg"><g><g><path d="m339.193 346.285c-3.276-2.482-7.944-1.839-10.425 1.437l-8.82 11.638c-31.48 41.506-58.701 38.236-96.378 33.71-4.611-.554-9.378-1.127-14.286-1.631-.259-.026-.516-.038-.77-.038h-58.794c-36.874 0-66.873-29.981-66.873-66.834v-48.422c6.477 5.02 14.596 8.019 23.406 8.019 16.81 0 31.114-10.894 36.25-25.99 6.769 6.032 15.682 9.708 25.441 9.708 12.639 0 23.861-6.159 30.838-15.628 6.977 9.47 18.2 15.628 30.838 15.628 21.113 0 38.289-17.177 38.289-38.289v-98.586c0-.026-.002-.051-.002-.076v-92.662c0-12.896 10.499-23.386 23.405-23.386 6.253 0 12.13 2.433 16.551 6.854 4.42 4.412 6.855 10.283 6.855 16.532v24.189c0 4.11 3.332 7.441 7.441 7.441 4.11 0 7.441-3.332 7.441-7.441v-24.189c0-10.229-3.986-19.841-11.219-27.06-7.224-7.228-16.838-11.209-27.067-11.209-21.112 0-38.288 17.167-38.288 38.269v62.467c-6.477-5.02-14.595-8.018-23.405-8.018-18.873 0-34.589 13.729-37.713 31.722-6.565-5.284-14.899-8.457-23.963-8.457-16.81 0-31.114 10.894-36.25 25.99-6.769-6.032-15.682-9.708-25.441-9.708-21.112 0-38.289 17.177-38.289 38.289v154.013c0 29.825 16.077 55.958 40.014 70.226v49.481c0 4.11 3.332 7.441 7.441 7.441 4.11 0 7.441-3.332 7.441-7.441v-42.542c8.419 2.936 17.451 4.552 26.858 4.552h58.42c4.649.481 9.226 1.03 13.655 1.563 11.424 1.372 22.393 2.691 33.109 2.691 6.671 0 13.243-.516 19.763-1.844v84.427h-151.804v-17.096c0-4.11-3.332-7.441-7.441-7.441-4.11 0-7.441 3.332-7.441 7.441v24.538c0 4.11 3.332 7.441 7.441 7.441h166.686c4.11 0 7.441-3.332 7.441-7.441v-96.486c14.003-5.961 27.929-16.831 42.26-35.725l8.822-11.64c2.482-3.278 1.839-7.945-1.437-10.427zm-109.571-238.685c12.881 0 23.363 10.459 23.405 23.329l.002 98.663c0 12.906-10.5 23.406-23.406 23.406-12.787 0-23.206-10.31-23.397-23.053.001-.118.009-.235.009-.353l-.018-98.586c0-12.906 10.499-23.406 23.405-23.406zm-61.676 23.266c12.669 0 23.012 10.119 23.388 22.699v76.027c0 .118.008.235.009.353-.19 12.744-10.61 23.053-23.397 23.053-12.861 0-23.329-10.428-23.403-23.273v-59.172c0-.045-.003-.089-.003-.134v-16.148c0-12.905 10.499-23.405 23.406-23.405zm-85.098 39.688c0-12.906 10.5-23.406 23.406-23.406 12.861 0 23.329 10.428 23.403 23.273l.003 75.454c0 12.906-10.499 23.406-23.406 23.406s-23.406-10.5-23.406-23.406z" fill="#f7f8fb" data-original="#000000" style="" class=""/><path d="m439.642 205.779c-1.521-11.076-7.265-20.891-16.175-27.637-8.913-6.747-19.923-9.616-31.005-8.073-11.099 1.544-20.93 7.321-27.683 16.269l-35.175 46.607v-136.702c0-4.11-3.332-7.441-7.441-7.441-4.11 0-7.441 3.332-7.441 7.441v156.257c-3.829 4.152-9.391 6.475-15.226 6.282-28.889-.988-56.522 12.16-73.951 35.159-2.482 3.275-1.84 7.943 1.437 10.425 3.276 2.482 7.943 1.839 10.425-1.437 14.511-19.149 37.533-30.09 61.583-29.274 11.326.391 22.086-4.702 28.809-13.61l48.861-64.741c4.356-5.772 10.697-9.498 17.855-10.493 7.138-.992 14.232.853 19.973 5.199 5.737 4.342 9.435 10.662 10.414 17.794.979 7.136-.88 14.232-5.236 19.98l-71.72 94.636c-2.481 3.275-1.839 7.943 1.437 10.425 1.344 1.019 2.923 1.511 4.489 1.511 2.25 0 4.473-1.016 5.936-2.948l71.72-94.636c6.751-8.914 9.633-19.92 8.114-30.993z" fill="#f7f8fb" data-original="#000000" style="" class=""/></g></g></g></g></svg>
