<svg width="60" height="60" viewBox="0 0 60 60" fill="none" xmlns="http://www.w3.org/2000/svg">
<g clip-path="url(#clip0)">
<path d="M1.47191 37.3909C1.80078 37.6197 2.14834 37.8204 2.51091 37.9909C2.94291 38.2119 3.66691 38.5819 3.71791 38.8409C3.78083 39.1828 3.73972 39.5356 3.59991 39.8539C3.45091 40.1739 3.29491 40.4489 3.15991 40.6859C2.79391 41.3329 2.18091 42.4169 3.10491 43.1719C3.32091 43.3719 3.69391 43.6609 4.03391 43.9219C3.78362 44.3595 3.6704 44.8622 3.70891 45.3649C3.76178 45.7606 3.97653 46.1166 4.30191 46.3479C4.52391 46.5049 4.76091 46.6409 4.99491 46.7739C5.58591 47.1109 5.81691 47.2679 5.89491 47.5809C5.95048 47.9834 5.91633 48.3932 5.79491 48.7809C5.73591 49.0479 5.67891 49.3159 5.64491 49.5809C5.54561 50.4922 5.65821 51.4142 5.97391 52.2749C6.42362 53.8634 7.86025 54.9702 9.51091 54.9999C9.78651 54.9991 10.0613 54.9699 10.3309 54.9129C13.1877 54.2357 16.0028 53.3933 18.7619 52.3899C21.0149 53.7119 22.4379 57.7319 22.8089 59.2409C22.9197 59.687 23.3203 60.0001 23.7799 59.9999L48.8799 59.9299C49.198 59.9293 49.4968 59.7774 49.6848 59.5207C49.8727 59.2641 49.9274 58.9333 49.8319 58.6299C49.5847 57.9523 49.2437 57.3128 48.8189 56.7299C48.5791 56.3842 48.363 56.0227 48.1719 55.6479C47.7193 54.732 47.3417 53.7809 47.0429 52.8039C46.4796 50.8924 46.0867 48.9347 45.8689 46.9539C45.8361 46.5904 45.6079 46.2736 45.2734 46.1274C44.939 45.9812 44.5515 46.0289 44.2624 46.2517C43.9733 46.4746 43.8286 46.8373 43.8849 47.1979C44.1162 49.2974 44.5335 51.3722 45.1319 53.3979C45.461 54.4728 45.876 55.5195 46.3729 56.5279C46.6011 56.9808 46.86 57.4174 47.1479 57.8349L47.2149 57.9349L24.5359 57.9999C23.8721 55.6277 22.6672 53.4418 21.0159 51.6139L21.9159 51.2989C22.5859 51.0649 23.0909 50.8889 23.3499 50.8059C27.6339 49.4509 29.7759 47.4999 29.7179 45.0059C29.7187 44.7394 29.6103 44.4842 29.418 44.2998C29.2256 44.1154 28.9661 44.0178 28.6999 44.0299C28.148 44.043 27.7111 44.5009 27.7239 45.0529C27.7479 46.0819 26.9049 47.5829 22.7479 48.8979C22.4769 48.9849 21.9549 49.1669 21.2619 49.4089C20.5189 49.6689 19.5739 49.9989 18.5319 50.3529H18.5249C15.7107 51.3845 12.8393 52.2526 9.92492 52.9529C8.99239 53.1326 8.08422 52.5444 7.86691 51.6199C7.65328 51.051 7.57289 50.4407 7.63192 49.8359C7.65792 49.6259 7.70591 49.4179 7.75191 49.2089C7.95568 48.5172 7.98557 47.7859 7.83891 47.0799C7.54708 46.1626 6.87184 45.417 5.98791 45.0359L5.77992 44.9169C5.88789 44.6989 6.01683 44.4919 6.16491 44.2989C6.33267 44.0863 6.40706 43.8148 6.37106 43.5464C6.33506 43.278 6.19176 43.0357 5.97391 42.8749C5.73391 42.6989 5.16791 42.2749 4.75391 41.9409C4.80191 41.8539 4.85391 41.7579 4.90391 41.6709C5.06091 41.3959 5.23991 41.0759 5.41491 40.7059C5.73136 40.0049 5.82457 39.2236 5.68192 38.4679C5.44191 37.2479 4.27391 36.6499 3.42091 36.2139C3.13408 36.0781 2.85911 35.9186 2.59891 35.7369C2.38449 35.5928 2.18365 35.4295 1.99891 35.2489C1.99891 35.0979 2.16091 34.7319 2.92291 33.8029C4.71376 31.4983 6.24846 29.0056 7.49992 26.3689C7.73603 25.9556 7.86879 25.4915 7.88692 25.0159C7.78362 24.0107 7.25096 23.0993 6.42592 22.5159C6.02092 22.1449 5.63992 21.7949 5.59592 21.4719C5.6026 21.2349 5.65559 21.0015 5.75191 20.7849C5.91491 20.3559 6.10291 19.9359 6.29191 19.5149C6.70197 18.6694 7.02948 17.7863 7.26992 16.8779L7.36991 16.4519C7.58198 15.4521 7.85516 14.4662 8.18791 13.4999C8.97621 11.3241 10.1967 9.33045 11.7759 7.63888C13.6889 5.61488 16.6999 4.18288 20.7399 3.37988C23.8302 2.70148 26.9658 2.24962 30.1219 2.02788C31.696 1.94266 33.2746 2.03221 34.8289 2.29488C35.3662 2.37541 35.8695 2.01225 35.9624 1.47697C36.0553 0.9417 35.7039 0.430152 35.1709 0.324882C33.4695 0.0357315 31.7412 -0.0628773 30.0179 0.0308817C26.764 0.25657 23.531 0.72048 20.3449 1.41888C15.8359 2.31888 12.5589 3.89988 10.3219 6.26388C8.55733 8.15205 7.19296 10.3777 6.31091 12.8069C5.95078 13.8522 5.6549 14.9185 5.42492 15.9999L5.32491 16.4219C5.11149 17.2062 4.82524 17.9688 4.46991 18.6999C4.26991 19.1559 4.06191 19.6119 3.88291 20.0839C3.65268 20.6096 3.56143 21.1857 3.61791 21.7569C3.81971 22.6523 4.33731 23.445 5.07591 23.9899C5.56492 24.4389 5.88591 24.7549 5.88991 25.0299C5.85372 25.1822 5.79615 25.3287 5.71891 25.4649C4.52091 27.9888 3.0523 30.3751 1.33891 32.5819C0.615914 33.4629 -0.141086 34.4899 0.0199144 35.5169C0.231723 36.3116 0.755242 36.9873 1.47191 37.3909Z" fill="#5A93B9"/>
<path d="M11.1665 17.7928L11.2665 17.3478C11.4418 16.5164 11.6645 15.6957 11.9335 14.8898C12.5357 13.2203 13.4691 11.6897 14.6775 10.3898C15.9735 9.16777 17.5599 8.29664 19.2865 7.85877C19.6351 7.76053 19.9033 7.48147 19.9877 7.12925C20.0721 6.77702 19.9594 6.4067 19.6932 6.16115C19.427 5.91561 19.0487 5.83322 18.7045 5.94577C16.6439 6.48128 14.7561 7.53898 13.2235 9.01677C11.8309 10.5138 10.755 12.2767 10.0605 14.1998C9.76045 15.0874 9.51302 15.992 9.31948 16.9088L9.21948 17.3418C9.09468 17.8794 9.42901 18.4164 9.96648 18.5418C10.0409 18.5592 10.1171 18.568 10.1935 18.5678C10.6586 18.5671 11.0618 18.2459 11.1665 17.7928Z" fill="#5A93B9"/>
<path d="M9 22C9.55229 22 10 21.5523 10 21C10 20.4477 9.55229 20 9 20C8.44772 20 8 20.4477 8 21C8 21.5523 8.44772 22 9 22Z" fill="#5A93B9"/>
<path d="M26.9998 20.21C26.9313 23.6192 28.1361 26.9315 30.3788 29.5C31.0848 30.2335 31.8545 30.9028 32.6788 31.5C34.1418 32.631 35.5278 33.712 35.8958 35.216C34.7533 35.6682 34.0021 36.7713 33.9998 38V40C34.0051 41.2668 34.8055 42.3938 35.9998 42.816V43C35.9998 45.2091 37.7907 47 39.9998 47C42.209 47 43.9998 45.2091 43.9998 43V42.816C45.1942 42.3938 45.9946 41.2668 45.9998 40V38C45.9969 36.7703 45.2439 35.6669 44.0998 35.216C44.4668 33.716 45.8538 32.631 47.3168 31.5C48.141 30.9025 48.9107 30.2332 49.6168 29.5C51.8604 26.9317 53.0665 23.6196 52.9998 20.21C52.9719 13.0074 47.2011 7.1433 39.9998 7C32.7986 7.1433 27.0277 13.0074 26.9998 20.21ZM36.9998 22H35.9998C35.4475 22 34.9998 21.5523 34.9998 21C34.9998 20.4477 35.4475 20 35.9998 20C36.5521 20 36.9998 20.4477 36.9998 21V22ZM40.9998 35H38.9998V24H40.9998V35ZM39.9998 45C38.8953 45 37.9998 44.1046 37.9998 43H41.9998C41.9998 44.1046 41.1044 45 39.9998 45ZM43.9998 40C43.9998 40.5523 43.5521 41 42.9998 41H36.9998C36.4475 41 35.9998 40.5523 35.9998 40V38C35.9998 37.4477 36.4475 37 36.9998 37H42.9998C43.5521 37 43.9998 37.4477 43.9998 38V40ZM50.9998 20.241C51.0621 23.1446 50.0415 25.9675 48.1368 28.16C47.5096 28.8031 46.8281 29.391 46.0998 29.917C44.9208 30.7384 43.8752 31.7364 42.9998 32.876V24H43.9998C45.6567 24 46.9998 22.6569 46.9998 21C46.9998 19.3431 45.6567 18 43.9998 18C42.343 18 40.9998 19.3431 40.9998 21V22H38.9998V21C38.9998 19.3431 37.6567 18 35.9998 18C34.343 18 32.9998 19.3431 32.9998 21C32.9998 22.6569 34.343 24 35.9998 24H36.9998V32.876C36.1261 31.737 35.0822 30.7393 33.9048 29.918C33.1763 29.3916 32.4944 28.8034 31.8668 28.16C29.9602 25.9684 28.9381 23.1452 28.9998 20.241C29.0998 14.147 34.1318 9 39.9998 9C45.8678 9 50.9048 14.147 50.9998 20.241ZM42.9998 22V21C42.9998 20.4477 43.4475 20 43.9998 20C44.5521 20 44.9998 20.4477 44.9998 21C44.9998 21.5523 44.5521 22 43.9998 22H42.9998Z" fill="#5A93B9"/>
<path d="M56 21H59C59.5523 21 60 20.5523 60 20C60 19.4477 59.5523 19 59 19H56C55.4477 19 55 19.4477 55 20C55 20.5523 55.4477 21 56 21Z" fill="#5A93B9"/>
<path d="M51.3133 9.6868C51.5789 9.68701 51.8336 9.5816 52.0213 9.3938L54.1423 7.2718C54.4023 7.02073 54.5065 6.64893 54.415 6.2993C54.3235 5.94967 54.0505 5.67662 53.7008 5.58511C53.3512 5.49359 52.9794 5.59785 52.7283 5.8578L50.6063 7.9788C50.3197 8.2647 50.2337 8.69521 50.3886 9.06927C50.5434 9.44332 50.9085 9.68712 51.3133 9.6868Z" fill="#5A93B9"/>
<path d="M40 5C40.5523 5 41 4.55229 41 4V1C41 0.447715 40.5523 0 40 0C39.4477 0 39 0.447715 39 1V4C39 4.55229 39.4477 5 40 5Z" fill="#5A93B9"/>
<path d="M29.394 9.3938C29.5818 9.20624 29.6873 8.95171 29.6873 8.6863C29.6873 8.42089 29.5818 8.16637 29.394 7.9788L27.272 5.8578C27.021 5.59785 26.6492 5.49359 26.2995 5.58511C25.9499 5.67662 25.6769 5.94967 25.5854 6.2993C25.4938 6.64893 25.5981 7.02073 25.858 7.2718L27.979 9.3938C28.1666 9.58158 28.4211 9.68709 28.6865 9.68709C28.952 9.68709 29.2065 9.58158 29.394 9.3938Z" fill="#5A93B9"/>
<path d="M21 19C20.4477 19 20 19.4477 20 20C20 20.5523 20.4477 21 21 21H24C24.5523 21 25 20.5523 25 20C25 19.4477 24.5523 19 24 19H21Z" fill="#5A93B9"/>
</g>
<defs>
<clipPath id="clip0">
<rect width="60" height="60" fill="white"/>
</clipPath>
</defs>
</svg>
