<svg width="60" height="60" viewBox="0 0 60 60" fill="none" xmlns="http://www.w3.org/2000/svg">
<g clip-path="url(#clip0)">
<path d="M47.9925 30.4575C47.6512 30.0024 47.0056 29.9102 46.5504 30.2515C46.3318 30.4155 46.1872 30.6597 46.1487 30.9303L45.577 34.9373C45.5632 34.9888 45.5452 35.039 45.5234 35.0877C46.574 33.6927 47.4219 32.156 48.042 30.5234L47.9925 30.4575Z" fill="#F7F8FB"/>
<path d="M44.5566 35.8209C44.5081 35.8209 44.4596 35.8178 44.4114 35.8117L38.2928 34.9371C37.7296 34.8564 37.3385 34.3345 37.4193 33.7713C37.4193 33.7712 37.4193 33.7712 37.4193 33.7711L37.991 29.7641C38.0707 29.2008 37.6787 28.6796 37.1154 28.5999C36.8459 28.5617 36.5722 28.6318 36.3542 28.7948L33.1156 31.2227C32.6605 31.564 32.0149 31.4718 31.6735 31.0167L27.9653 26.0723C27.6239 25.6172 27.7161 24.9716 28.1713 24.6302L31.4088 22.2023C31.864 21.861 31.9562 21.2154 31.6148 20.7602C31.4508 20.5416 31.2067 20.397 30.936 20.3585L26.929 19.7858C26.3658 19.7057 25.9741 19.1841 26.0544 18.6209C26.0544 18.6205 26.0545 18.6201 26.0545 18.6198L26.929 12.5022C27.0091 11.939 27.5307 11.5473 28.0939 11.6275C28.0943 11.6275 28.0947 11.6276 28.0951 11.6276L32.102 12.2003C32.5142 12.2601 32.9215 12.0641 33.1321 11.7049C33.3509 11.3478 33.3263 10.8928 33.0703 10.5615L30.6445 7.32502C30.3032 6.86986 30.3953 6.22426 30.8505 5.88292L31.4346 5.44514C30.4884 5.39943 29.5401 5.42479 28.5977 5.52136C18.4237 6.68303 11.1179 15.8724 12.2796 26.0464C12.9125 31.5889 16.007 36.5518 20.7053 39.559C22.4207 40.6226 23.4742 42.4883 23.4989 44.5065V48.669C23.4989 50.3757 24.8824 51.7592 26.5891 51.7592H34.8297C36.5364 51.7592 37.9199 50.3757 37.9199 48.669V44.592C37.946 42.5264 39.0212 40.6162 40.7732 39.522C42.3971 38.4685 43.8473 37.1688 45.0717 35.6695C44.9164 35.7647 44.7387 35.8169 44.5566 35.8209ZM31.7395 48.669H29.6793V45.5788H31.7395V48.669ZM29.6793 43.5186C29.6787 40.7951 27.9993 38.3539 25.456 37.3794C18.0383 34.479 14.3764 26.1147 17.2769 18.697C18.3999 15.8248 20.4142 13.3883 23.024 11.7451L24.1169 13.4879C18.3389 17.1237 16.6023 24.755 20.2381 30.533C21.6467 32.7717 23.7363 34.4995 26.1997 35.4625C29.5382 36.7394 31.742 39.9443 31.7395 43.5186H29.6793Z" fill="#F7F8FB"/>
<path d="M26.5889 56.9097V57.9397C26.5889 59.0776 27.5112 59.9999 28.649 59.9999H32.7693C33.9071 59.9999 34.8294 59.0776 34.8294 57.9397V56.9097H26.5889Z" fill="#F7F8FB"/>
<path d="M20.1494 40.4284C19.539 40.0327 18.9513 39.6032 18.389 39.1418C16.8339 42.169 13.1195 43.3623 10.0924 41.8074C8.03198 40.749 6.73924 38.6245 6.74606 36.3081C6.75083 33.1938 9.07016 30.5687 12.1601 30.1802C11.7821 29.0433 11.509 27.874 11.3443 26.6873L11.164 27.5443C10.93 28.6577 9.83744 29.3705 8.72406 29.1364C8.4574 29.0804 8.20451 28.972 7.98009 28.8174L5.83754 27.3465L3.96075 29.2192L5.43581 31.3638C6.08141 32.3006 5.84526 33.5836 4.90841 34.2292C4.68373 34.384 4.43059 34.4926 4.16367 34.5488L1.5957 35.0896V37.537L4.16367 38.0778C5.27705 38.3123 5.9896 39.4049 5.75513 40.5183C5.69887 40.7856 5.58994 41.039 5.43478 41.2638L3.96075 43.3971L5.83754 45.2697L7.97803 43.7947C8.91488 43.1491 10.1978 43.3852 10.8434 44.3221C10.9982 44.5468 11.1069 44.7999 11.163 45.0668L11.7028 47.6389H14.1512L14.691 45.0709C14.9253 43.9576 16.0179 43.2449 17.1312 43.4792C17.3982 43.5354 17.6513 43.644 17.876 43.7988L20.0154 45.2697L22.2249 43.0602C21.8545 41.9715 21.1219 41.0425 20.1494 40.4284Z" fill="#F7F8FB"/>
<path d="M34.8294 52.7896H26.5889V54.8497H34.8294V52.7896Z" fill="#F7F8FB"/>
<path d="M56.4284 17.7578C54.7389 17.5163 53.5651 15.9507 53.8067 14.2612C53.9227 13.4499 54.3562 12.7179 55.012 12.2263L57.4255 10.4155L54.9533 7.11924L52.5398 8.92908C51.1747 9.95348 49.2377 9.67717 48.2134 8.31219C47.7222 7.65758 47.5106 6.83469 47.6254 6.02428L48.0518 3.03707L43.9738 2.45508L43.5473 5.44229C43.3056 7.13173 41.7402 8.3055 40.0507 8.06395C39.2394 7.94793 38.5074 7.5144 38.0158 6.85863L36.205 4.44106L32.9087 6.91323L34.7186 9.32669C35.7427 10.6919 35.4663 12.6288 34.101 13.6531C33.445 14.1452 32.6204 14.3564 31.8086 14.2401L28.8214 13.8137L28.2363 17.8928L31.2235 18.3192C32.913 18.5609 34.0868 20.1263 33.8452 21.8158C33.7292 22.6271 33.2957 23.3591 32.6399 23.8507L30.2275 25.6616L32.6996 28.9578L35.1131 27.148C36.4783 26.1238 38.4152 26.4003 39.4395 27.7655C39.9316 28.4215 40.1428 29.2462 40.0265 30.0579L39.6001 33.0451L43.6874 33.6302L44.1139 30.643C44.3555 28.9535 45.921 27.7798 47.6104 28.0213C48.4217 28.1373 49.1537 28.5709 49.6453 29.2266L51.4562 31.6391L54.7524 29.1669L52.9364 26.7493C51.9127 25.3838 52.1896 23.4469 53.5551 22.4231C54.2097 21.9323 55.0322 21.7212 55.8422 21.8359L58.8295 22.2623L59.4114 18.1843L56.4284 17.7578ZM43.8275 24.2195C40.4141 24.2195 37.6471 21.4524 37.6471 18.039C37.6471 14.6256 40.4141 11.8586 43.8275 11.8586C47.2409 11.8586 50.0079 14.6256 50.0079 18.039C50.0039 21.4508 47.2392 24.2155 43.8275 24.2195Z" fill="#F7F8FB"/>
<path d="M57.4908 38.3687H50.2803V40.4288H57.4908V38.3687Z" fill="#F7F8FB"/>
<path d="M49.9095 43.7565L48.5908 45.3394L54.7717 50.4889L56.0904 48.9061L49.9095 43.7565Z" fill="#F7F8FB"/>
<path d="M46.1597 46.6091H44.0996V53.8196H46.1597V46.6091Z" fill="#F7F8FB"/>
<path d="M8.82692 15.7371L0.586914 17.7969L1.08625 19.7944L9.32625 17.7346L8.82692 15.7371Z" fill="#F7F8FB"/>
<path d="M3.49461 5.5994L2.29785 7.2749L9.50778 12.4247L10.7045 10.7492L3.49461 5.5994Z" fill="#F7F8FB"/>
<path d="M13.1199 -0.000775881L11.124 0.509521L13.2308 8.74945L15.2267 8.23916L13.1199 -0.000775881Z" fill="#F7F8FB"/>
</g>
<defs>
<clipPath id="clip0">
<rect width="60" height="60" fill="white"/>
</clipPath>
</defs>
</svg>
