<svg width="60" height="60" viewBox="0 0 60 60" fill="none" xmlns="http://www.w3.org/2000/svg">
<g clip-path="url(#clip0)">
<path d="M33.4807 28.9752C35.7574 28.9752 37.6097 27.1229 37.6097 24.8462C37.6097 24.4372 37.549 24.0423 37.4378 23.6689L34.0814 25.6905C33.0172 26.3314 32.6741 27.7138 33.315 28.778C33.3565 28.8468 33.4018 28.9118 33.4493 28.9745C33.4598 28.9745 33.4701 28.9752 33.4807 28.9752V28.9752Z" fill="#F7F8FB"/>
<path d="M59.5004 56.9424L58.3088 43.359C58.2894 43.1376 58.2438 42.9192 58.1729 42.7085L56.0404 36.1383L58.0596 18.725C58.277 16.8506 56.9336 15.1549 55.0592 14.9376L49.0068 14.2357C47.1324 14.0183 45.4367 15.3618 45.2193 17.2362L45.1017 18.2503L44.6149 18.6389C44.6884 19.1077 44.6153 19.5941 44.3968 20.0258L47.8689 17.9538L43.248 22.3873C42.9645 22.6594 42.7501 22.9951 42.6222 23.3666L39.5756 32.2311C39.1323 33.521 39.8186 34.926 41.1084 35.3693C42.405 35.8149 43.8057 35.1192 44.2466 33.8365L47.0988 25.5374L51.2881 21.5181L48.6631 25.5297L45.6431 34.3166C45.2047 35.5923 44.1773 36.4978 42.9694 36.8353L43.3487 44.4428L37.9604 55.9995C37.3041 57.4069 37.913 59.0797 39.3205 59.736C40.7246 60.3905 42.3992 59.7866 43.057 58.3758L48.74 46.1872C48.9335 45.7723 49.0228 45.3164 48.9999 44.859L48.5218 35.2665L49.7866 35.4131L52.7361 44.1839L53.8984 57.4338C54.0346 58.9859 55.4035 60.1247 56.9451 59.9891C58.4921 59.8533 59.6361 58.4892 59.5004 56.9424V56.9424Z" fill="#F7F8FB"/>
<path d="M56.7705 11.9218C58.9605 10.1872 59.3296 7.00559 57.595 4.8156C55.8603 2.62561 52.6787 2.25651 50.4888 3.99118C48.2988 5.72585 47.9297 8.90742 49.6643 11.0974C51.399 13.2874 54.5806 13.6565 56.7705 11.9218Z" fill="#F7F8FB"/>
<path d="M15.1093 25.6756L23.5114 29.831C24.7419 30.4394 26.2191 29.9268 26.8199 28.7121C27.4244 27.4896 26.9236 26.0083 25.701 25.4036L17.8348 21.5134L14.482 16.9768L18.0204 20.0243L19.6015 20.8062L22.5819 20.0612C22.4095 19.7363 22.3165 19.3729 22.3165 18.9946C22.3165 18.3854 22.5538 17.8126 22.9846 17.3818L26.0166 14.3498C26.156 14.2104 26.3116 14.0935 26.4772 13.9961L18.1169 16.0857L18.1209 15.6471C18.1209 13.7748 16.6031 12.2568 14.7307 12.2568H8.52268C6.65026 12.2568 5.13245 13.7746 5.13245 15.6471V34.5923L6.89155 43.7274L0.799206 55.8098C0.0809642 57.2345 0.653425 58.9716 2.07807 59.6899C3.49639 60.4051 5.23675 59.8419 5.95815 58.411L12.495 45.447C12.7832 44.8756 12.8733 44.2247 12.7514 43.5964L11.0052 34.5922H12.0015L14.3715 44.039L12.3573 56.6552C12.1058 58.2307 13.1791 59.7118 14.7546 59.9634C16.3258 60.2143 17.8106 59.1454 18.0628 57.5661L20.1702 44.3655C20.2317 43.98 20.2145 43.5859 20.1194 43.2071L18.1208 34.5923V28.7461L14.4808 26.9459C14.1973 26.7641 13.4467 26.611 13.0781 25.7721L10.5096 19.9123L14.2176 24.9298C14.4516 25.2458 14.7571 25.5015 15.1093 25.6756V25.6756Z" fill="#F7F8FB"/>
<path d="M15.5174 9.32138C17.8413 7.71752 18.425 4.53343 16.8211 2.20952C15.2173 -0.114395 12.0332 -0.698106 9.70928 0.905759C7.38537 2.50962 6.80165 5.69372 8.40552 8.01763C10.0094 10.3415 13.1935 10.9252 15.5174 9.32138Z" fill="#F7F8FB"/>
<path d="M42.9627 18.3964L39.9307 15.3644C39.6004 15.0341 39.0648 15.0341 38.7345 15.3644L37.9034 16.1955C37.4455 15.9609 36.9672 15.761 36.4708 15.6007V14.4269C36.4708 13.9597 36.092 13.5811 35.6249 13.5811H31.3371C30.87 13.5811 30.4913 13.9597 30.4913 14.4269V15.6007C29.9949 15.7611 29.5165 15.961 29.0587 16.1955L28.2277 15.3644C27.8975 15.0342 27.3618 15.0341 27.0314 15.3644L23.9996 18.3964C23.6692 18.7268 23.6692 19.2623 23.9996 19.5927L24.8305 20.4236C24.5959 20.8815 24.3961 21.3598 24.2357 21.8563H23.062C22.7893 21.8563 22.5473 21.9859 22.3926 22.1864L26.3294 24.1333C27.0493 24.4893 27.6101 25.0386 27.9804 25.6874C27.9388 25.413 27.9171 25.1321 27.9171 24.8461C27.9171 21.7731 30.4083 19.282 33.4812 19.282C36.5542 19.282 39.0453 21.7732 39.0453 24.8461C39.0453 27.919 36.5541 30.4101 33.4812 30.4101C31.2832 30.4101 29.3834 29.1352 28.4794 27.285C28.5388 27.9698 28.4173 28.679 28.0903 29.3402C27.347 30.8433 25.7616 31.6533 24.1862 31.4822L27.0317 34.3276C27.3619 34.6578 27.8976 34.6579 28.2279 34.3276L29.0589 33.4966C29.5168 33.7312 29.9951 33.9312 30.4915 34.0915V35.2652C30.4915 35.7323 30.8703 36.1111 31.3374 36.1111H35.6251C36.0923 36.1111 36.471 35.7324 36.471 35.2652V34.0915C36.9517 33.9361 37.538 33.6924 37.9905 33.4643C37.9282 32.9032 37.9838 32.3204 38.1794 31.7511C38.4812 30.8728 40.9485 23.6941 41.4246 22.3086C41.6998 21.5079 42.3612 21.262 42.4755 21.1726C42.3709 20.9175 42.2567 20.6675 42.1317 20.4238L42.9627 19.5928C43.2931 19.2623 43.2931 18.7268 42.9627 18.3964V18.3964Z" fill="#F7F8FB"/>
</g>
<defs>
<clipPath id="clip0">
<rect width="60" height="60" fill="white"/>
</clipPath>
</defs>
</svg>
