<?xml version="1.0"?>
<svg xmlns="http://www.w3.org/2000/svg" xmlns:xlink="http://www.w3.org/1999/xlink" xmlns:svgjs="http://svgjs.com/svgjs" version="1.1" width="512" height="512" x="0" y="0" viewBox="0 0 512 512" style="enable-background:new 0 0 512 512" xml:space="preserve" class=""><g><g xmlns="http://www.w3.org/2000/svg"><path d="m285.701 247.255c19.428 0 35.234-15.806 35.234-35.234 0-3.49-.518-6.86-1.467-10.046l-28.641 17.251c-9.081 5.469-12.009 17.265-6.54 26.346.354.587.741 1.142 1.146 1.677.09 0 .178.006.268.006z" fill="#f7f8fb" data-original="#000000" style=""/><path d="m507.735 485.909-10.168-115.911c-.166-1.89-.555-3.753-1.16-5.551l-18.197-56.066 17.23-148.593c1.855-15.995-9.608-30.465-25.603-32.32l-51.647-5.989c-15.995-1.855-30.465 9.609-32.32 25.604l-1.004 8.654-4.154 3.316c.627 4 .004 8.151-1.861 11.835l29.629-17.681-39.432 37.832c-2.419 2.322-4.249 5.187-5.34 8.357l-25.998 75.644c-3.783 11.007 2.074 22.996 13.08 26.779 11.064 3.802 23.017-2.134 26.779-13.08l24.339-70.819 35.749-34.298-22.4 34.232-25.771 74.982c-3.741 10.886-12.508 18.613-22.815 21.493l3.236 64.917-45.98 98.617c-5.6 12.01-.404 26.285 11.606 31.885 11.982 5.585 26.272.432 31.885-11.607l48.495-104.009c1.651-3.541 2.413-7.431 2.218-11.334l-4.08-81.856 10.793 1.251 25.169 74.844 9.918 113.066c1.163 13.244 12.844 22.962 25.999 21.805 13.201-1.159 22.963-12.799 21.805-25.999z" fill="#f7f8fb" data-original="#000000" style=""/><ellipse cx="457.563" cy="67.907" rx="43.16" ry="43.16" transform="matrix(.784 -.621 .621 .784 56.737 298.805)" fill="#f7f8fb" data-original="#000000" style=""/><path d="m128.93 219.099 71.698 35.459c10.5 5.192 23.105.818 28.232-9.548 5.159-10.432.885-23.072-9.548-28.232l-67.125-33.197-28.61-38.712 30.194 26.005 13.492 6.673 25.433-6.358c-1.471-2.772-2.265-5.873-2.265-9.101 0-5.199 2.025-10.087 5.701-13.763l25.873-25.873c1.19-1.19 2.518-2.187 3.931-3.018l-71.341 17.831.034-3.743c0-15.977-12.952-28.93-28.93-28.93h-52.975c-15.978 0-28.93 12.952-28.93 28.93v161.666l15.011 77.953-51.988 103.103c-6.129 12.157-1.244 26.981 10.913 33.11 12.103 6.103 26.954 1.297 33.11-10.913l55.781-110.626c2.459-4.876 3.228-10.431 2.188-15.792l-14.901-76.836h8.502l20.224 80.613-17.188 107.658c-2.146 13.444 7.013 26.083 20.457 28.23 13.408 2.141 26.078-6.98 28.23-20.457l17.983-112.645c.525-3.29.378-6.653-.433-9.885l-17.055-73.513v-49.888l-31.061-15.361c-2.42-1.552-8.825-2.858-11.97-10.017l-21.918-50.003 31.642 42.816c1.996 2.696 4.603 4.878 7.609 6.364z" fill="#f7f8fb" data-original="#000000" style=""/><ellipse cx="107.632" cy="43.641" rx="43.629" ry="43.629" transform="matrix(.823 -.568 .568 .823 -5.741 68.855)" fill="#f7f8fb" data-original="#000000" style=""/><g><path d="m366.61 156.984-25.873-25.873c-2.819-2.819-7.389-2.819-10.208 0l-7.092 7.092c-3.907-2.002-7.989-3.708-12.225-5.076v-10.016c0-3.987-3.232-7.218-7.218-7.218h-36.589c-3.986 0-7.218 3.231-7.218 7.218v10.016c-4.236 1.369-8.318 3.075-12.225 5.076l-7.091-7.092c-2.818-2.818-7.389-2.819-10.208 0l-25.872 25.873c-2.819 2.819-2.819 7.389 0 10.208l7.091 7.091c-2.002 3.907-3.707 7.989-5.076 12.225h-10.016c-2.327 0-4.392 1.106-5.712 2.817l33.594 16.614c6.143 3.038 10.929 7.725 14.089 13.261-.355-2.341-.54-4.738-.54-7.179 0-26.223 21.258-47.48 47.48-47.48 26.223 0 47.48 21.258 47.48 47.48s-21.258 47.48-47.48 47.48c-18.756 0-34.968-10.879-42.682-26.668.507 5.844-.53 11.896-3.32 17.538-6.343 12.826-19.872 19.738-33.315 18.278l24.281 24.281c2.818 2.818 7.389 2.819 10.208 0l7.091-7.091c3.907 2.002 7.989 3.708 12.225 5.076v10.016c0 3.986 3.232 7.218 7.218 7.218h36.589c3.986 0 7.218-3.231 7.218-7.218v-10.016c4.102-1.326 9.105-3.405 12.966-5.352-.531-4.788-.057-9.761 1.612-14.619 2.576-7.495 23.63-68.753 27.693-80.576 2.348-6.833 7.992-8.931 8.967-9.694-.892-2.177-1.867-4.31-2.933-6.39l7.091-7.091c2.819-2.82 2.819-7.39 0-10.209z" fill="#f7f8fb" data-original="#000000" style=""/></g></g></g></svg>
