<?xml version="1.0"?>
<svg xmlns="http://www.w3.org/2000/svg" xmlns:xlink="http://www.w3.org/1999/xlink" xmlns:svgjs="http://svgjs.com/svgjs" version="1.1" width="512" height="512" x="0" y="0" viewBox="0 0 480 480.00004" style="enable-background:new 0 0 512 512" xml:space="preserve" class=""><g transform="matrix(1,0,0,1,75,0)"><path xmlns="http://www.w3.org/2000/svg" d="m336.007812 56c0-13.253906-10.746093-24-24-24h-200v-24c0-4.417969-3.582031-8-8-8h-48c-4.417968 0-8 3.582031-8 8v24h-24c-11.675781-.023438-21.664062 8.378906-23.644531 19.886719-1.976562 11.507812 4.632813 22.761719 15.644531 26.640625v82.945312c-9.585937 3.339844-16.007812 12.378906-16.007812 22.527344s6.421875 19.1875 16.007812 22.527344v98.945312c-9.585937 3.339844-16.007812 12.378906-16.007812 22.527344s6.421875 19.1875 16.007812 22.527344v82.945312c-11.011718 3.878906-17.621093 15.132813-15.644531 26.640625 1.980469 11.507813 11.96875 19.910157 23.644531 19.886719h288c11.675782.023438 21.664063-8.378906 23.644532-19.886719 1.976562-11.507812-4.632813-22.761719-15.644532-26.640625v-82.945312c9.585938-3.339844 16.007813-12.378906 16.007813-22.527344s-6.421875-19.1875-16.007813-22.527344v-98.945312c9.585938-3.339844 16.007813-12.378906 16.007813-22.527344s-6.421875-19.1875-16.007813-22.527344v-82.945312c9.554688-3.378906 15.957032-12.394532 16-22.527344zm-272-40h32v16h-32zm-40 32h288c4.417969 0 8 3.582031 8 8s-3.582031 8-8 8h-288c-4.417968 0-8-3.582031-8-8s3.582032-8 8-8zm280 112h-64.304687c-42.441406-32-100.949219-32-143.390625 0h-64.304688v-80h272zm-26.089843 144c13.457031-30.585938 13.457031-65.414062 0-96h26.089843v96zm-5.910157-48c0 57.4375-46.5625 104-104 104s-104-46.5625-104-104 46.5625-104 104-104c57.410157.066406 103.933594 46.589844 104 104zm-240 96h64.304688c42.441406 32 100.949219 32 143.390625 0h64.304687v80h-272zm26.085938-144c-13.453125 30.585938-13.453125 65.414062 0 96h-26.085938v-96zm-34.085938-32h54.808594c-4.484375 4.988281-8.546875 10.339844-12.144531 16h-42.664063c-4.417968 0-8-3.582031-8-8s3.582032-8 8-8zm0 144h42.664063c3.597656 5.660156 7.660156 11.011719 12.144531 16h-54.808594c-4.417968 0-8-3.582031-8-8s3.582032-8 8-8zm288 144h-288c-4.417968 0-8-3.582031-8-8s3.582032-8 8-8h288c4.417969 0 8 3.582031 8 8s-3.582031 8-8 8zm0-128h-54.808593c4.484375-4.988281 8.546875-10.339844 12.144531-16h42.664062c4.417969 0 8 3.582031 8 8s-3.582031 8-8 8zm0-144h-42.664062c-3.597656-5.660156-7.660156-11.011719-12.144531-16h54.808593c4.417969 0 8 3.582031 8 8s-3.582031 8-8 8zm0 0" fill="#fa902e" data-original="#000000" style="" class=""/><path xmlns="http://www.w3.org/2000/svg" d="m192.007812 256c0-13.253906-10.746093-24-24-24-13.253906 0-24 10.746094-24 24s10.746094 24 24 24c13.253907 0 24-10.746094 24-24zm-24 8c-4.417968 0-8-3.582031-8-8s3.582032-8 8-8c4.417969 0 8 3.582031 8 8s-3.582031 8-8 8zm0 0" fill="#fa902e" data-original="#000000" style="" class=""/><path xmlns="http://www.w3.org/2000/svg" d="m141.167969 225.503906c1.0625 1.84375 2.8125 3.1875 4.863281 3.734375 2.054688.550781 4.242188.257813 6.082031-.804687 9.78125-5.882813 22.007813-5.882813 31.789063 0 1.21875.699218 2.597656 1.070312 4 1.070312.699218.003906 1.394531-.085937 2.066406-.273437 2.054688-.539063 3.808594-1.882813 4.863281-3.726563l20.054688-34.726562c2.210937-3.824219.902343-8.71875-2.917969-10.929688-27.269531-15.496094-60.683594-15.496094-87.953125 0-3.824219 2.210938-5.128906 7.105469-2.921875 10.929688zm55.640625-35.425781-12.144532 21.035156c-10.734374-4.152343-22.628906-4.152343-33.359374 0l-12.097657-21.035156c18.375-7.96875 39.226563-7.96875 57.601563 0zm0 0" fill="#fa902e" data-original="#000000" style="" class=""/><path xmlns="http://www.w3.org/2000/svg" d="m152.105469 283.574219c-9.953125-5.609375-16.105469-16.152344-16.097657-27.574219 0-4.417969-3.582031-8-8-8h-40c-4.417968 0-8 3.582031-8 8 .074219 31.402344 16.832032 60.402344 44 76.152344 1.21875.699218 2.597657 1.070312 4 1.070312.699219.007813 1.398438-.085937 2.070313-.269531 2.050781-.550781 3.796875-1.890625 4.859375-3.730469l20.054688-34.726562c2.210937-3.8125.917968-8.699219-2.886719-10.921875zm-26.769531 30.328125c-16.125-11.914063-26.582032-29.984375-28.871094-49.902344h24.230468c1.996094 11.292969 7.953126 21.503906 16.800782 28.800781zm0 0" fill="#fa902e" data-original="#000000" style="" class=""/><path xmlns="http://www.w3.org/2000/svg" d="m200.007812 256c.007813 11.421875-6.144531 21.964844-16.097656 27.574219-3.816406 2.214843-5.125 7.097656-2.917968 10.921875l20.054687 34.726562c1.0625 1.839844 2.808594 3.179688 4.855469 3.730469.675781.183594 1.375.277344 2.074218.269531 1.402344 0 2.78125-.371094 4-1.070312 27.179688-15.742188 43.949219-44.742188 44.03125-76.152344 0-4.417969-3.582031-8-8-8h-40c-4.417968 0-8 3.582031-8 8zm39.542969 8c-2.289062 19.917969-12.746093 37.988281-28.871093 49.902344l-12.167969-21.101563c8.847656-7.296875 14.804687-17.507812 16.800781-28.800781zm0 0" fill="#fa902e" data-original="#000000" style="" class=""/></g></svg>
