<svg width="95" height="95" viewBox="0 0 95 95" fill="none" xmlns="http://www.w3.org/2000/svg">
<g clip-path="url(#clip0)">
<path d="M81.3453 11.0833C81.3453 8.46016 79.2185 6.33333 76.5953 6.33333H37.012V1.58333C37.012 0.708944 36.303 0 35.4286 0H25.9286C25.0542 0 24.3453 0.708944 24.3453 1.58333V6.33333H19.5953C17.2845 6.32869 15.3076 7.99166 14.9156 10.2692C14.5245 12.5468 15.8326 14.7742 18.012 15.5419V31.9581C16.1147 32.6191 14.8438 34.4081 14.8438 36.4167C14.8438 38.4252 16.1147 40.2142 18.012 40.8752V60.4581C16.1147 61.1191 14.8438 62.9081 14.8438 64.9167C14.8438 66.9252 16.1147 68.7142 18.012 69.3752V85.7915C15.8326 86.5592 14.5245 88.7865 14.9156 91.0641C15.3076 93.3417 17.2845 95.0046 19.5953 95H76.5953C78.9061 95.0046 80.883 93.3417 81.2749 91.0641C81.6661 88.7865 80.358 86.5592 78.1786 85.7915V69.3752C80.0758 68.7142 81.3468 66.9252 81.3468 64.9167C81.3468 62.9081 80.0758 61.1191 78.1786 60.4581V40.8752C80.0758 40.2142 81.3468 38.4252 81.3468 36.4167C81.3468 34.4081 80.0758 32.6191 78.1786 31.9581V15.5419C80.0697 14.8731 81.3368 13.0888 81.3453 11.0833V11.0833ZM27.512 3.16667H33.8453V6.33333H27.512V3.16667ZM19.5953 9.5H76.5953C77.4697 9.5 78.1786 10.2089 78.1786 11.0833C78.1786 11.9577 77.4697 12.6667 76.5953 12.6667H19.5953C18.7209 12.6667 18.012 11.9577 18.012 11.0833C18.012 10.2089 18.7209 9.5 19.5953 9.5ZM75.012 31.6667H62.285C53.8851 25.3333 42.3055 25.3333 33.9056 31.6667H21.1786V15.8333H75.012V31.6667ZM69.8483 60.1667C72.5117 54.1132 72.5117 47.2201 69.8483 41.1667H75.012V60.1667H69.8483ZM68.6786 50.6667C68.6786 62.0345 59.4631 71.25 48.0953 71.25C36.7275 71.25 27.512 62.0345 27.512 50.6667C27.512 39.2988 36.7275 30.0833 48.0953 30.0833C59.4577 30.0965 68.6655 39.3042 68.6786 50.6667ZM21.1786 69.6667H33.9056C42.3055 76 53.8851 76 62.285 69.6667H75.012V85.5H21.1786V69.6667ZM26.3415 41.1667C23.6789 47.2201 23.6789 54.1132 26.3415 60.1667H21.1786V41.1667H26.3415ZM19.5953 34.8333H30.4428C29.5553 35.8206 28.7513 36.8798 28.0392 38H19.5953C18.7209 38 18.012 37.2911 18.012 36.4167C18.012 35.5423 18.7209 34.8333 19.5953 34.8333ZM19.5953 63.3333H28.0392C28.7513 64.4536 29.5553 65.5127 30.4428 66.5H19.5953C18.7209 66.5 18.012 65.7911 18.012 64.9167C18.012 64.0423 18.7209 63.3333 19.5953 63.3333ZM76.5953 91.8333H19.5953C18.7209 91.8333 18.012 91.1244 18.012 90.25C18.012 89.3756 18.7209 88.6667 19.5953 88.6667H76.5953C77.4697 88.6667 78.1786 89.3756 78.1786 90.25C78.1786 91.1244 77.4697 91.8333 76.5953 91.8333ZM76.5953 66.5H65.7478C66.6353 65.5127 67.4393 64.4536 68.1514 63.3333H76.5953C77.4697 63.3333 78.1786 64.0423 78.1786 64.9167C78.1786 65.7911 77.4697 66.5 76.5953 66.5ZM76.5953 38H68.1514C67.4393 36.8798 66.6353 35.8206 65.7478 34.8333H76.5953C77.4697 34.8333 78.1786 35.5423 78.1786 36.4167C78.1786 37.2911 77.4697 38 76.5953 38V38Z" fill="#FA902E"/>
<path d="M52.8452 50.6665C52.8452 48.0433 50.7184 45.9165 48.0952 45.9165C45.472 45.9165 43.3452 48.0433 43.3452 50.6665C43.3452 53.2897 45.472 55.4165 48.0952 55.4165C50.7184 55.4165 52.8452 53.2897 52.8452 50.6665ZM48.0952 52.2498C47.2208 52.2498 46.5119 51.5409 46.5119 50.6665C46.5119 49.7921 47.2208 49.0832 48.0952 49.0832C48.9696 49.0832 49.6785 49.7921 49.6785 50.6665C49.6785 51.5409 48.9696 52.2498 48.0952 52.2498Z" fill="#FA902E"/>
<path d="M42.7836 44.6313C42.9939 44.9962 43.3402 45.2621 43.7461 45.3703C44.1528 45.4794 44.5857 45.4214 44.9499 45.2111C46.8857 44.0468 49.3056 44.0468 51.2414 45.2111C51.4827 45.3495 51.7556 45.4229 52.0331 45.4229C52.1715 45.4237 52.3091 45.4059 52.4421 45.3688C52.8487 45.2621 53.1959 44.9962 53.4046 44.6313L57.3738 37.7583C57.8114 37.0014 57.5524 36.0327 56.7963 35.5951C51.3992 32.5282 44.786 32.5282 39.3889 35.5951C38.632 36.0327 38.3738 37.0014 38.8106 37.7583L42.7836 44.6313ZM53.7958 37.6199L51.3922 41.7831C49.2677 40.9613 46.9136 40.9613 44.7898 41.7831L42.3955 37.6199C46.0322 36.0428 50.1591 36.0428 53.7958 37.6199Z" fill="#FA902E"/>
<path d="M44.948 56.1242C42.9782 55.014 41.7605 52.9274 41.762 50.6668C41.762 49.7924 41.0531 49.0835 40.1787 49.0835H32.262C31.3877 49.0835 30.6787 49.7924 30.6787 50.6668C30.6934 56.8819 34.0101 62.6215 39.387 65.7386C39.6283 65.877 39.9012 65.9505 40.1787 65.9505C40.3171 65.952 40.4555 65.9335 40.5885 65.8971C40.9943 65.7881 41.3399 65.5229 41.5502 65.1588L45.5194 58.2858C45.957 57.5313 45.7011 56.5641 44.948 56.1242V56.1242ZM39.6499 62.1267C36.4585 59.7687 34.3889 56.1923 33.9358 52.2502H38.7314C39.1265 54.4852 40.3055 56.5061 42.0566 57.9503L39.6499 62.1267Z" fill="#FA902E"/>
<path d="M54.4289 50.6668C54.4305 52.9274 53.2128 55.014 51.2429 56.1242C50.4876 56.5626 50.2286 57.529 50.6654 58.2858L54.6346 65.1588C54.8449 65.5229 55.1904 65.7881 55.5956 65.8971C55.7293 65.9335 55.8677 65.952 56.0061 65.9505C56.2836 65.9505 56.5565 65.877 56.7977 65.7386C62.1771 62.623 65.496 56.8834 65.5123 50.6668C65.5123 49.7924 64.8033 49.0835 63.9289 49.0835H56.0123C55.1379 49.0835 54.4289 49.7924 54.4289 50.6668V50.6668ZM62.2551 52.2502C61.8021 56.1923 59.7325 59.7687 56.5411 62.1267L54.1328 57.9503C55.8839 56.5061 57.0629 54.4852 57.458 52.2502H62.2551Z" fill="#FA902E"/>
</g>
<defs>
<clipPath id="clip0">
<rect width="95" height="95" fill="white"/>
</clipPath>
</defs>
</svg>
