<svg width="75" height="75" viewBox="0 0 75 75" fill="none" xmlns="http://www.w3.org/2000/svg">
<g clip-path="url(#clip0)">
<path d="M65.4951 11.2931L41.0139 0.722639C38.7805 -0.241604 36.2191 -0.241458 33.9861 0.722639L9.50495 11.2931C7.73646 12.0566 6.59376 13.7715 6.59376 15.6622V31.74C6.58717 42.0365 10.0852 52.1663 16.4435 60.2632C16.8041 60.5777 17.206 60.918 17.9864 60.4489C18.4637 60.0741 18.5468 59.3834 18.172 58.906C12.1165 51.1947 8.78525 41.5475 8.79155 31.7408V15.6622C8.79155 14.6493 9.41352 13.7264 10.376 13.3108L34.8572 2.74036C36.5366 2.01509 38.463 2.01479 40.1424 2.74036L64.6239 13.3108C65.5864 13.7264 66.2084 14.6493 66.2084 15.6622V21.8268C66.2084 22.4339 66.7004 22.9257 67.3073 22.9257C67.9141 22.9257 68.4061 22.4339 68.4061 21.8268V15.6622C68.4061 13.7715 67.2634 12.0566 65.4951 11.2931V11.2931Z" fill="#FA902E"/>
<path d="M67.3074 25.8911C66.7005 25.8911 66.2085 26.383 66.2085 26.99V31.7421C66.1549 50.0666 55.5114 65.2144 39.1567 72.419C38.1193 72.932 36.8808 72.9322 35.8437 72.419C30.6237 70.0324 25.5103 66.8243 21.4837 62.661C21.0568 62.2295 20.361 62.2257 19.9297 62.6522C19.4982 63.079 19.4944 63.7748 19.921 64.2062C24.0644 68.5043 29.4222 71.8933 34.8694 74.3888C35.6931 74.7962 36.5967 75 37.5003 75C38.4038 75 39.3074 74.7962 40.1312 74.3888C57.8121 66.6011 68.3591 50.0911 68.4064 31.741V26.9899C68.4063 26.383 67.9143 25.8911 67.3074 25.8911V25.8911Z" fill="#FA902E"/>
<path d="M21.4621 12.5146L13.1174 16.1177C12.7148 16.2916 12.4541 16.6881 12.4541 17.1266V31.7446C12.4494 39.1433 14.4797 46.3934 18.3254 52.711C22.5213 59.6887 28.952 65.2184 36.3625 68.5896C36.9309 68.8498 37.7303 68.9987 38.6364 68.5898C42.2616 66.9089 45.8936 64.6669 48.9209 61.9642C49.3761 61.5628 49.4196 60.8683 49.0183 60.4131C48.6168 59.958 47.9225 59.9141 47.4674 60.3158C44.6724 62.832 41.1224 65.0162 37.6619 66.6198C37.5602 66.6699 37.4389 66.6701 37.3372 66.6197C30.3122 63.4496 24.2074 58.2036 20.2028 51.5682C16.5669 45.5953 14.6475 38.7409 14.6519 31.7452V17.849L22.3333 14.5324C22.8905 14.2916 23.1471 13.645 22.9067 13.088C22.6661 12.5306 22.0195 12.2741 21.4621 12.5146V12.5146Z" fill="#FA902E"/>
<path d="M54.7967 51.568C53.6781 53.4054 52.3952 55.1585 50.9837 56.7785C50.585 57.2361 50.6327 57.9302 51.0903 58.3288C51.312 58.5576 52.1075 58.7876 52.6408 58.2222C54.134 56.5086 55.4909 54.6541 56.674 52.7107C60.5199 46.3931 62.55 39.1417 62.5453 31.7412V17.1264C62.5453 16.6879 62.2847 16.2914 61.8821 16.1175L38.6944 6.10556C37.9352 5.77443 37.0643 5.77428 36.3092 6.1038L26.3179 10.4178C25.7607 10.6585 25.5041 11.3051 25.7445 11.8622C25.9851 12.4195 26.6316 12.6759 27.1891 12.4355L37.1843 8.11976C37.3789 8.03478 37.6208 8.03463 37.8192 8.12152L60.3476 17.8488V31.7417C60.352 38.7394 58.4326 45.5951 54.7967 51.568V51.568Z" fill="#FA902E"/>
<path d="M22.7363 24.0624C22.6401 25.1492 22.9988 26.1861 23.7202 26.9077C24.1771 27.3644 24.7612 27.6804 25.4097 27.8215C25.736 27.8926 26.0694 28.0078 26.3998 28.1628C25.8156 29.1738 25.3699 30.2639 25.0799 31.3909C24.7501 31.2694 24.4456 31.1201 24.176 30.9471C23.6178 30.5883 22.9812 30.3985 22.3349 30.3985C20.2747 30.3985 18.5986 32.3047 18.5986 34.6476C18.5986 36.9904 20.2747 38.8966 22.3349 38.8966C22.9812 38.8966 23.6179 38.7069 24.1759 38.3482C24.4556 38.1684 24.7727 38.0149 25.1168 37.8911C25.4188 39.0164 25.8755 40.1016 26.4694 41.1054C26.1501 41.2524 25.8283 41.3623 25.5133 41.4308C24.865 41.5719 24.2808 41.888 23.8238 42.3447C23.1023 43.0663 22.7437 44.1032 22.8399 45.1899C22.9312 46.2192 23.4093 47.2143 24.1863 47.9914C25.8433 49.6479 28.3762 49.8106 29.8329 48.3539C30.2898 47.8969 30.6059 47.3126 30.7468 46.6644C30.8178 46.3379 30.9331 46.0047 31.0881 45.6742C32.0991 46.2584 33.1892 46.7041 34.3162 46.994C34.1946 47.324 34.0454 47.6285 33.8722 47.8982C33.5136 48.4566 33.3238 49.0931 33.3238 49.7392C33.3238 51.7994 35.2299 53.4755 37.5729 53.4755C39.9159 53.4755 41.8219 51.7994 41.8219 49.7392C41.8219 49.0931 41.6323 48.4564 41.2735 47.8982C41.0937 47.6186 40.9402 47.3016 40.8162 46.9573C41.9414 46.6553 43.0268 46.1986 44.0306 45.6049C44.1775 45.9243 44.2873 46.2459 44.3558 46.5606C44.4968 47.209 44.813 47.7933 45.27 48.2504C46.7267 49.707 49.2597 49.5445 50.9164 47.8877C51.6934 47.1105 52.1716 46.1157 52.2628 45.0864C52.359 43.9996 52.0003 42.9627 51.2789 42.2411C50.822 41.7844 50.2379 41.4684 49.5894 41.3273C49.2629 41.2562 48.9297 41.141 48.5992 40.986C49.1834 39.9752 49.6291 38.8848 49.919 37.7579C50.2488 37.8794 50.5533 38.0287 50.8229 38.2017C51.3812 38.5605 52.0178 38.7503 52.6641 38.7503C54.7243 38.7503 56.4003 36.8441 56.4003 34.5012C56.4003 32.1584 54.7243 30.2522 52.6641 30.2522C52.0178 30.2522 51.381 30.4419 50.8231 30.8006C50.5434 30.9804 50.2263 31.1339 49.8821 31.2577C49.5801 30.1324 49.1234 29.0472 48.5296 28.0434C48.8489 27.8964 49.1706 27.7865 49.4856 27.718C50.134 27.5769 50.7181 27.2608 51.1751 26.8041C51.8966 26.0825 52.2553 25.0456 52.159 23.9589C52.0677 22.9296 51.5896 21.9345 50.8127 21.1574C49.1557 19.5009 46.6228 19.3381 45.1661 20.7949C44.7091 21.2519 44.3931 21.8362 44.2521 22.4844C44.1812 22.8109 44.0659 23.1441 43.9109 23.4746C42.8999 22.8904 41.8098 22.4447 40.6828 22.1548C40.8044 21.8248 40.9535 21.5203 41.1267 21.2506C41.4854 20.6922 41.6751 20.0557 41.6751 19.4096C41.6751 17.3494 39.7691 15.6733 37.4261 15.6733C35.0831 15.6733 33.177 17.3494 33.177 19.4096C33.177 20.0557 33.3666 20.6924 33.7254 21.2506C33.9052 21.5302 34.0588 21.8472 34.1827 22.1915C33.0576 22.4935 31.9722 22.9502 30.9684 23.5439C30.8214 23.2245 30.7117 22.9029 30.6431 22.5882C30.5022 21.9398 30.186 21.3555 29.729 20.8984C28.2724 19.4421 25.7395 19.6043 24.0826 21.2611C23.3057 22.0383 22.8276 23.0331 22.7363 24.0624V24.0624ZM24.9256 24.2566C24.9708 23.7476 25.2299 23.2222 25.6368 22.8154C26.4231 22.0292 27.5854 21.8629 28.1751 22.4525C28.3359 22.6134 28.4437 22.816 28.4957 23.0554C28.6959 23.9754 29.1029 24.8756 29.7054 25.7309C29.9775 26.098 30.6191 26.3958 31.251 25.986C32.5673 25.0264 34.1105 24.3757 35.7134 24.1042C36.1578 24.0178 36.6985 23.5764 36.6132 22.8364C36.4353 21.7913 36.0859 20.8581 35.5747 20.0625C35.4422 19.8565 35.3751 19.6368 35.3751 19.4096C35.3751 18.5757 36.3144 17.8711 37.4264 17.8711C38.5383 17.8711 39.4776 18.5757 39.4776 19.4096C39.4776 19.6368 39.4105 19.8565 39.2781 20.0625C38.7714 20.8509 38.4236 21.7744 38.2442 22.8071C38.1768 23.2592 38.4199 23.9238 39.1569 24.0809C40.7594 24.3318 42.3101 24.9643 43.6414 25.9101C44.0165 26.1629 44.711 26.2336 45.174 25.65C45.7853 24.7883 46.1977 23.8805 46.3998 22.9515C46.4518 22.7123 46.5596 22.5095 46.7204 22.3489C47.3101 21.7592 48.4725 21.9255 49.2587 22.7114C49.6656 23.1184 49.9247 23.6437 49.9699 24.1528C49.9926 24.4096 49.9776 24.8937 49.6213 25.2498C49.4606 25.4106 49.2578 25.5183 49.0184 25.5704C48.0981 25.7706 47.1979 26.1777 46.3429 26.7801C45.9756 27.0522 45.678 27.6938 46.0878 28.3257C47.0476 29.6422 47.6982 31.1852 47.9694 32.788C48.0559 33.2322 48.4972 33.7735 49.2373 33.6879C50.2821 33.5102 51.2154 33.1607 52.0115 32.6492C52.2173 32.5169 52.437 32.4498 52.6642 32.4498C53.4981 32.4498 54.2027 33.3891 54.2027 34.5011C54.2027 35.613 53.4981 36.5523 52.6642 36.5523C52.437 36.5523 52.2173 36.4852 52.0112 36.3528C51.2226 35.8461 50.2991 35.4983 49.2666 35.3188C48.8144 35.2517 48.1498 35.4945 47.9929 36.2315C47.7421 37.8339 47.1095 39.3847 46.1637 40.716C45.9109 41.0914 45.8402 41.7856 46.4238 42.2487C47.2855 42.86 48.1935 43.2723 49.1221 43.4743C49.3615 43.5264 49.5645 43.6343 49.725 43.7949C50.0815 44.1513 50.0965 44.6352 50.0738 44.8919C50.0286 45.4009 49.7694 45.9263 49.3626 46.3331C48.5763 47.1193 47.414 47.2856 46.8243 46.696C46.6635 46.5351 46.5557 46.3325 46.5037 46.0931C46.3035 45.1731 45.8965 44.2729 45.294 43.4176C45.0219 43.0505 44.3803 42.7527 43.7484 43.1626C42.432 44.1221 40.8889 44.7728 39.286 45.0443C38.8416 45.1307 38.3009 45.5721 38.3862 46.3121C38.5641 47.3573 38.9135 48.2904 39.4247 49.086C39.5572 49.292 39.6243 49.5117 39.6243 49.7389C39.6243 50.5728 38.685 51.2774 37.573 51.2774C36.4611 51.2774 35.5218 50.5728 35.5218 49.7389C35.5218 49.5117 35.5889 49.292 35.7213 49.086C36.228 48.2976 36.5758 47.3741 36.7552 46.3414C36.8226 45.8893 36.5795 45.2247 35.8425 45.0676C34.24 44.8168 32.6892 44.1842 31.358 43.2385C31.098 43.0156 30.2742 42.8905 29.8254 43.4985C29.2141 44.3602 28.8017 45.268 28.5996 46.197C28.5476 46.4362 28.4397 46.639 28.279 46.7996C27.6894 47.3893 26.5269 47.223 25.7407 46.4371C25.3338 46.0301 25.0746 45.5048 25.0295 44.9957C25.0068 44.739 25.0217 44.2549 25.3781 43.8987C25.5388 43.7379 25.7416 43.6302 25.981 43.5781C26.9013 43.3779 27.8015 42.9708 28.6564 42.3684C29.0238 42.0963 29.3214 41.4547 28.9115 40.8228C27.9518 39.5063 27.3011 37.9633 27.0299 36.3605C26.9433 35.9161 26.5025 35.3756 25.7621 35.4606C24.7173 35.6383 23.784 35.9878 22.9879 36.4993C22.7821 36.6316 22.5624 36.6987 22.3352 36.6987C21.5013 36.6987 20.7967 35.7594 20.7967 34.6474C20.7967 33.5355 21.5013 32.5962 22.3352 32.5962C22.5624 32.5962 22.7821 32.6633 22.9882 32.7957C23.7768 33.3024 24.7003 33.6502 25.7328 33.8297C26.1851 33.8971 26.8494 33.6539 27.0065 32.917C27.2573 31.3146 27.8899 29.7638 28.8356 28.4324C29.0887 28.0571 29.159 27.3629 28.5756 26.8998C27.7137 26.2885 26.8059 25.8762 25.8773 25.6742C25.6379 25.6221 25.4349 25.5142 25.2743 25.3536C24.9179 24.9972 24.9028 24.5133 24.9256 24.2566V24.2566Z" fill="#FA902E"/>
<path d="M34.8623 34.208C37.0841 34.208 38.8916 32.4004 38.8916 30.1787C38.8916 27.957 37.0841 26.1494 34.8623 26.1494C32.6405 26.1494 30.833 27.957 30.833 30.1787C30.833 32.4004 32.6405 34.208 34.8623 34.208ZM34.8623 28.3472C35.8722 28.3472 36.6938 29.1687 36.6938 30.1787C36.6938 31.1886 35.8722 32.0102 34.8623 32.0102C33.8523 32.0102 33.0308 31.1886 33.0308 30.1787C33.0308 29.1687 33.8523 28.3472 34.8623 28.3472Z" fill="#FA902E"/>
<path d="M42.5546 39.3367C44.5744 39.3367 46.2176 37.6935 46.2176 35.6737C46.2176 33.654 44.5744 32.0107 42.5546 32.0107C40.5348 32.0107 38.8916 33.654 38.8916 35.6737C38.8916 37.6935 40.5348 39.3367 42.5546 39.3367ZM42.5546 34.2085C43.3625 34.2085 44.0198 34.8658 44.0198 35.6737C44.0198 36.4816 43.3625 37.1389 42.5546 37.1389C41.7467 37.1389 41.0894 36.4816 41.0894 35.6737C41.0894 34.8658 41.7467 34.2085 42.5546 34.2085Z" fill="#FA902E"/>
<path d="M34.9363 35.7466C33.1185 35.7466 31.6396 37.2255 31.6396 39.0433C31.6396 40.861 33.1185 42.3399 34.9363 42.3399C36.7542 42.3399 38.233 40.861 38.233 39.0433C38.233 37.2255 36.7542 35.7466 34.9363 35.7466ZM34.9363 40.1422C34.3303 40.1422 33.8374 39.6493 33.8374 39.0433C33.8374 38.4373 34.3303 37.9444 34.9363 37.9444C35.5423 37.9444 36.0352 38.4373 36.0352 39.0433C36.0352 39.6493 35.5423 40.1422 34.9363 40.1422Z" fill="#FA902E"/>
</g>
<defs>
<clipPath id="clip0">
<rect width="75" height="75" fill="white"/>
</clipPath>
</defs>
</svg>
