<?xml version="1.0"?>
<svg xmlns="http://www.w3.org/2000/svg" xmlns:xlink="http://www.w3.org/1999/xlink" xmlns:svgjs="http://svgjs.com/svgjs" version="1.1" width="512" height="512" x="0" y="0" viewBox="0 0 511.878 511.878" style="enable-background:new 0 0 512 512" xml:space="preserve" class=""><g><g xmlns="http://www.w3.org/2000/svg"><path d="m447.007 77.079-167.085-72.144c-15.243-6.581-32.725-6.58-47.965 0l-167.085 72.144c-12.07 5.211-19.869 16.915-19.869 29.819v109.732c-.045 70.274 23.829 139.41 67.225 194.672 2.461 2.146 5.204 4.469 10.53 1.267 3.258-2.558 3.825-7.272 1.267-10.53-41.329-52.63-64.065-118.473-64.022-185.404v-109.737c0-6.913 4.245-13.212 10.814-16.048l167.085-72.144c11.462-4.95 24.61-4.952 36.072 0l167.087 72.144c6.569 2.836 10.814 9.135 10.814 16.048v42.074c0 4.143 3.358 7.5 7.5 7.5s7.5-3.357 7.5-7.5v-42.074c0-12.904-7.799-24.608-19.868-29.819z" fill="#fa902e" data-original="#000000" style="" class=""/><path d="m459.375 176.707c-4.142 0-7.5 3.357-7.5 7.5v32.433c-.366 125.066-73.008 228.45-184.63 277.622-7.08 3.501-15.533 3.502-22.611 0-35.627-16.289-70.526-38.184-98.008-66.599-2.913-2.945-7.662-2.971-10.606-.06-2.945 2.913-2.971 7.662-.059 10.606 28.279 29.335 64.846 52.465 102.023 69.497 5.622 2.78 11.789 4.171 17.956 4.171s12.334-1.391 17.956-4.171c120.673-53.152 192.657-165.833 192.98-291.073v-32.427c-.001-4.142-3.359-7.499-7.501-7.499z" fill="#fa902e" data-original="#000000" style="" class=""/><path d="m146.482 85.411-56.953 24.591c-2.748 1.187-4.527 3.893-4.527 6.886v99.768c-.032 50.497 13.825 99.979 40.072 143.097 28.637 47.623 72.527 85.363 123.104 108.372 3.879 1.776 9.335 2.792 15.519.001 24.742-11.472 49.531-26.774 70.192-45.22 3.107-2.739 3.404-7.479.665-10.586-2.74-3.106-7.479-3.406-10.585-.664-19.076 17.173-43.305 32.08-66.923 43.025-.694.342-1.522.343-2.216-.001-47.946-21.636-89.611-57.44-116.943-102.727-24.815-40.765-37.915-87.547-37.885-135.293v-94.842l52.426-22.636c3.803-1.643 5.554-6.056 3.913-9.858-1.642-3.804-6.055-5.555-9.859-3.913z" fill="#fa902e" data-original="#000000" style="" class=""/><path d="m373.991 351.953c-7.634 12.54-16.39 24.505-26.024 35.562-2.721 3.123-2.395 7.86.728 10.581 1.513 1.561 6.942 3.131 10.582-.728 10.191-11.695 19.452-24.352 27.527-37.616 26.248-43.118 40.104-92.609 40.072-143.118v-99.746c0-2.993-1.779-5.699-4.527-6.886l-158.257-68.332c-5.181-2.26-11.125-2.261-16.279-.012l-68.191 29.443c-3.803 1.643-5.554 6.056-3.913 9.858 1.642 3.804 6.054 5.554 9.859 3.913l68.218-29.455c1.328-.58 2.979-.581 4.333.012l153.757 66.389v94.82c.03 47.759-13.07 94.55-37.885 135.315z" fill="#fa902e" data-original="#000000" style="" class=""/><path d="m155.178 164.228c-.657 7.417 1.791 14.494 6.715 19.419 3.118 3.117 7.105 5.274 11.531 6.237 2.227.485 4.502 1.271 6.757 2.329-3.987 6.9-7.029 14.34-9.008 22.032-2.251-.829-4.329-1.848-6.169-3.029-3.81-2.449-8.155-3.744-12.566-3.744-14.061 0-25.5 13.01-25.5 29s11.439 29 25.5 29c4.411 0 8.757-1.295 12.565-3.743 1.909-1.227 4.073-2.275 6.422-3.12 2.061 7.68 5.178 15.087 9.231 21.938-2.179 1.003-4.375 1.753-6.525 2.221-4.425.963-8.412 3.12-11.531 6.237-4.924 4.925-7.372 12.002-6.715 19.419.623 7.025 3.886 13.816 9.189 19.12 11.309 11.306 28.596 12.416 38.538 2.474 3.119-3.119 5.276-7.107 6.238-11.531.484-2.228 1.271-4.502 2.329-6.758 6.9 3.987 14.34 7.029 22.032 9.008-.83 2.252-1.848 4.33-3.03 6.171-2.448 3.811-3.743 8.155-3.743 12.565 0 14.061 13.009 25.5 29 25.5s29-11.439 29-25.5c0-4.41-1.294-8.755-3.743-12.565-1.227-1.908-2.275-4.072-3.121-6.422 7.679-2.061 15.087-5.178 21.938-9.23 1.003 2.18 1.752 4.375 2.22 6.523.962 4.425 3.12 8.413 6.239 11.533 9.942 9.941 27.23 8.832 38.537-2.476 5.303-5.304 8.567-12.094 9.189-19.119.657-7.417-1.791-14.494-6.715-19.419-3.118-3.117-7.105-5.274-11.531-6.237-2.228-.485-4.502-1.271-6.758-2.329 3.987-6.899 7.029-14.341 9.008-22.032 2.251.829 4.329 1.848 6.169 3.029 3.81 2.449 8.155 3.744 12.566 3.744 14.061 0 25.5-13.01 25.5-29s-11.439-29-25.5-29c-4.411 0-8.757 1.295-12.565 3.743-1.909 1.227-4.073 2.275-6.422 3.12-2.061-7.68-5.178-15.087-9.231-21.938 2.179-1.003 4.375-1.753 6.525-2.221 4.425-.963 8.412-3.12 11.531-6.237 4.924-4.925 7.372-12.002 6.715-19.419-.623-7.025-3.886-13.816-9.189-19.12-11.309-11.306-28.596-12.417-38.538-2.474-3.119 3.119-5.276 7.107-6.238 11.531-.484 2.228-1.271 4.502-2.329 6.758-6.9-3.987-14.34-7.029-22.032-9.008.83-2.252 1.848-4.33 3.03-6.171 2.448-3.811 3.743-8.155 3.743-12.565 0-14.061-13.009-25.5-29-25.5s-29 11.439-29 25.5c0 4.41 1.294 8.755 3.743 12.565 1.227 1.908 2.275 4.072 3.121 6.422-7.679 2.061-15.087 5.178-21.938 9.23-1.003-2.18-1.752-4.375-2.22-6.523-.962-4.425-3.12-8.413-6.239-11.533-9.941-9.939-27.228-8.832-38.537 2.476-5.302 5.304-8.565 12.094-9.188 19.119zm14.942 1.325c.308-3.474 2.077-7.06 4.854-9.836 5.366-5.366 13.299-6.501 17.324-2.477 1.097 1.098 1.833 2.481 2.188 4.115 1.366 6.279 4.144 12.423 8.256 18.26 1.857 2.506 6.236 4.538 10.549 1.741 8.984-6.549 19.516-10.99 30.456-12.843 3.033-.59 6.723-3.602 6.141-8.653-1.214-7.133-3.599-13.502-7.088-18.932-.904-1.406-1.362-2.905-1.362-4.456 0-5.691 6.411-10.5 14-10.5s14 4.809 14 10.5c0 1.551-.458 3.05-1.362 4.456-3.458 5.381-5.832 11.684-7.056 18.732-.46 3.086 1.199 7.622 6.229 8.694 10.937 1.712 21.521 6.029 30.607 12.484 2.56 1.726 7.3 2.208 10.46-1.775 4.172-5.881 6.987-12.077 8.366-18.417.355-1.633 1.091-3.017 2.188-4.113 4.025-4.025 11.958-2.89 17.324 2.474 2.777 2.778 4.546 6.363 4.854 9.838.155 1.752.053 5.056-2.379 7.487-1.097 1.097-2.481 1.832-4.115 2.188-6.281 1.366-12.425 4.145-18.26 8.256-2.507 1.857-4.538 6.236-1.741 10.549 6.55 8.985 10.991 19.516 12.842 30.455.59 3.032 3.602 6.726 8.653 6.142 7.131-1.213 13.501-3.598 18.934-7.089 1.405-.903 2.904-1.361 4.455-1.361 5.691 0 10.5 6.411 10.5 14s-4.809 14-10.5 14c-1.551 0-3.05-.458-4.457-1.362-5.382-3.458-11.685-5.832-18.732-7.057-3.086-.458-7.622 1.199-8.693 6.229-1.712 10.937-6.029 21.521-12.484 30.607-1.726 2.562-2.208 7.3 1.775 10.461 5.881 4.172 12.078 6.986 18.416 8.365 1.634.355 3.019 1.092 4.115 2.188 2.433 2.432 2.535 5.735 2.38 7.487-.308 3.474-2.077 7.06-4.854 9.836-5.366 5.366-13.299 6.501-17.324 2.477-1.097-1.098-1.833-2.481-2.188-4.115-1.366-6.279-4.144-12.423-8.256-18.26-1.857-2.506-6.236-4.538-10.549-1.741-8.984 6.549-19.516 10.99-30.456 12.843-3.033.59-6.723 3.602-6.141 8.653 1.214 7.133 3.599 13.502 7.088 18.932.904 1.406 1.362 2.905 1.362 4.456 0 5.691-6.411 10.5-14 10.5s-14-4.809-14-10.5c0-1.551.458-3.05 1.362-4.456 3.458-5.381 5.832-11.684 7.056-18.732.46-3.086-1.199-7.622-6.229-8.694-10.937-1.712-21.521-6.029-30.607-12.484-1.774-1.521-7.397-2.375-10.46 1.775-4.172 5.881-6.987 12.077-8.366 18.417-.355 1.633-1.091 3.017-2.188 4.113-4.024 4.025-11.958 2.89-17.324-2.474-2.777-2.778-4.546-6.363-4.854-9.838-.155-1.752-.053-5.056 2.379-7.487 1.097-1.097 2.481-1.832 4.115-2.188 6.281-1.366 12.425-4.145 18.26-8.256 2.507-1.857 4.538-6.236 1.741-10.549-6.55-8.985-10.991-19.516-12.842-30.455-.591-3.033-3.6-6.722-8.653-6.142-7.131 1.213-13.501 3.598-18.934 7.089-1.405.903-2.904 1.361-4.455 1.361-5.691 0-10.5-6.411-10.5-14s4.809-14 10.5-14c1.551 0 3.05.458 4.457 1.362 5.382 3.458 11.685 5.832 18.732 7.057 3.087.46 7.621-1.2 8.693-6.229 1.712-10.937 6.029-21.521 12.484-30.608 1.727-2.561 2.207-7.299-1.775-10.46-5.882-4.172-12.078-6.986-18.416-8.365-1.634-.355-3.019-1.092-4.115-2.188-2.433-2.432-2.536-5.735-2.38-7.487z" fill="#fa902e" data-original="#000000" style="" class=""/><path d="m237.938 233.473c15.164 0 27.5-12.337 27.5-27.5s-12.336-27.5-27.5-27.5-27.5 12.337-27.5 27.5 12.336 27.5 27.5 27.5zm0-40c6.893 0 12.5 5.607 12.5 12.5s-5.607 12.5-12.5 12.5-12.5-5.607-12.5-12.5 5.607-12.5 12.5-12.5z" fill="#fa902e" data-original="#000000" style="" class=""/><path d="m290.438 268.473c13.785 0 25-11.215 25-25s-11.215-25-25-25-25 11.215-25 25 11.215 25 25 25zm0-35c5.514 0 10 4.486 10 10s-4.486 10-10 10-10-4.486-10-10 4.486-10 10-10z" fill="#fa902e" data-original="#000000" style="" class=""/><path d="m238.438 243.973c-12.407 0-22.5 10.094-22.5 22.5s10.093 22.5 22.5 22.5 22.5-10.094 22.5-22.5-10.093-22.5-22.5-22.5zm0 30c-4.136 0-7.5-3.364-7.5-7.5s3.364-7.5 7.5-7.5 7.5 3.364 7.5 7.5-3.364 7.5-7.5 7.5z" fill="#fa902e" data-original="#000000" style="" class=""/></g></g></svg>
