<svg width="95" height="95" viewBox="0 0 95 95" fill="none" xmlns="http://www.w3.org/2000/svg">
<g clip-path="url(#clip0)">
<path d="M27.5538 38.695H30.4621C31.23 38.695 31.8525 38.0725 31.8525 37.3045C31.8525 36.5365 31.23 35.914 30.4621 35.914H27.5538C18.8323 35.914 11.737 28.8187 11.737 20.0972C11.737 11.3758 18.8323 4.28049 27.5538 4.28049H93.6094C94.3774 4.28049 94.9999 3.65798 94.9999 2.89C94.9999 2.12202 94.3774 1.49951 93.6094 1.49951H27.5538C17.299 1.49951 8.95605 9.84244 8.95605 20.0972C8.95605 30.3521 17.2988 38.695 27.5538 38.695V38.695Z" fill="#FA902E"/>
<path d="M76.4023 35.9139H76.0913C75.3233 35.9139 74.7008 36.5364 74.7008 37.3044C74.7008 38.0724 75.3233 38.6949 76.0913 38.6949H76.4023C85.1237 38.6949 92.219 45.7902 92.219 54.5117V56.6334C92.219 65.3548 85.1237 72.4501 76.4023 72.4501H60.2294C60.2114 69.6551 57.9327 67.3864 55.1334 67.3864H52.509C51.4204 65.016 49.7403 62.9264 47.6039 61.3585L70.0933 38.8691C70.7427 38.2197 70.9353 37.2519 70.5837 36.4034C70.2323 35.5549 69.4118 35.0066 68.4933 35.0066H58.0944L70.221 9.67072C70.6631 8.74688 70.3878 7.6889 69.5513 7.09774C68.7151 6.50696 67.6259 6.60066 66.9026 7.32578L56.9503 17.3065C56.4081 17.8504 56.4092 18.7308 56.9531 19.273C57.4967 19.8149 58.3771 19.8138 58.9195 19.2702L65.8879 12.2817L55.2917 34.4204C54.9406 35.1534 54.9898 36.0017 55.423 36.6893C55.8563 37.377 56.6001 37.7876 57.4128 37.7876H67.2422L37.8556 67.1741L48.3962 44.9116C48.7432 44.1789 48.6914 43.3325 48.2578 42.6474C47.8242 41.9624 47.0814 41.5534 46.2708 41.5534H36.7001L54.5634 23.6391C55.1056 23.0952 55.1045 22.2148 54.5606 21.6726C54.0168 21.1305 53.1365 21.1316 52.5942 21.6754L33.8489 40.4743C33.201 41.1243 33.0095 42.0917 33.3615 42.9393C33.7133 43.7869 34.5336 44.3344 35.4513 44.3344H45.5926L38.9333 58.3992L30.5915 58.3898V57.2108C30.5915 55.5401 29.2322 54.1806 27.5613 54.1806H22.9876C21.3167 54.1806 19.9574 55.54 19.9574 57.2108V63.2092H4.18074C1.87551 63.2093 0 65.0847 0 67.3901C0 69.6953 1.87551 71.5706 4.18074 71.5706H19.9572V76.1106H4.18074C1.87551 76.1106 0 77.9859 0 80.2912C0 82.5964 1.87551 84.4717 4.18074 84.4717H19.9572V90.4701C19.9572 92.1409 21.3166 93.5002 22.9874 93.5002H27.5611C29.232 93.5002 30.5913 92.1409 30.5913 90.4701V89.2911H38.5149C44.7229 89.2911 50.0811 85.5976 52.5176 80.2945H55.1334C57.9327 80.2945 60.2114 78.026 60.2294 75.2307H76.4023C86.6571 75.2307 95 66.8878 95 56.633V54.5117C95 44.2568 86.6571 35.9139 76.4023 35.9139V35.9139ZM4.18074 68.7897C3.40887 68.7897 2.78098 68.1618 2.78098 67.3901C2.78098 66.6182 3.40887 65.9903 4.18074 65.9903H19.9572V68.7897H4.18074ZM4.18074 81.6909C3.40887 81.6909 2.78098 81.063 2.78098 80.2913C2.78098 79.5195 3.40887 78.8916 4.18074 78.8916H19.9572V81.6909H4.18074ZM27.8103 90.4703C27.8103 90.6078 27.6984 90.7195 27.5611 90.7195H22.9874C22.8499 90.7195 22.7382 90.6076 22.7382 90.4703V57.211C22.7382 57.0737 22.8501 56.9618 22.9874 56.9618H27.5611C27.6986 56.9618 27.8103 57.0737 27.8103 57.211V90.4703ZM38.5149 86.5103H30.5913V86.5016V61.1709H37.6209L33.5639 69.7393C33.127 70.6624 33.4047 71.7178 34.2397 72.306C34.893 72.7561 36.0306 72.9012 36.8839 72.0785L45.6093 63.3531C49.0365 65.6909 51.138 69.6254 51.138 73.7941V73.887C51.138 80.8474 45.4753 86.5103 38.5149 86.5103ZM57.4494 75.1979C57.4494 76.475 56.4105 77.5139 55.1334 77.5139H53.4839C53.7659 76.35 53.9192 75.1365 53.9192 73.8872V73.7942C53.9192 72.5605 53.7667 71.3439 53.4787 70.1675H55.1336C56.4107 70.1675 57.4496 71.2066 57.4496 72.4835V75.1979H57.4494Z" fill="#FA902E"/>
</g>
<defs>
<clipPath id="clip0">
<rect width="95" height="95" fill="white"/>
</clipPath>
</defs>
</svg>
