<?xml version="1.0"?>
<svg xmlns="http://www.w3.org/2000/svg" xmlns:xlink="http://www.w3.org/1999/xlink" xmlns:svgjs="http://svgjs.com/svgjs" version="1.1" width="512" height="512" x="0" y="0" viewBox="0 0 512 512" style="enable-background:new 0 0 512 512" xml:space="preserve" class=""><g><g xmlns="http://www.w3.org/2000/svg"><path d="m148.501 208.546h15.674c4.139 0 7.494-3.355 7.494-7.494s-3.355-7.494-7.494-7.494h-15.674c-47.004 0-85.244-38.24-85.244-85.244s38.24-85.244 85.244-85.244h356.005c4.139 0 7.494-3.355 7.494-7.494s-3.355-7.494-7.494-7.494h-356.005c-55.268 0-100.232 44.964-100.232 100.232s44.963 100.232 100.232 100.232z" fill="#fa902e" data-original="#000000" style="" class=""/><path d="m411.768 193.558h-1.676c-4.139 0-7.494 3.355-7.494 7.494s3.355 7.494 7.494 7.494h1.676c47.004 0 85.244 38.24 85.244 85.244v11.435c0 47.004-38.24 85.244-85.244 85.244h-87.163c-.097-15.064-12.378-27.291-27.465-27.291h-14.144c-5.867-12.775-14.922-24.037-26.436-32.487l121.206-121.206c3.5-3.5 4.538-8.716 2.643-13.289-1.894-4.573-6.316-7.528-11.266-7.528h-56.045l65.356-136.547c2.383-4.979.899-10.681-3.609-13.867-4.507-3.184-10.377-2.679-14.275 1.229l-53.638 53.791c-2.922 2.931-2.916 7.676.015 10.598 2.93 2.921 7.675 2.915 10.598-.015l37.556-37.664-57.108 119.316c-1.892 3.95-1.627 8.522.708 12.228s6.344 5.919 10.724 5.919h52.975l-158.378 158.378 56.808-119.983c1.87-3.949 1.591-8.511-.746-12.203s-6.34-5.896-10.709-5.896h-51.581l96.274-96.549c2.922-2.931 2.916-7.676-.015-10.598s-7.675-2.916-10.598.015l-101.027 101.316c-3.492 3.503-4.524 8.717-2.627 13.285 1.896 4.568 6.317 7.519 11.263 7.519h54.656l-35.89 75.802-44.958-.051v-6.354c0-9.004-7.326-16.331-16.331-16.331h-24.65c-9.005 0-16.331 7.326-16.331 16.331v32.328h-85.028c-12.424.001-22.532 10.108-22.532 22.533 0 12.424 10.108 22.531 22.532 22.531h85.027v24.468h-85.027c-12.424 0-22.532 10.107-22.532 22.531s10.108 22.531 22.532 22.531h85.027v32.328c0 9.005 7.326 16.331 16.331 16.331h24.65c9.005 0 16.331-7.326 16.331-16.331v-6.354h42.704c33.458 0 62.336-19.906 75.467-48.487h14.098c15.087 0 27.368-12.226 27.465-27.291h87.163c55.268 0 100.232-44.964 100.232-100.232v-11.433c0-55.268-44.964-100.232-100.232-100.232zm-389.236 177.183c-4.16 0-7.544-3.384-7.544-7.543 0-4.16 3.384-7.544 7.544-7.544h85.027v15.087zm0 69.531c-4.16 0-7.544-3.384-7.544-7.543 0-4.16 3.384-7.544 7.544-7.544h85.027v15.087zm127.351 47.316c0 .741-.603 1.343-1.343 1.343h-24.65c-.741 0-1.343-.603-1.343-1.343v-179.25c0-.74.603-1.343 1.343-1.343h24.65c.741 0 1.343.603 1.343 1.343zm57.692-21.342h-42.704v-.047-136.519h37.886l-21.865 46.179c-2.355 4.975-.858 10.663 3.642 13.833 3.521 2.426 9.652 3.208 14.251-1.226l47.025-47.025c18.471 12.599 29.797 33.804 29.797 56.271v.501c0 37.513-30.519 68.033-68.032 68.033zm102.047-60.968c0 6.883-5.599 12.482-12.482 12.482h-8.89c1.52-6.273 2.346-12.813 2.346-19.546v-.501c0-6.649-.822-13.206-2.374-19.546h8.919c6.883 0 12.482 5.6 12.482 12.482v14.629z" fill="#fa902e" data-original="#000000" style="" class=""/></g></g></svg>
