<svg width="75" height="75" viewBox="0 0 75 75" fill="none" xmlns="http://www.w3.org/2000/svg">
<path d="M37.5 75C47.5078 75 64.4531 73.6406 64.4531 68.5547C64.4531 68.5547 64.4531 68.4961 64.4531 68.4609C64.4531 68.4258 64.4531 68.3789 64.4531 68.332C64.4549 67.9656 64.3606 67.605 64.1797 67.2863C63.9987 66.9677 63.7375 66.7019 63.4219 66.5156C63.0233 66.1651 62.5824 65.8659 62.1094 65.625V59.7656C62.1094 59.4548 61.9859 59.1568 61.7661 58.937C61.5464 58.7172 61.2483 58.5938 60.9375 58.5938C60.6267 58.5938 60.3286 58.7172 60.1089 58.937C59.8891 59.1568 59.7656 59.4548 59.7656 59.7656V65.625C59.7697 65.7491 59.7934 65.8717 59.8359 65.9883C59.8044 66.1429 59.8044 66.3024 59.8359 66.457C59.814 66.6987 59.8675 66.9412 59.9893 67.1511C60.111 67.361 60.2949 67.528 60.5156 67.6289L60.8672 67.7813C61.2773 67.9688 61.7578 68.1797 62.0391 68.332L62.1211 68.4258C61.3359 69.8906 52.6758 72.4102 37.5117 72.4102C22.3477 72.4102 13.7344 69.8906 12.9609 68.4375L13.0547 68.3203C13.3242 68.1562 13.793 67.957 14.2266 67.7813L14.5781 67.6289C14.7966 67.5262 14.9781 67.3585 15.0976 67.1487C15.2172 66.9389 15.269 66.6974 15.2461 66.457C15.2761 66.3062 15.2761 66.1509 15.2461 66C15.2624 65.8752 15.2584 65.7486 15.2344 65.625V41.9883C20.9883 43.9219 30.7969 44.5312 37.5 44.5312C39.4922 44.5312 41.4844 44.5313 43.3594 44.3906C43.6702 44.3766 43.9627 44.2398 44.1726 44.0101C44.3825 43.7804 44.4925 43.4768 44.4785 43.166C44.4645 42.8552 44.3277 42.5627 44.098 42.3528C43.8683 42.1429 43.5647 42.0329 43.2539 42.0469C41.3555 42.1406 39.4102 42.1875 37.3945 42.1875C25.7461 42.1875 17.9297 40.6875 14.6016 39.3281C14.4809 39.2452 14.3458 39.1855 14.2031 39.1523C13.6789 38.9595 13.2226 38.6173 12.8906 38.168C13.3079 37.9148 13.7426 37.6916 14.1914 37.5L14.5195 37.3594C14.5647 37.3313 14.6078 37.2999 14.6484 37.2656C14.733 37.2207 14.8117 37.1656 14.8828 37.1016C14.9691 36.9794 15.0512 36.8544 15.1289 36.7266C15.1402 36.6332 15.1402 36.5387 15.1289 36.4453C15.1668 36.4088 15.2021 36.3697 15.2344 36.3281V36.3281V10.3477C20.9883 12.2812 30.7969 12.8906 37.5 12.8906C44.2031 12.8906 54.0117 12.2812 59.7656 10.3477V36.3281C59.7621 36.3788 59.7621 36.4297 59.7656 36.4805C59.7543 36.5739 59.7543 36.6683 59.7656 36.7617C59.8434 36.8895 59.9254 37.0146 60.0117 37.1367C60.0828 37.2008 60.1616 37.2559 60.2461 37.3008C60.2867 37.3351 60.3298 37.3664 60.375 37.3945V37.3945L60.7031 37.5352C61.1378 37.7105 61.5606 37.9141 61.9688 38.1445C61.539 38.6133 60.9993 38.9677 60.3984 39.1758V39.1758C58.6523 39.9492 55.2539 40.9219 49.043 41.5195C48.7322 41.5351 48.4403 41.6734 48.2315 41.9042C48.0227 42.135 47.9141 42.4392 47.9297 42.75C47.9452 43.0608 48.0836 43.3527 48.3144 43.5615C48.5451 43.7703 48.8494 43.8788 49.1602 43.8633H49.2773C52.8286 43.5937 56.343 42.9615 59.7656 41.9766V55.0781C59.7656 55.3889 59.8891 55.687 60.1089 55.9068C60.3286 56.1265 60.6267 56.25 60.9375 56.25C61.2483 56.25 61.5464 56.1265 61.7661 55.9068C61.9859 55.687 62.1094 55.3889 62.1094 55.0781V41.0156C63.5508 40.2305 64.4531 39.2813 64.4531 38.1094C64.4531 36.75 63.3984 36.1641 62.1094 35.5898V9.375C63.5742 8.57812 64.4531 7.61719 64.4531 6.45703C64.4531 1.35938 47.5078 0 37.5 0C34.6641 0 31.875 0.09375 29.2148 0.269531C28.904 0.291287 28.6146 0.435617 28.4102 0.67077C28.2058 0.905923 28.1032 1.21264 28.125 1.52344C28.1468 1.83424 28.2911 2.12367 28.5262 2.32805C28.7614 2.53244 29.0681 2.63504 29.3789 2.61328C31.9805 2.4375 34.7227 2.34375 37.5 2.34375C53.0508 2.34375 61.793 5.01562 62.1094 6.43359C62.0391 6.75 61.5352 7.125 60.6562 7.52344C60.5226 7.5557 60.3957 7.61124 60.2812 7.6875C56.9531 9.04687 49.1367 10.5469 37.5 10.5469C25.8633 10.5469 18.0937 9.05859 14.7422 7.71094C14.6094 7.61403 14.4576 7.54615 14.2969 7.51172C13.4531 7.125 12.9609 6.76172 12.8906 6.44531C12.8203 6.12891 15.0586 4.3125 23.5898 3.17578C23.7437 3.15578 23.8922 3.10565 24.0267 3.02828C24.1612 2.9509 24.2792 2.84779 24.3739 2.72482C24.4685 2.60186 24.5381 2.46145 24.5785 2.31162C24.6189 2.16178 24.6294 2.00546 24.6094 1.85156C24.5894 1.69767 24.5392 1.54922 24.4619 1.4147C24.3845 1.28018 24.2814 1.16221 24.1584 1.06754C24.0355 0.97287 23.895 0.903345 23.7452 0.862936C23.5954 0.822526 23.4391 0.812025 23.2852 0.832031C14.8359 1.99219 10.5469 3.86719 10.5469 6.44531C10.5469 7.61719 11.4258 8.55469 12.8906 9.36328V35.5664C11.6016 36.1406 10.5469 36.7383 10.5469 38.0859C10.5469 39.2578 11.4258 40.1953 12.8906 41.0039V65.625C12.4169 65.8694 11.976 66.1726 11.5781 66.5273C11.2643 66.7126 11.0041 66.9765 10.8233 67.293C10.6424 67.6094 10.5472 67.9676 10.5469 68.332C10.5469 68.332 10.5469 68.4141 10.5469 68.4609C10.5469 68.5078 10.5469 68.5195 10.5469 68.5547C10.5469 73.6406 27.4922 75 37.5 75Z" fill="#FA902E"/>
<path d="M36.5039 18.1405C35.8828 19.16 30.4688 28.1249 30.4688 31.6405C30.4688 33.5053 31.2095 35.2937 32.5282 36.6123C33.8468 37.931 35.6352 38.6717 37.5 38.6717C39.3648 38.6717 41.1532 37.931 42.4718 36.6123C43.7905 35.2937 44.5312 33.5053 44.5312 31.6405C44.5312 28.1249 39.1172 19.16 38.4961 18.1405C38.391 17.9709 38.2443 17.831 38.07 17.7339C37.8957 17.6369 37.6995 17.5859 37.5 17.5859C37.3005 17.5859 37.1043 17.6369 36.93 17.7339C36.7557 17.831 36.609 17.9709 36.5039 18.1405V18.1405ZM42.1875 31.6405C42.1875 32.8837 41.6936 34.076 40.8146 34.9551C39.9355 35.8341 38.7432 36.328 37.5 36.328C36.2568 36.328 35.0645 35.8341 34.1854 34.9551C33.3064 34.076 32.8125 32.8837 32.8125 31.6405C32.8125 29.8241 35.3789 24.7499 37.5 21.0936C39.6211 24.7499 42.1875 29.8241 42.1875 31.6405Z" fill="#FA902E"/>
<path d="M35.5429 31.9686C35.3673 32.225 35.3007 32.5407 35.3579 32.8462C35.415 33.1516 35.5911 33.4219 35.8475 33.5975C36.3731 33.965 36.9992 34.1614 37.6405 34.16C38.3067 34.1578 38.958 33.9624 39.5155 33.5975C39.7691 33.4259 39.9455 33.1617 40.0068 32.8617C40.0682 32.5616 40.0096 32.2495 39.8436 31.9921C39.7603 31.8597 39.6514 31.7454 39.5232 31.6558C39.3951 31.5663 39.2503 31.5032 39.0974 31.4705C38.9445 31.4377 38.7866 31.4359 38.633 31.4651C38.4794 31.4943 38.3332 31.5539 38.203 31.6405C38.0494 31.7399 37.8703 31.7928 37.6874 31.7928C37.5044 31.7928 37.3254 31.7399 37.1718 31.6405C37.0434 31.5547 36.8993 31.4951 36.7478 31.4651C36.5964 31.4352 36.4405 31.4355 36.2891 31.4659C36.1377 31.4964 35.9939 31.5565 35.8658 31.6428C35.7377 31.7291 35.628 31.8398 35.5429 31.9686V31.9686Z" fill="#FA902E"/>
</svg>
