<?xml version="1.0"?>
<svg xmlns="http://www.w3.org/2000/svg" xmlns:xlink="http://www.w3.org/1999/xlink" xmlns:svgjs="http://svgjs.com/svgjs" version="1.1" width="512" height="512" x="0" y="0" viewBox="0 0 64 64" style="enable-background:new 0 0 512 512" xml:space="preserve" class=""><g><path xmlns="http://www.w3.org/2000/svg" d="M32,64c8.54,0,23-1.16,23-5.5,0,0,0-.05,0-.08s0-.07,0-.11a1.79,1.79,0,0,0-.88-1.55A5.42,5.42,0,0,0,53,56V51a1,1,0,0,0-2,0v5a1,1,0,0,0,.06.31,1,1,0,0,0,0,.4,1,1,0,0,0,.58,1l.3.13c.35.16.76.34,1,.47l.07.08c-.67,1.25-8.06,3.4-21,3.4s-20.29-2.15-20.95-3.39l.08-.1c.23-.14.63-.31,1-.46l.3-.13a1,1,0,0,0,.57-1,1,1,0,0,0,0-.39A1,1,0,0,0,13,56V35.83C17.91,37.48,26.28,38,32,38c1.7,0,3.4,0,5-.12a1,1,0,0,0-.09-2c-1.62.08-3.28.12-5,.12-9.94,0-16.61-1.28-19.45-2.44a1,1,0,0,0-.34-.15A2.44,2.44,0,0,1,11,32.57,8.8,8.8,0,0,1,12.11,32l.28-.12h0a.94.94,0,0,0,.11-.08,1,1,0,0,0,.2-.14,5.55,5.55,0,0,0,.21-.32,1,1,0,0,0,0-.24A.94.94,0,0,0,13,31v0h0V8.83C17.91,10.48,26.28,11,32,11s14.09-.52,19-2.17V31h0v0a.94.94,0,0,0,0,.13,1,1,0,0,0,0,.24,5.59,5.59,0,0,0,.21.32,1,1,0,0,0,.2.14.94.94,0,0,0,.11.08h0l.28.12a9.19,9.19,0,0,1,1.08.52,3.27,3.27,0,0,1-1.34.88l0,0c-1.49.66-4.39,1.49-9.69,2a1,1,0,0,0,.1,2h.1A44.56,44.56,0,0,0,51,35.82V47a1,1,0,0,0,2,0V35c1.23-.67,2-1.48,2-2.48,0-1.16-.9-1.66-2-2.15V8c1.25-.68,2-1.5,2-2.49C55,1.16,40.54,0,32,0c-2.42,0-4.8.08-7.07.23a1,1,0,0,0,.14,2C27.29,2.08,29.63,2,32,2,45.27,2,52.73,4.28,53,5.49c-.06.27-.49.59-1.24.93a1,1,0,0,0-.32.14C48.6,7.72,41.93,9,32,9S15.44,7.73,12.58,6.58a1,1,0,0,0-.38-.17c-.72-.33-1.14-.64-1.2-.91s1.85-1.82,9.13-2.79a1,1,0,1,0-.26-2C12.66,1.7,9,3.3,9,5.5c0,1,.75,1.8,2,2.49V30.35c-1.1.49-2,1-2,2.15,0,1,.75,1.8,2,2.49V56a5.41,5.41,0,0,0-1.12.77A1.79,1.79,0,0,0,9,58.31s0,.07,0,.11,0,.05,0,.08C9,62.84,23.46,64,32,64Z" fill="#fa902e" data-original="#000000" style="" class=""/><path xmlns="http://www.w3.org/2000/svg" d="M31.15,15.48C30.62,16.35,26,24,26,27a6,6,0,0,0,12,0c0-3-4.62-10.65-5.15-11.52A1,1,0,0,0,31.15,15.48ZM36,27a4,4,0,0,1-8,0c0-1.55,2.19-5.88,4-9C33.81,21.12,36,25.45,36,27Z" fill="#fa902e" data-original="#000000" style="" class=""/><path xmlns="http://www.w3.org/2000/svg" d="M30.33,27.28a1,1,0,0,0,.26,1.39,2.66,2.66,0,0,0,1.53.48,2.94,2.94,0,0,0,1.6-.48A1,1,0,0,0,34,27.3,1,1,0,0,0,32.6,27a.81.81,0,0,1-.88,0A1,1,0,0,0,30.33,27.28Z" fill="#fa902e" data-original="#000000" style="" class=""/></g></svg>
