<svg width="75" height="75" viewBox="0 0 75 75" fill="none" xmlns="http://www.w3.org/2000/svg">
<g clip-path="url(#clip0)">
<path d="M54.123 51.1789L44.8403 45.945C44.3119 45.6471 43.6419 45.8339 43.344 46.3624C43.046 46.8909 43.2328 47.5608 43.7613 47.8587L53.044 53.0926C53.2145 53.1887 53.3997 53.2344 53.5825 53.2344C53.9661 53.2344 54.3385 53.0331 54.5404 52.6753C54.8383 52.1468 54.6516 51.4769 54.123 51.1789Z" fill="#FA902E"/>
<path d="M54.6439 45.2987L49.4102 41.9027C48.9014 41.5725 48.221 41.7173 47.8908 42.2263C47.5608 42.7352 47.7057 43.4154 48.2146 43.7456L53.4483 47.1416C53.633 47.2614 53.8401 47.3187 54.0451 47.3187C54.4047 47.3187 54.7571 47.1422 54.9676 46.818C55.2977 46.3091 55.1528 45.6288 54.6439 45.2987Z" fill="#FA902E"/>
<path d="M24.096 42.0278L13.7706 44.661C13.1827 44.811 12.8278 45.4091 12.9777 45.9968C13.1044 46.4935 13.551 46.824 14.0411 46.824C14.1311 46.824 14.2223 46.8129 14.3135 46.7897L24.6389 44.1565C25.2267 44.0065 25.5816 43.4084 25.4318 42.8207C25.2818 42.2328 24.6835 41.8784 24.096 42.0278V42.0278Z" fill="#FA902E"/>
<path d="M15.1375 40.9935C15.2493 40.9935 15.363 40.9763 15.4749 40.9401L21.4146 39.0251C21.992 38.839 22.309 38.2199 22.1228 37.6426C21.9366 37.0652 21.3173 36.7479 20.7403 36.9342L14.8006 38.8492C14.2232 39.0354 13.9062 39.6543 14.0924 40.2317C14.2424 40.6973 14.6735 40.9935 15.1375 40.9935V40.9935Z" fill="#FA902E"/>
<path d="M60.2624 58.5192L74.3841 33.8356C75.655 31.6168 74.774 29.704 73.4177 28.8658C72.0526 28.022 70.0213 28.1449 68.7794 30.012L65.011 35.6842C64.9664 35.7513 64.8632 35.6972 64.8928 35.6224L69.5315 23.886C70.5824 21.2218 69.4494 19.3528 67.9518 18.7439C66.4059 18.1151 64.2081 18.771 63.1795 21.2254L57.7431 34.2325C57.7045 34.3247 57.6325 34.2854 57.6525 34.2148L62.1302 18.3564C62.7998 15.9815 61.5966 14.25 60.0617 13.7672C58.5407 13.2885 56.5774 14.0221 55.7671 16.3509L50.3485 31.9525C50.3302 32.0054 50.2511 31.9857 50.2595 31.9304L52.2548 18.9886C52.7463 15.8063 51.2887 14.0666 49.6264 13.754C48.064 13.4605 46.1567 14.4655 45.6706 16.6554L41.0502 37.4388C41.0499 37.4388 41.0498 37.4388 41.0495 37.4389L39.9494 35.7044V35.7041C40.1118 34.3598 39.7033 33.2194 38.9486 32.4369C37.6768 31.1181 35.2691 30.8079 33.1275 32.7675L31.7353 34.0431C31.6141 34.1542 31.4193 34.063 31.4268 33.899L32.366 13.0736C32.469 10.8321 30.8907 9.36417 29.305 9.24009C27.6178 9.10723 25.7564 10.4089 25.4017 13.6118L23.9764 26.4251C23.9677 26.5034 23.8531 26.5011 23.8475 26.4224L22.6962 10.1471C22.5248 7.68926 20.8181 6.46846 19.2295 6.53321C17.6208 6.59839 16.007 7.95543 16.0349 10.4225L16.2207 26.8866C16.2216 26.9607 16.1419 26.994 16.1287 26.8963L14.2707 12.9195C13.9206 10.2826 11.9709 9.07559 10.3147 9.27935C8.70926 9.47652 7.12766 10.9853 7.4489 13.8324L8.85896 26.3165C8.86878 26.4035 8.74514 26.4309 8.71731 26.3479L6.57542 19.9409C5.86263 17.8143 3.93343 17.1661 2.3949 17.6246C0.867215 18.0804 -0.481613 19.6973 0.16658 22.1707L7.36482 49.6844V53.0296C5.95857 53.5768 4.95896 54.9444 4.95896 56.5418C4.95896 58.6195 6.64925 60.31 8.72698 60.31H16.107C16.7137 60.31 17.2055 59.8182 17.2055 59.2115C17.2055 58.6049 16.7137 58.113 16.107 58.113H8.72698C7.86067 58.113 7.15579 57.4081 7.15579 56.5417C7.15579 55.6752 7.86067 54.9703 8.72698 54.9703H28.2015C29.0679 54.9703 29.7728 55.6752 29.7728 56.5417C29.7728 57.4081 29.0679 58.113 28.2015 58.113H21.1339C20.5272 58.113 20.0354 58.6047 20.0354 59.2115C20.0354 59.8181 20.5272 60.31 21.1339 60.31H28.2015C30.2792 60.31 31.9697 58.6195 31.9697 56.5418C31.9697 55.0981 31.153 53.842 29.9578 53.2094C30.7508 49.7307 32.8615 46.1934 34.6818 43.6632H34.6825C36.0679 46.8214 37.6632 51.69 37.5352 55.8923C37.0619 55.9579 36.6003 56.1144 36.1726 56.3602C35.2978 56.8626 34.6724 57.673 34.4113 58.6425C33.872 60.6501 35.0643 62.7224 37.068 63.2622L43.4946 64.9988C44.0797 65.157 44.6833 64.8107 44.8415 64.2249C44.9999 63.6393 44.6533 63.0362 44.0677 62.878L37.6402 61.1413C36.8045 60.9161 36.3078 60.051 36.5328 59.2132C36.6409 58.8117 36.9015 58.4751 37.2668 58.2653C37.5951 58.0768 37.9697 58.0138 38.3356 58.0822C38.3767 58.0913 38.4195 58.0985 38.4602 58.1096L44.1542 59.6457L57.3122 63.1981C58.1162 63.4468 58.5888 64.2914 58.3691 65.1094C58.261 65.5109 58.0001 65.848 57.6346 66.0583C57.269 66.2687 56.8465 66.3248 56.4457 66.2171L48.6438 64.1114C48.0585 63.953 47.4553 64.2998 47.2971 64.8857C47.139 65.4714 47.4857 66.0743 48.0714 66.2323L55.8739 68.3382C56.1974 68.4254 56.526 68.4684 56.8528 68.4684C57.5042 68.4684 58.1485 68.2972 58.7306 67.9622C59.6047 67.459 60.2296 66.6486 60.4903 65.6799C60.872 64.2586 60.3829 62.8033 59.3511 61.8829L60.2624 58.5192ZM27.8031 52.7739H9.56165V49.5432C9.56165 49.4493 9.54964 49.356 9.52591 49.2652L2.29178 21.6142C1.99309 20.4747 2.47356 19.8938 3.02273 19.73C3.51126 19.5839 4.18933 19.735 4.49197 20.6383L7.23035 28.8292C8.00789 31.1616 9.36888 31.0565 9.76717 30.9683C10.6295 30.778 11.4655 29.82 11.226 27.7012L9.63167 13.586C9.47727 12.2169 9.99788 11.5317 10.5822 11.4599C11.2078 11.3827 11.9268 11.9594 12.0928 13.2088L13.9512 27.1874C14.1654 28.7848 15.2759 29.427 16.2799 29.3537C17.4935 29.2658 18.4329 28.2056 18.4185 26.9399L18.2319 10.3982C18.219 9.27598 18.7683 8.75113 19.3185 8.72886C19.8117 8.70792 20.4216 9.10826 20.5048 10.3017L21.7544 27.9671C21.8542 29.3774 22.9201 30.0812 23.9326 30.0513C25.0635 30.0154 25.9603 29.1513 26.0039 28.0707L27.5852 13.8545C27.7782 12.1116 28.4986 11.3801 29.1336 11.4306C29.6691 11.4725 30.2149 12.0274 30.1714 12.9741L29.0934 36.8729C29.0788 37.1985 29.1926 37.5243 29.4314 37.7462C29.8719 38.1557 30.5193 38.1371 30.9315 37.7594L34.6111 34.3882C35.7668 33.3306 36.8501 33.426 37.3673 33.9624C38.1317 34.7549 37.9762 36.6016 35.8278 38.7853C35.7613 38.8528 29.4131 45.5874 27.8031 52.7739V52.7739ZM58.2856 57.5505C58.239 57.6318 58.2031 57.7187 58.1786 57.809L57.3345 60.9256L46.586 58.0261L39.7256 56.1737C39.7254 56.1737 39.7253 56.1735 39.7253 56.1733C39.9853 50.2581 37.2047 43.822 36.1941 41.6944C36.1943 41.6931 36.1944 41.6922 36.1946 41.6911C36.7048 41.0688 37.1269 40.5979 37.395 40.3244C38.0706 39.6378 38.5966 38.9602 38.9943 38.303H38.9959L40.6179 40.8605C40.8563 41.2361 41.2975 41.4308 41.735 41.3542C42.173 41.2775 42.5214 40.9446 42.6179 40.5106L47.8153 17.1321C48.0204 16.2076 48.6938 15.814 49.2207 15.9135C49.8428 16.0304 50.351 16.9231 50.0838 18.6541L47.9041 32.7919C47.6637 33.8436 48.3015 34.9102 49.382 35.2412C50.3461 35.5364 51.5659 35.1369 52.0324 33.8001L57.8422 17.0725C58.2359 15.9412 58.9292 15.7137 59.4024 15.8629C59.9274 16.0282 60.3205 16.6789 60.0158 17.7601L55.5205 33.6801C55.176 34.8965 55.8062 36.1638 56.9549 36.5653C57.8759 36.8873 59.1498 36.5603 59.7695 35.0805L65.2058 22.0737C65.6933 20.9101 66.5398 20.5409 67.124 20.7791C67.6694 21.0009 67.9932 21.7983 67.488 23.0795L62.2661 36.2906C61.4838 38.2734 62.0404 39.416 62.8223 39.8243C63.1834 40.0128 64.4684 40.4697 65.8297 38.4215L70.6087 31.2284C71.1356 30.4357 71.8289 30.467 72.2625 30.7348C72.7502 31.0361 73.0628 31.7221 72.4774 32.7442L58.2856 57.5505Z" fill="#FA902E"/>
</g>
<defs>
<clipPath id="clip0">
<rect width="75" height="75" fill="white"/>
</clipPath>
</defs>
</svg>
