<svg width="75" height="75" viewBox="0 0 75 75" fill="none" xmlns="http://www.w3.org/2000/svg">
<g clip-path="url(#clip0)">
<path d="M37.5021 58.6343C28.4563 58.6343 21.0969 51.2749 21.0969 42.2291V28.3238H20.0033C19.313 28.3238 18.7534 27.7642 18.7534 27.0739C18.7534 26.3836 19.313 25.824 20.0033 25.824H26.5653V12.8561C26.5653 12.1658 27.125 11.6062 27.8152 11.6062C28.5055 11.6062 29.0652 12.1658 29.0652 12.8561V25.824H45.939V12.8561C45.939 12.1658 46.4987 11.6062 47.189 11.6062C47.8792 11.6062 48.4389 12.1658 48.4389 12.8561V25.824H55.0009C55.6912 25.824 56.2509 26.3836 56.2509 27.0739C56.2509 27.7642 55.6912 28.3238 55.0009 28.3238H23.5968V42.2291C23.5968 49.8966 29.8346 56.1345 37.5021 56.1345C45.1696 56.1345 51.4074 49.8966 51.4074 42.2291V32.5423C51.4074 31.852 51.9671 31.2924 52.6573 31.2924C53.3476 31.2924 53.9073 31.852 53.9073 32.5423V42.2291C53.9073 51.2749 46.5481 58.6343 37.5021 58.6343V58.6343ZM37.5013 50.3539C37.9599 50.3539 38.4013 50.1006 38.6202 49.6627L42.3699 42.1632C42.7853 41.3323 42.1793 40.3543 41.252 40.3543H35.7749L38.6202 34.6637C38.9289 34.0462 38.6786 33.2954 38.0613 32.9868C37.4437 32.678 36.6931 32.9283 36.3844 33.5456L32.6346 41.0451C32.2192 41.876 32.8252 42.8541 33.7525 42.8541H39.2296L36.3844 48.5446C35.9677 49.3779 36.5786 50.3539 37.5013 50.3539V50.3539ZM71.8451 49.3915C71.1997 49.1463 70.478 49.4713 70.233 50.1166C65.8008 61.7919 55.4042 70.2732 43.1005 72.2507C40.8206 72.6169 38.7522 70.8563 38.7522 68.5477V64.1027H40.1583C40.8486 64.1027 41.4082 63.543 41.4082 62.8528C41.4082 62.1625 40.8486 61.6028 40.1583 61.6028H34.8462C34.1559 61.6028 33.5963 62.1625 33.5963 62.8528C33.5963 63.543 34.1559 64.1027 34.8462 64.1027H36.2523V68.5477C36.2523 72.3954 39.7004 75.3299 43.4972 74.7188C56.6815 72.5998 67.8215 63.5127 72.5702 51.0037C72.8151 50.3584 72.4906 49.6366 71.8451 49.3915V49.3915ZM73.1994 44.1476C72.5243 44.0032 71.8597 44.4316 71.7144 45.1066C71.67 45.3131 71.6236 45.5194 71.5753 45.7245C71.4177 46.3967 71.8347 47.0691 72.5068 47.2268C73.1778 47.3847 73.8514 46.968 74.0092 46.2954C74.0608 46.0753 74.1104 45.8542 74.1583 45.6327C74.3036 44.9579 73.8742 44.2929 73.1994 44.1476V44.1476ZM37.5024 0.200684C27.7951 0.200684 18.289 3.90809 10.9865 11.2214C-5.1349 27.3667 -3.16722 53.6732 14.6052 67.3953C14.8325 67.5709 15.1014 67.6559 15.3681 67.6559C16.5524 67.6559 17.0777 66.146 16.1329 65.4166C7.48817 58.7419 2.52084 48.6582 2.50444 37.7515C2.47584 18.4338 18.1853 2.70052 37.5024 2.70052C56.8 2.70067 72.4998 18.4006 72.4998 37.6982C72.4998 38.3885 73.0594 38.9481 73.7497 38.9481C74.44 38.9481 74.9996 38.3885 74.9996 37.6982C74.9996 16.9738 58.2292 0.200684 37.5024 0.200684V0.200684Z" fill="#FA902E"/>
</g>
<defs>
<clipPath id="clip0">
<rect width="75" height="75" fill="white"/>
</clipPath>
</defs>
</svg>
