<?xml version="1.0"?>
<svg xmlns="http://www.w3.org/2000/svg" xmlns:xlink="http://www.w3.org/1999/xlink" xmlns:svgjs="http://svgjs.com/svgjs" version="1.1" width="512" height="512" x="0" y="0" viewBox="0 0 512.007 512.007" style="enable-background:new 0 0 512 512" xml:space="preserve" class=""><g><path xmlns="http://www.w3.org/2000/svg" d="m1.313 229.83c.756 6.063 5.547 10.511 11.653 10.819 6.065.306 11.381-3.639 12.755-9.647 6.776-29.64 22.105-56.39 44.328-77.358 21.959-20.719 49.198-34.314 78.931-39.426l3.564 29.026c.604 4.919 4.081 8.954 8.856 10.278 4.778 1.324 9.833-.343 12.887-4.249l56.81-72.713c2.009-2.57 2.896-5.769 2.498-9.007-.397-3.237-2.032-6.126-4.602-8.134l-72.713-56.81c-3.906-3.05-9.217-3.446-13.531-1.005s-6.711 7.197-6.107 12.116l3.619 29.479c-42.333 7.092-79.875 29.766-105.949 64.059-26.735 35.162-38.468 78.706-32.999 122.572zm44.939-113.493c24.25-31.894 59.388-52.753 98.94-58.735 6.579-.995 11.097-6.949 10.285-13.553l-3.127-25.475 65.21 50.948-50.949 65.211-3.095-25.213c-.4-3.259-2.131-6.267-4.75-8.25-2.617-1.983-5.974-2.837-9.222-2.34-33.859 5.181-64.908 20.328-89.789 43.804-20.738 19.566-36.006 43.724-44.688 70.524-1.015-34.874 9.826-68.83 31.185-96.921zm234.758-90.613c29.64 6.776 56.39 22.105 77.358 44.328 20.719 21.959 34.314 49.198 39.426 78.931l-29.026 3.564c-4.919.604-8.954 4.081-10.278 8.856s.343 9.834 4.249 12.887l20.31 15.868c3.262 2.55 7.977 1.971 10.527-1.293s1.971-7.977-1.293-10.527l-15.005-11.723 25.213-3.095c3.259-.4 6.267-2.131 8.25-4.75 1.983-2.617 2.836-5.979 2.34-9.222-5.181-33.859-20.328-64.908-43.804-89.789-19.566-20.738-43.724-36.006-70.524-44.688 34.87-1.011 68.83 9.826 96.921 31.184 31.894 24.25 52.753 59.388 58.735 98.94.995 6.579 6.951 11.099 13.553 10.285l25.475-3.127-50.948 65.21-26.308-20.555c-3.264-2.551-7.978-1.972-10.528 1.292s-1.971 7.978 1.292 10.528l28.506 22.271c2.57 2.01 5.801 2.892 9.007 2.498 3.237-.397 6.126-2.032 8.134-4.602l56.81-72.713c3.052-3.906 3.446-9.217 1.005-13.531-2.44-4.314-7.201-6.709-12.116-6.107l-29.479 3.619c-7.092-42.333-29.766-79.875-64.059-105.949-35.083-26.676-78.502-38.409-122.285-33.033-6.163.757-10.792 5.468-11.105 11.688-.309 6.14 3.658 11.386 9.647 12.755zm-50.011 460.568c-29.64-6.776-56.39-22.105-77.358-44.328-20.719-21.959-34.314-49.198-39.426-78.931l29.026-3.564c4.919-.604 8.954-4.081 10.278-8.856s-.343-9.834-4.249-12.887l-72.713-56.81c-2.57-2.009-5.767-2.895-9.007-2.498-3.237.397-6.126 2.032-8.134 4.602l-56.81 72.713c-3.052 3.906-3.446 9.217-1.005 13.531 2.441 4.315 7.204 6.715 12.116 6.107l29.479-3.619c4.79 28.533 16.875 55.388 35.046 77.821 2.607 3.219 7.331 3.714 10.549 1.107 3.219-2.607 3.714-7.33 1.107-10.549-17.063-21.064-28.231-46.415-32.299-73.312-.995-6.578-6.946-11.093-13.553-10.285l-25.475 3.128 50.948-65.21 65.211 50.949-25.213 3.095c-3.259.4-6.267 2.131-8.25 4.75-1.983 2.617-2.836 5.979-2.34 9.222 5.181 33.86 20.328 64.908 43.804 89.789 19.555 20.726 43.697 35.988 70.479 44.673-37.995 1.023-75.417-12.2-104.429-37.297-3.131-2.71-7.869-2.368-10.579.765-2.71 3.132-2.368 7.869.765 10.579 30.705 26.563 69.96 41.008 110.159 41.006 6.893 0 13.797-.423 20.701-1.284 6.063-.756 10.511-5.547 10.819-11.653.309-6.14-3.658-11.385-9.647-12.754zm25.006-272.944c-23.522 0-42.66 19.137-42.66 42.66s19.137 42.66 42.66 42.66 42.66-19.137 42.66-42.66-19.138-42.66-42.66-42.66zm0 70.32c-15.251 0-27.66-12.408-27.66-27.66s12.408-27.66 27.66-27.66c15.251 0 27.66 12.408 27.66 27.66s-12.409 27.66-27.66 27.66zm254.727-1.197c-.757-6.162-5.489-10.797-11.688-11.105-6.132-.305-11.386 3.659-12.755 9.647-6.776 29.64-22.105 56.39-44.328 77.358-21.959 20.719-49.198 34.314-78.931 39.426l-3.564-29.026c-.604-4.919-4.081-8.954-8.856-10.278-4.777-1.324-9.834.343-12.887 4.249l-56.81 72.713c-2.009 2.57-2.896 5.769-2.498 9.007.397 3.237 2.032 6.126 4.602 8.134l72.713 56.81c3.917 3.06 9.232 3.438 13.531 1.005 4.314-2.441 6.711-7.197 6.107-12.116l-3.619-29.479c42.333-7.092 79.875-29.766 105.949-64.059 26.676-35.085 38.409-78.503 33.034-122.286zm-44.975 113.208c-24.25 31.894-59.388 52.753-98.94 58.735-6.579.995-11.097 6.949-10.285 13.553l3.127 25.475-65.21-50.948 50.949-65.211 3.095 25.213c.4 3.259 2.131 6.267 4.75 8.25 2.617 1.983 5.976 2.836 9.222 2.34 33.859-5.181 64.908-20.328 89.789-43.804 20.738-19.566 36.006-43.724 44.688-70.524 1.015 34.874-9.826 68.83-31.185 96.921zm-179.98-67.772c2.404-1.002 8.329.005 13.09.813 9.151 1.552 19.525 3.313 26.344-3.506 6.819-6.818 5.059-17.191 3.506-26.343-.808-4.761-1.813-10.685-.813-13.09.897-2.158 5.839-5.625 9.448-8.156 7.764-5.446 16.563-11.619 16.563-21.617s-8.799-16.17-16.563-21.616c-3.609-2.532-8.551-5.999-9.448-8.156-1-2.405.005-8.33.813-13.09 1.553-9.152 3.313-19.525-3.506-26.344-6.818-6.818-17.192-5.059-26.343-3.506-4.761.807-10.685 1.812-13.09.813-2.158-.897-5.625-5.839-8.156-9.448-5.446-7.764-11.619-16.563-21.617-16.563s-16.17 8.799-21.616 16.563c-2.532 3.609-5.999 8.551-8.156 9.448-2.406 1-8.33-.006-13.09-.813-9.152-1.553-19.526-3.313-26.344 3.506-6.819 6.818-5.059 17.191-3.506 26.343.808 4.761 1.813 10.685.813 13.09-.897 2.158-5.839 5.625-9.448 8.156-7.764 5.446-16.563 11.619-16.563 21.617s8.799 16.17 16.563 21.616c3.609 2.532 8.551 5.999 9.448 8.156 1 2.405-.005 8.33-.813 13.09-1.553 9.152-3.313 19.525 3.506 26.344 6.818 6.818 17.192 5.059 26.343 3.506 4.761-.808 10.683-1.813 13.09-.813 2.158.897 5.625 5.839 8.156 9.448 5.446 7.764 11.619 16.563 21.617 16.563s16.17-8.799 21.616-16.563c2.531-3.609 5.998-8.551 8.156-9.448zm-20.436.834c-2.495 3.557-7.139 10.177-9.336 10.177s-6.842-6.621-9.337-10.178c-4.179-5.957-8.499-12.116-14.678-14.684-2.757-1.146-5.734-1.56-8.819-1.56-4.082 0-8.351.724-12.538 1.435-3.557.604-11.886 2.018-13.228.676-1.341-1.341.073-9.671.676-13.229 1.248-7.351 2.537-14.953-.125-21.356-2.568-6.179-8.728-10.5-14.685-14.679-3.557-2.495-10.177-7.139-10.177-9.336s6.621-6.842 10.178-9.337c5.957-4.179 12.116-8.499 14.684-14.678 2.662-6.403 1.372-14.005.125-21.357-.604-3.557-2.017-11.887-.676-13.228 1.34-1.339 9.672.073 13.229.676 7.352 1.248 14.953 2.538 21.356-.125 6.179-2.568 10.5-8.728 14.679-14.685 2.495-3.557 7.139-10.177 9.336-10.177s6.842 6.621 9.337 10.178c4.179 5.957 8.499 12.116 14.678 14.684 6.404 2.662 14.005 1.373 21.357.125 3.558-.604 11.888-2.016 13.228-.676 1.341 1.341-.073 9.671-.676 13.229-1.248 7.351-2.537 14.953.125 21.356 2.568 6.179 8.728 10.5 14.685 14.679 3.557 2.495 10.177 7.139 10.177 9.336s-6.621 6.842-10.178 9.337c-5.957 4.179-12.116 8.499-14.684 14.678-2.662 6.403-1.372 14.005-.125 21.357.604 3.557 2.017 11.887.676 13.228-1.339 1.34-9.671-.072-13.229-.676-7.351-1.247-14.951-2.537-21.356.125-6.18 2.569-10.5 8.728-14.679 14.685z" fill="#fa902e" data-original="#000000" style="" class=""/></g></svg>
