<svg width="75" height="75" viewBox="0 0 75 75" fill="none" xmlns="http://www.w3.org/2000/svg">
<path d="M50.7912 46.6175L50.4486 40.7931C51.2206 40.5049 51.8668 39.9547 52.2743 39.2385C52.6819 38.5224 52.8249 37.6858 52.6784 36.8749C52.532 36.0641 52.1053 35.3304 51.473 34.8021C50.8406 34.2737 50.0428 33.9843 49.2188 33.9844H25.7813C24.9573 33.9843 24.1595 34.2737 23.5271 34.8021C22.8948 35.3304 22.4681 36.0641 22.3217 36.8749C22.1752 37.6858 22.3182 38.5224 22.7258 39.2386C23.1334 39.9547 23.7796 40.5049 24.5515 40.7931L24.2089 46.6175C23.7203 55.0902 21.506 63.3738 17.7019 70.9602C17.6125 71.1389 17.5703 71.3374 17.5793 71.537C17.5883 71.7366 17.6481 71.9305 17.7531 72.1005C17.8581 72.2704 18.0049 72.4107 18.1793 72.5079C18.3538 72.6052 18.5503 72.6563 18.7501 72.6562H56.2501C56.4498 72.6563 56.6463 72.6052 56.8208 72.5079C56.9953 72.4107 57.142 72.2704 57.247 72.1005C57.352 71.9305 57.4118 71.7366 57.4208 71.537C57.4298 71.3374 57.3876 71.1389 57.2982 70.9602C53.4941 63.3738 51.2799 55.0902 50.7912 46.6175V46.6175ZM25.7813 36.3281H49.2188C49.5296 36.3281 49.8277 36.4516 50.0474 36.6714C50.2672 36.8911 50.3907 37.1892 50.3907 37.5C50.3907 37.8108 50.2672 38.1089 50.0474 38.3286C49.8277 38.5484 49.5296 38.6719 49.2188 38.6719H25.7813C25.4705 38.6719 25.1724 38.5484 24.9527 38.3286C24.7329 38.1089 24.6094 37.8108 24.6094 37.5C24.6094 37.1892 24.7329 36.8911 24.9527 36.6714C25.1724 36.4516 25.4705 36.3281 25.7813 36.3281ZM20.6163 70.3125C24.0656 62.9058 26.0786 54.9121 26.5486 46.7551L26.8863 41.0156H48.1138L48.4515 46.7551C48.9215 54.9121 50.9345 62.9058 54.3838 70.3125H20.6163Z" fill="#FA902E"/>
<path d="M37.5 57.4219C38.1472 57.4219 38.6719 56.8972 38.6719 56.25C38.6719 55.6028 38.1472 55.0781 37.5 55.0781C36.8528 55.0781 36.3281 55.6028 36.3281 56.25C36.3281 56.8972 36.8528 57.4219 37.5 57.4219Z" fill="#FA902E"/>
<path d="M40.2728 58.7081C40.1957 58.5746 40.0931 58.4576 39.9707 58.3638C39.8484 58.2701 39.7088 58.2014 39.5598 58.1616C39.4109 58.1219 39.2556 58.112 39.1028 58.1324C38.95 58.1528 38.8028 58.2031 38.6695 58.2805C38.3126 58.4819 37.9098 58.5878 37.5 58.5878C37.0902 58.5878 36.6874 58.4819 36.3306 58.2805C36.1973 58.2031 36.05 58.1528 35.8972 58.1324C35.7444 58.112 35.5891 58.1219 35.4402 58.1616C35.2913 58.2014 35.1516 58.2701 35.0293 58.3638C34.9069 58.4576 34.8043 58.5746 34.7272 58.7081L32.3835 62.7686C32.2283 63.0376 32.1861 63.3571 32.2663 63.6572C32.3466 63.9572 32.5426 64.2131 32.8114 64.3686C34.2369 65.1916 35.854 65.6249 37.5 65.6249C39.1461 65.6249 40.7631 65.1916 42.1887 64.3686C42.4574 64.2131 42.6534 63.9572 42.7337 63.6572C42.8139 63.3571 42.7718 63.0376 42.6165 62.7686L40.2728 58.7081ZM35.0481 62.8406L36.2453 60.7665C37.0665 60.9922 37.9335 60.9922 38.7547 60.7665L39.9519 62.8406C38.3688 63.4208 36.6312 63.4208 35.0481 62.8406H35.0481Z" fill="#FA902E"/>
<path d="M42.1882 48.1309C42.0549 48.0539 41.9077 48.0039 41.7551 47.9837C41.6024 47.9636 41.4473 47.9737 41.2986 48.0135C41.1499 48.0533 41.0104 48.122 40.8883 48.2158C40.7661 48.3095 40.6636 48.4263 40.5866 48.5597L38.2429 52.6202C38.0876 52.8891 38.0455 53.2087 38.1257 53.5087C38.2059 53.8087 38.402 54.0646 38.6707 54.2202C39.0266 54.4265 39.3221 54.7225 39.5279 55.0786C39.7338 55.4348 39.8426 55.8386 39.8438 56.25C39.8438 56.5608 39.9672 56.8588 40.187 57.0786C40.4068 57.2983 40.7048 57.4218 41.0156 57.4218H45.7031C46.0139 57.4218 46.312 57.2983 46.5318 57.0786C46.7515 56.8588 46.875 56.5608 46.875 56.25C46.8719 54.605 46.4374 52.9897 45.615 51.565C44.7927 50.1404 43.6111 48.9563 42.1882 48.1309V48.1309ZM42.0373 55.0781C41.8228 54.2546 41.3895 53.5045 40.7833 52.9073L41.9808 50.8328C43.278 51.9103 44.1473 53.416 44.4321 55.0781H42.0373Z" fill="#FA902E"/>
<path d="M35.1563 56.25C35.1574 55.8386 35.2662 55.4348 35.4721 55.0786C35.6779 54.7225 35.9734 54.4265 36.3293 54.2202C36.598 54.0646 36.7941 53.8087 36.8743 53.5087C36.9545 53.2087 36.9124 52.8891 36.7571 52.6202L34.4134 48.5597C34.3364 48.4263 34.2339 48.3095 34.1117 48.2158C33.9896 48.122 33.8501 48.0533 33.7014 48.0135C33.5527 47.9737 33.3976 47.9636 33.2449 47.9837C33.0923 48.0039 32.9451 48.0539 32.8118 48.1309C31.3889 48.9563 30.2073 50.1404 29.385 51.565C28.5626 52.9897 28.1282 54.605 28.125 56.25C28.125 56.5608 28.2485 56.8588 28.4683 57.0786C28.688 57.2983 28.9861 57.4218 29.2969 57.4218H33.9844C34.2952 57.4218 34.5932 57.2983 34.813 57.0786C35.0328 56.8588 35.1562 56.5608 35.1563 56.25ZM30.5679 55.0781C30.8527 53.416 31.7221 51.9103 33.0192 50.8328L34.2167 52.9073C33.6105 53.5045 33.1772 54.2546 32.9627 55.0781H30.5679Z" fill="#FA902E"/>
<path d="M12.8742 46.875H22.2657V44.5312H11.7188C11.408 44.5312 11.1099 44.4078 10.8902 44.188C10.6704 43.9682 10.5469 43.6702 10.5469 43.3594C10.5469 43.0486 10.6704 42.7505 10.8902 42.5307C11.1099 42.311 11.408 42.1875 11.7188 42.1875H21.0938V39.8438H11.7188C10.8905 39.8437 10.0889 40.1361 9.45515 40.6694C8.82143 41.2026 8.39634 41.9425 8.25485 42.7586C8.11335 43.5747 8.26454 44.4145 8.68176 45.13C9.09897 45.8455 9.75541 46.3907 10.5353 46.6695C10.3581 55.2527 7.62839 63.5887 2.69427 70.6142L2.55551 70.8125C2.4326 70.9881 2.36022 71.1941 2.34624 71.408C2.33227 71.6219 2.37723 71.8355 2.47624 72.0256C2.57525 72.2158 2.72451 72.3751 2.90778 72.4863C3.09105 72.5975 3.30131 72.6563 3.51567 72.6562H15.2344V70.3125H5.71508C10.1995 63.3015 12.6757 55.1951 12.8742 46.875V46.875Z" fill="#FA902E"/>
<path d="M72.3056 70.6141C67.3716 63.5886 64.6419 55.2527 64.4647 46.6695C65.2446 46.3907 65.9011 45.8455 66.3183 45.13C66.7355 44.4145 66.8867 43.5747 66.7452 42.7586C66.6037 41.9425 66.1786 41.2026 65.5449 40.6694C64.9112 40.1361 64.1095 39.8437 63.2813 39.8438H53.9063V42.1875H63.2813C63.5921 42.1875 63.8901 42.311 64.1099 42.5307C64.3297 42.7505 64.4531 43.0486 64.4531 43.3594C64.4531 43.6702 64.3297 43.9682 64.1099 44.188C63.8901 44.4078 63.5921 44.5312 63.2813 44.5312H52.7344V46.875H62.1259C62.3244 55.1951 64.8006 63.3015 69.285 70.3125H59.7656V72.6562H71.4844C71.6987 72.6563 71.909 72.5975 72.0923 72.4863C72.2755 72.3751 72.4248 72.2158 72.5238 72.0256C72.6228 71.8355 72.6678 71.6219 72.6538 71.408C72.6398 71.1941 72.5674 70.9881 72.4445 70.8125L72.3056 70.6141Z" fill="#FA902E"/>
<path d="M14.0625 30.4688C14.0646 28.6047 14.806 26.8175 16.1242 25.4993C17.4424 24.1811 19.2296 23.4397 21.0938 23.4376C23.5793 23.4348 25.9622 22.4462 27.7198 20.6886C29.4773 18.9311 30.466 16.5481 30.4688 14.0626C30.4641 12.3581 30.7976 10.6697 31.4498 9.09501C32.1021 7.52031 33.0602 6.09062 34.2688 4.88871L34.8131 4.3444L33.1557 2.68701L32.6114 3.23132C31.1846 4.65041 30.0534 6.33839 29.2833 8.19758C28.5132 10.0568 28.1195 12.0502 28.125 14.0626C28.1229 15.9267 27.3815 17.714 26.0633 19.0321C24.7451 20.3503 22.9579 21.0917 21.0938 21.0938C18.6082 21.0966 16.2253 22.0852 14.4677 23.8428C12.7102 25.6003 11.7215 27.9833 11.7188 30.4688V37.5001H14.0625V30.4688Z" fill="#FA902E"/>
<path d="M31.6406 31.6406H33.9844C33.9854 30.7086 34.3562 29.815 35.0153 29.1559C35.6743 28.4968 36.5679 28.1261 37.5 28.125H42.7734C44.7929 28.1227 46.7291 27.3195 48.1571 25.8915C49.5851 24.4634 50.3883 22.5273 50.3906 20.5078C50.3922 19.1097 50.9483 17.7693 51.9369 16.7807C52.9255 15.792 54.2659 15.2359 55.6641 15.2344H56.8359C58.8554 15.2321 60.7916 14.4288 62.2196 13.0008C63.6476 11.5728 64.4508 9.63669 64.4531 7.61719V2.34375H62.1094V7.61719C62.1078 9.01531 61.5517 10.3557 60.5631 11.3443C59.5745 12.333 58.2341 12.8891 56.8359 12.8906H55.6641C53.6446 12.8929 51.7084 13.6962 50.2804 15.1242C48.8524 16.5522 48.0492 18.4883 48.0469 20.5078C48.0453 21.9059 47.4892 23.2463 46.5006 24.235C45.512 25.2236 44.1716 25.7797 42.7734 25.7812H37.5C35.9465 25.783 34.4572 26.4009 33.3588 27.4994C32.2603 28.5978 31.6424 30.0872 31.6406 31.6406V31.6406Z" fill="#FA902E"/>
<path d="M28.125 28.7109C28.1245 29.177 27.9391 29.6238 27.6096 29.9533C27.28 30.2829 26.8332 30.4682 26.3672 30.4688H21.6797C20.5923 30.47 19.5497 30.9025 18.7808 31.6714C18.0119 32.4403 17.5793 33.4829 17.5781 34.5703V38.6719H19.9219V34.5703C19.9224 34.1043 20.1077 33.6575 20.4373 33.3279C20.7668 32.9984 21.2136 32.813 21.6797 32.8125H26.3672C27.4546 32.8113 28.4972 32.3788 29.2661 31.6098C30.035 30.8409 30.4675 29.7984 30.4688 28.7109V26.9531H28.125V28.7109Z" fill="#FA902E"/>
<path d="M30.4688 22.2656H28.125V24.6094H30.4688V22.2656Z" fill="#FA902E"/>
<path d="M67.9687 21.0938C66.1046 21.0958 64.3174 21.8373 62.9992 23.1555C61.681 24.4736 60.9396 26.2608 60.9375 28.125C60.9361 29.3678 60.4418 30.5592 59.563 31.438C58.6842 32.3168 57.4928 32.8111 56.25 32.8125H55.0781V35.1562H56.25C58.1142 35.1542 59.9014 34.4127 61.2195 33.0945C62.5377 31.7764 63.2792 29.9892 63.2812 28.125C63.2827 26.8822 63.777 25.6908 64.6558 24.812C65.5345 23.9332 66.726 23.4389 67.9687 23.4375H72.6562V21.0938H67.9687Z" fill="#FA902E"/>
<path d="M70.3125 29.2969C70.3118 29.9183 70.0646 30.514 69.6252 30.9534C69.1859 31.3928 68.5901 31.6399 67.9687 31.6406C66.726 31.642 65.5345 32.1364 64.6558 33.0151C63.777 33.8939 63.2827 35.0854 63.2812 36.3281V37.5H65.625V36.3281C65.6257 35.7067 65.8729 35.111 66.3123 34.6716C66.7516 34.2322 67.3474 33.9851 67.9687 33.9844C69.2115 33.983 70.403 33.4886 71.2817 32.6099C72.1605 31.7311 72.6548 30.5396 72.6562 29.2969V28.125H70.3125V29.2969Z" fill="#FA902E"/>
<path d="M56.25 23.4375C56.2493 24.0589 56.0021 24.6546 55.5627 25.094C55.1234 25.5334 54.5276 25.7805 53.9062 25.7812C52.6635 25.7827 51.472 26.277 50.5933 27.1558C49.7145 28.0345 49.2202 29.226 49.2188 30.4688V31.6406H51.5625V30.4688C51.5632 29.8474 51.8104 29.2516 52.2498 28.8123C52.6891 28.3729 53.2849 28.1257 53.9062 28.125C55.149 28.1236 56.3405 27.6293 57.2192 26.7505C58.098 25.8717 58.5923 24.6803 58.5938 23.4375V22.2656H56.25V23.4375Z" fill="#FA902E"/>
<path d="M39.8438 17.5781C39.8445 16.9567 40.0916 16.361 40.531 15.9216C40.9704 15.4822 41.5661 15.2351 42.1875 15.2344C43.4303 15.233 44.6217 14.7386 45.5005 13.8599C46.3793 12.9811 46.8736 11.7896 46.875 10.5469V9.375H44.5312V10.5469C44.5305 11.1683 44.2834 11.764 43.844 12.2034C43.4046 12.6428 42.8089 12.8899 42.1875 12.8906C40.9447 12.892 39.7533 13.3864 38.8745 14.2651C37.9957 15.1439 37.5014 16.3354 37.5 17.5781V18.75H39.8438V17.5781Z" fill="#FA902E"/>
</svg>
