<svg width="75" height="75" viewBox="0 0 75 75" fill="none" xmlns="http://www.w3.org/2000/svg">
<g clip-path="url(#clip0)">
<path d="M68.552 66.7624L58.6228 42.7915C58.3699 42.181 57.6698 41.8907 57.0592 42.1438C56.4485 42.3969 56.1584 43.0969 56.4114 43.7074L65.3877 65.3778L57.2001 63.0054C56.6626 62.8495 56.0886 63.0873 55.8188 63.5777L51.7067 71.0446L42.0753 47.7921C53.1917 45.6483 61.6147 35.8474 61.6147 24.1147C61.6148 10.8179 50.7971 0 37.5003 0C24.2034 0 13.3855 10.8179 13.3855 24.1147C13.3855 29.5005 15.1606 34.4793 18.1562 38.4977L6.44852 66.7624C6.27251 67.1875 6.35565 67.6758 6.66251 68.0186C6.96921 68.3614 7.44554 68.498 7.8874 68.37L17.5469 65.5709L22.398 74.3805C22.6093 74.764 23.0119 75 23.4461 75C23.4681 75 23.4903 74.9994 23.5125 74.9982C23.9719 74.9727 24.3759 74.6863 24.5521 74.2612L33.8291 51.8644C34.082 51.2537 33.7921 50.5537 33.1814 50.3007C32.5707 50.0478 31.8706 50.3378 31.6177 50.9485L23.2935 71.0446L19.1818 63.5777C18.9118 63.0873 18.3375 62.8495 17.8003 63.0054L9.61288 65.3778L19.889 40.5689C24.2929 45.2796 30.5581 48.2293 37.5003 48.2293C38.2169 48.2293 38.9258 48.196 39.6266 48.1345L50.4486 74.2612C50.6246 74.6863 51.0288 74.9727 51.4881 74.9981C51.5104 74.9994 51.5325 75 51.5546 75C51.9888 75 52.3914 74.764 52.6026 74.3805L57.4538 65.5709L67.1133 68.37C67.5555 68.4981 68.0313 68.3614 68.3382 68.0186C68.6451 67.6758 68.728 67.1875 68.552 66.7624V66.7624ZM15.7792 24.1147C15.7792 12.1377 25.5233 2.39362 37.5003 2.39362C49.4773 2.39362 59.2212 12.1377 59.2212 24.1147C59.2212 36.0918 49.4773 45.8357 37.5003 45.8357C25.5233 45.8357 15.7792 36.0918 15.7792 24.1147V24.1147Z" fill="#FA902E"/>
<path d="M51.3286 19.6212C51.1908 19.197 50.8283 18.8846 50.3883 18.8107L42.3351 17.4593L38.5613 10.2179C38.3551 9.82236 37.9462 9.57422 37.5 9.57422C37.054 9.57422 36.6448 9.82236 36.4387 10.2179L32.6647 17.4593L24.6116 18.8107C24.1717 18.8844 23.8093 19.1969 23.6714 19.6212C23.5336 20.0455 23.643 20.5111 23.9556 20.8295L29.6764 26.6563L28.4732 34.733C28.4074 35.1743 28.5925 35.6153 28.9535 35.8777C29.3141 36.1397 29.7911 36.1794 30.1904 35.9808L37.5 32.3405L44.8095 35.9808C44.9784 36.0649 45.161 36.1063 45.3429 36.1063C45.5914 36.1063 45.8382 36.0291 46.0465 35.8778C46.4074 35.6155 46.5925 35.1744 46.5268 34.7332L45.3238 26.6565L51.0445 20.8295C51.357 20.5111 51.4664 20.0455 51.3286 19.6212V19.6212ZM43.1981 25.4048C42.9351 25.6727 42.813 26.0484 42.8684 26.4195L43.8211 32.8143L38.0336 29.9322C37.8654 29.8486 37.6829 29.8067 37.5 29.8067C37.3173 29.8067 37.1344 29.8485 36.9665 29.9322L31.1791 32.8143L32.1317 26.4195C32.1871 26.0484 32.065 25.6726 31.8021 25.4048L27.2725 20.7912L33.6487 19.7211C34.0189 19.659 34.3385 19.4268 34.512 19.094L37.5 13.3606L40.488 19.0941C40.6616 19.427 40.9811 19.6592 41.3513 19.7212L47.7276 20.7913L43.1981 25.4048V25.4048Z" fill="#FA902E"/>
<path d="M55.6294 25.3223C54.9741 25.2347 54.3725 25.6962 54.2858 26.3515C53.1757 34.7303 45.9592 41.049 37.4999 41.049C28.1625 41.049 20.566 33.4526 20.566 24.1151C20.566 14.7776 28.1625 7.18121 37.4999 7.18121C45.9594 7.18121 53.1757 13.4997 54.2858 21.8787C54.3725 22.534 54.9752 22.9958 55.6294 22.9079C56.2845 22.8211 56.7455 22.2195 56.6585 21.5643C55.3915 12 47.1551 4.7876 37.4999 4.7876C26.8427 4.7876 18.1724 13.4578 18.1724 24.1151C18.1724 34.7724 26.8427 43.4424 37.4999 43.4424C47.1551 43.4424 55.3915 36.23 56.6587 26.6657C56.7455 26.0107 56.2846 25.4091 55.6294 25.3223V25.3223Z" fill="#FA902E"/>
</g>
<defs>
<clipPath id="clip0">
<rect width="75" height="75" fill="white"/>
</clipPath>
</defs>
</svg>
