<?xml version="1.0"?>
<svg xmlns="http://www.w3.org/2000/svg" xmlns:xlink="http://www.w3.org/1999/xlink" xmlns:svgjs="http://svgjs.com/svgjs" version="1.1" width="512" height="512" x="0" y="0" viewBox="0 0 800 800.00075" style="enable-background:new 0 0 512 512" xml:space="preserve" class=""><g transform="matrix(1,0,0,1,30,30)"><path xmlns="http://www.w3.org/2000/svg" d="m218.242188 285.917969 255.175781 255.175781 67.675781-67.675781-255.175781-255.175781zm255.175781 219.824219-219.824219-219.824219 32.324219-32.324219 219.824219 219.824219zm0 0" fill="#fa902e" data-original="#000000" style="" class=""/><path xmlns="http://www.w3.org/2000/svg" d="m748.417969 314.402344-73.890625-24.582032c-6.777344-24.484374-16.539063-48.042968-29.042969-70.148437l34.769531-69.675781-83.363281-83.414063-69.71875 34.769531c-22.132813-12.507812-45.703125-22.265624-70.203125-29.042968l-24.539062-73.890625h-118.019532l-22.242187 66.816406c-30.640625-41.871094-79.367188-66.675781-131.25-66.816406-14.242188-.03125-28.421875 1.835937-42.171875 5.5625l-20.769532 5.6875 70.117188 70.117187-18.625 69.695313-69.699219 18.628906-70.101562-70.132813-5.667969 20.769532c-3.730469 13.742187-5.613281 27.929687-5.582031 42.171875.140625 51.882812 24.949219 100.609375 66.824219 131.25l-66.824219 22.234375v118.027344l73.890625 24.585937c6.789062 24.484375 16.539062 48.042969 29.042968 70.148437l-34.769531 69.726563 83.363281 83.363281 69.726563-34.769531c22.125 12.507813 45.703125 22.265625 70.195313 29.042969l24.542968 73.890625h118.019532l22.238281-66.8125c30.644531 41.867187 79.371093 66.671875 131.25 66.8125 14.242187.027343 28.425781-1.835938 42.171875-5.5625l20.765625-5.671875-70.109375-70.113282 18.621094-69.703124 69.703124-18.621094 70.097657 70.109375 5.679687-20.765625c3.722656-13.746094 5.597656-27.929688 5.570313-42.171875-.140625-51.886719-24.953125-100.609375-66.820313-131.25l66.820313-22.238281zm-204.777344 99.015625-210.21875-210.226563c58.964844-14.0625 121.007813 3.484375 163.871094 46.347656 42.867187 42.867188 60.410156 104.910157 46.347656 163.878907zm-129.230469 310h-81.980468l-23.195313-69.703125-6.652344-1.675782c-26.773437-6.769531-52.425781-17.382812-76.160156-31.496093l-5.867187-3.472657-65.648438 32.757813-57.898438-57.898437 32.761719-65.652344-3.476562-5.859375c-14.117188-23.734375-24.726563-49.386719-31.5-76.164063l-1.671875-6.648437-69.703125-23.203125v-81.972656l69.800781-23.226563.125-.535156c27.066406 12.558593 57.125 17.238281 86.730469 13.5-18.230469 68.882812 1.5625 142.265625 51.941406 192.652343 50.386719 50.378907 123.769531 70.167969 192.652344 51.953126-3.742188 29.59375.933593 59.652343 13.492187 86.722656l-.527344.121094zm-211.257812-390 210.265625 210.222656c-58.96875 14.0625-121.011719-3.480469-163.878907-46.347656-42.863281-42.863281-60.410156-104.90625-46.347656-163.875zm520.265625 252.5c0 4.4375-.214844 8.847656-.625 13.210937l-48.277344-48.300781-97.5 26.128906-26.121094 97.558594 48.300781 48.277344c-4.367187.410156-8.757812.625-13.21875.625-48.832031-.113281-93.984374-26-118.75-68.097657-12.355468-21.039062-18.847656-45.007812-18.808593-69.402343-.050781-10.324219 1.128906-20.621094 3.515625-30.664063l1.660156-6.835937-255.175781-255.175781-6.835938 1.664062c-10.042969 2.382812-20.335937 3.558594-30.664062 3.511719-24.398438.066406-48.375-6.40625-69.417969-18.75-42.101562-24.761719-67.984375-69.917969-68.082031-118.75 0-4.4375.214843-8.847657.628906-13.214844l48.273437 48.300781 97.5625-26.125 26.121094-97.558594-48.300781-48.277343c4.367187-.410157 8.75-.625 13.214844-.625 48.84375.113281 93.988281 26.003906 118.75 68.105469 12.332031 21.035156 18.8125 45.003906 18.75 69.394531.046875 10.328125-1.128907 20.621093-3.511719 30.664062l-1.664062 6.835938 255.175781 255.175781 6.835937-1.660156c10.042969-2.386719 20.339844-3.566406 30.664063-3.515625 24.398437-.070313 48.375 6.40625 69.429687 18.75 42.089844 24.761719 67.972656 69.917969 68.070313 118.75zm0-171.515625-69.800781 23.230468-.121094.535157c-27.070313-12.558594-57.125-17.242188-86.722656-13.5 18.214843-68.882813-1.574219-142.265625-51.953126-192.652344-50.386718-50.378906-123.765624-70.171875-192.652343-51.941406 3.738281-29.605469-.933594-59.664063-13.480469-86.730469l.519531-.125 23.222657-69.800781h81.980468l23.195313 69.703125 6.648437 1.671875c26.777344 6.773437 52.429688 17.382812 76.164063 31.5l5.859375 3.472656 65.652344-32.757813 57.902343 57.898438-32.761719 65.648438 3.472657 5.867187c14.113281 23.734375 24.726562 49.386719 31.496093 76.160156l1.675782 6.652344 69.703125 23.195313zm0 0" fill="#fa902e" data-original="#000000" style="" class=""/></g></svg>
