<svg width="95" height="95" viewBox="0 0 95 95" fill="none" xmlns="http://www.w3.org/2000/svg">
<path d="M29.4795 37.5155L59.7816 67.8176L67.8181 59.7811L37.516 29.479L29.4795 37.5155ZM59.7816 63.6196L33.6775 37.5155L37.516 33.677L63.6201 59.7811L59.7816 63.6196Z" fill="#FA902E"/>
<path d="M92.4375 40.8982L83.663 37.979C82.8581 35.0715 81.6989 32.2739 80.2141 29.6489L84.343 21.3749L74.4436 11.4695L66.1645 15.5984C63.5362 14.1131 60.7373 12.9544 57.8279 12.1495L54.9139 3.37505H40.8991L38.2578 11.3095C34.6193 6.3373 28.833 3.39175 22.6719 3.37505C20.9806 3.37133 19.2968 3.59306 17.664 4.03559L15.1976 4.71098L23.524 13.0374L21.3123 21.3137L13.0355 23.5259L4.71098 15.1976L4.03791 17.664C3.59492 19.2959 3.37133 20.9806 3.37505 22.6719C3.39174 28.833 6.33776 34.6193 11.3104 38.2578L3.37505 40.8982V54.9139L12.1495 57.8335C12.9557 60.741 14.1136 63.5386 15.5984 66.1636L11.4695 74.4436L21.3689 84.343L29.6489 80.2141C32.2763 81.6994 35.0762 82.8581 37.9846 83.663L40.8991 92.4375H54.9139L57.5547 84.5035C61.1937 89.4752 66.98 92.4208 73.1406 92.4375C74.8319 92.4407 76.5162 92.2194 78.1485 91.7769L80.6144 91.1034L72.2889 82.7774L74.5002 74.5002L82.7774 72.2889L91.1015 80.6144L91.776 78.1485C92.218 76.5162 92.4407 74.8319 92.4375 73.1406C92.4208 66.9791 89.4743 61.1933 84.5026 57.5547L92.4375 54.9139V40.8982ZM68.1202 52.6563L43.1567 27.6919C50.1588 26.0219 57.5264 28.1056 62.6164 33.1956C67.7069 38.2861 69.7901 45.6537 68.1202 52.6563ZM52.7741 89.4687H43.0389L40.2845 81.1915L39.4945 80.9925C36.3152 80.1886 33.2689 78.9283 30.4505 77.2523L29.7538 76.8399L21.958 80.7299L15.0826 73.8545L18.973 66.0583L18.5602 65.3625C16.8838 62.544 15.6239 59.4978 14.8196 56.318L14.621 55.5285L6.34379 52.7731V43.0389L14.6326 40.2807L14.6475 40.2172C17.8616 41.7085 21.4311 42.2642 24.9467 41.8203C22.7818 50.0001 25.1323 58.7143 31.1147 64.6978C37.0982 70.6803 45.8124 73.0302 53.9922 70.8672C53.5478 74.3814 54.1031 77.9509 55.5944 81.1655L55.5318 81.1799L52.7741 89.4687ZM27.6872 43.1563L52.6563 68.1202C45.6537 69.7901 38.2861 67.7069 33.1956 62.6164C28.1056 57.5264 26.0219 50.1588 27.6919 43.1563H27.6872ZM89.4687 73.1406C89.4687 73.6676 89.4432 74.1913 89.3945 74.7094L83.6616 68.9737L72.0834 72.0765L68.9816 83.6616L74.7173 89.3945C74.1987 89.4432 73.6773 89.4687 73.1476 89.4687C67.3488 89.4553 61.9869 86.3812 59.046 81.3821C57.5788 78.8837 56.8079 76.0374 56.8125 73.1406C56.8065 71.9146 56.9466 70.6918 57.23 69.4992L57.4271 68.6875L27.125 38.3854L26.3133 38.583C25.1207 38.866 23.8984 39.0056 22.6719 39C19.7746 39.0079 16.9274 38.2393 14.4285 36.7735C9.42897 33.833 6.35539 28.4707 6.34379 22.6719C6.34379 22.1449 6.36931 21.6212 6.41848 21.1026L12.1509 26.8384L23.7365 23.736L26.8384 12.1509L21.1026 6.41801C21.6212 6.36931 22.1417 6.34379 22.6719 6.34379C28.4721 6.35725 33.833 9.43175 36.7735 14.4313C38.2379 16.9292 39.0074 19.7755 39 22.6719C39.0056 23.8984 38.866 25.1207 38.583 26.3133L38.3854 27.125L68.6875 57.4271L69.4992 57.23C70.6918 56.9466 71.9146 56.8065 73.1406 56.8125C76.0379 56.8041 78.8851 57.5732 81.3854 59.0391C86.3835 61.9795 89.4571 67.3418 89.4687 73.1406ZM89.4687 52.7731L81.1799 55.5318L81.1655 55.5953C77.9509 54.104 74.3819 53.5478 70.8672 53.9922C73.0302 45.8124 70.6803 37.0982 64.6978 31.1147C58.7143 25.1323 50.0006 22.7818 41.8203 24.9467C42.2642 21.4311 41.7095 17.8616 40.2195 14.6475L40.2812 14.6326L43.0389 6.34379H52.7741L55.5285 14.621L56.318 14.8196C59.4978 15.6239 62.544 16.8838 65.3625 18.5602L66.0583 18.9726L73.8545 15.0826L80.7304 21.958L76.8399 29.7538L77.2523 30.4505C78.9283 33.2689 80.1886 36.3152 80.9925 39.4945L81.1915 40.2845L89.4687 43.0389V52.7731Z" fill="#FA902E"/>
</svg>
