<svg width="95" height="95" viewBox="0 0 95 95" fill="none" xmlns="http://www.w3.org/2000/svg">
<g clip-path="url(#clip0)">
<path d="M87.1753 41.4281V13.873C87.1753 13.1239 86.6927 12.4597 85.9802 12.2285L48.6155 0.0857655C48.2372 -0.0378067 47.8461 -0.0227777 47.4998 0.103021C47.1504 -0.0216644 46.7604 -0.0366935 46.3821 0.0857655L9.01856 12.2285C8.30589 12.4595 7.82347 13.1226 7.82347 13.873L7.8257 41.3626C7.81067 41.7645 6.76068 81.7355 46.6059 94.9123C46.781 94.9714 46.9658 95.0004 47.1497 95.0004H47.8516C48.0355 95.0004 48.2203 94.9714 48.3954 94.9123C88.2393 81.7355 87.1894 41.7634 87.1753 41.4281ZM47.5709 91.5417H47.4289C10.3545 79.1141 11.2251 43.0253 11.2811 41.4281V15.1284L47.4495 3.37453C47.4668 3.36915 47.4829 3.36266 47.5 3.35728C47.515 3.36266 47.5323 3.36915 47.5484 3.37453L83.7178 15.1293L83.7201 41.4947C83.734 41.8688 84.7131 79.085 47.5709 91.5417Z" fill="#FA902E"/>
<path d="M76.3821 18.7864L48.3423 9.3507C48.0994 9.27018 47.8478 9.25069 47.6146 9.27018C47.3802 9.25199 47.132 9.27018 46.8869 9.3507L18.8502 18.7862C18.1483 19.0237 17.6733 19.6825 17.6733 20.4253L17.6756 41.896C17.6852 42.2044 19.0868 72.9184 46.9902 83.7275C47.1912 83.8049 47.404 83.8436 47.6146 83.8436C47.8252 83.8436 48.038 83.8049 48.2389 83.7275C76.1434 72.9184 77.5471 42.2046 77.5588 41.8348V20.4253C77.558 19.6827 77.084 19.0239 76.3821 18.7864ZM47.6146 80.2582C22.4691 70.0703 21.1406 42.0584 21.131 41.8359V21.6677L47.6146 12.7545L74.1013 21.6677L74.1025 41.7736C74.0908 42.0573 72.76 70.0703 47.6146 80.2582Z" fill="#FA902E"/>
<path d="M67.407 34.7308C66.6719 34.1161 65.5809 34.2192 64.9716 34.9501L44.9625 58.9155L32.0555 45.3615C31.3924 44.6672 30.3016 44.6457 29.6116 45.3003C28.9195 45.9591 28.8926 47.0542 29.5503 47.7443L43.7944 62.703C44.1222 63.0459 44.5746 63.2403 45.0475 63.2403C45.0657 63.2403 45.0841 63.2403 45.1034 63.2381C45.5967 63.2231 46.0589 62.9964 46.3749 62.619L67.6266 37.1649C68.2377 36.4322 68.1399 35.3423 67.407 34.7308Z" fill="#FA902E"/>
</g>
<defs>
<clipPath id="clip0">
<rect width="95" height="95" fill="white"/>
</clipPath>
</defs>
</svg>
