<svg width="75" height="75" viewBox="0 0 75 75" fill="none" xmlns="http://www.w3.org/2000/svg">
<path d="M73.3849 53.477L47.9697 9.4562C45.8142 5.72363 41.8024 3.40479 37.5 3.40479C33.1976 3.40479 29.1858 5.72363 27.0303 9.45649L1.61514 53.477C0.558398 55.3071 0 57.3932 0 59.5098C0 66.1733 5.42139 71.5947 12.085 71.5947H62.915C69.5786 71.5947 75 66.1733 75 59.5098C75 57.3932 74.4415 55.3071 73.3849 53.477ZM62.915 69.3975H12.085C6.63281 69.3975 2.19727 64.9619 2.19727 59.5098C2.19727 57.7783 2.654 56.0721 3.51812 54.5754L28.9333 10.555C30.6974 7.4999 33.98 5.60205 37.5 5.60205C41.02 5.60205 44.3026 7.4999 46.0667 10.5551L71.4819 54.5757C72.3458 56.0724 72.8027 57.7785 72.8027 59.5101C72.8027 64.9619 68.3672 69.3975 62.915 69.3975Z" fill="#FA902E"/>
<path d="M68.3105 56.4065L42.8955 12.3863C41.7834 10.4605 39.716 9.26416 37.5 9.26416C35.284 9.26416 33.2167 10.4604 32.1047 12.3862L20.4957 32.4937C20.1923 33.0191 20.3723 33.691 20.8978 33.9944C21.4233 34.2975 22.0951 34.1176 22.3985 33.5923L34.0075 13.4848C34.7282 12.2368 36.0665 11.4614 37.5 11.4614C38.9335 11.4614 40.2719 12.2369 40.9926 13.485L66.4077 57.5053C66.7632 58.1209 66.9434 58.7955 66.9434 59.5101C66.9434 61.7312 65.1362 63.5384 62.915 63.5384H12.085C9.86382 63.5384 8.05664 61.7312 8.05664 59.5101C8.05664 58.7955 8.23682 58.1211 8.59233 57.5053L20.2012 37.3978C20.5046 36.8724 20.3246 36.2004 19.7991 35.8971C19.2732 35.5937 18.6016 35.7736 18.2984 36.2992L6.6895 56.4066C6.13857 57.3607 5.85938 58.4047 5.85938 59.5099C5.85938 62.9428 8.6521 65.7355 12.085 65.7355H62.915C66.3479 65.7355 69.1406 62.9428 69.1406 59.5099C69.1406 58.4047 68.8614 57.3605 68.3105 56.4065Z" fill="#FA902E"/>
<path d="M37.5 18.8604C34.8749 18.8604 32.7393 20.9959 32.7393 23.6211V43.3965C32.7393 46.0216 34.8749 48.1572 37.5 48.1572C40.1251 48.1572 42.2607 46.0216 42.2607 43.3965V23.6211C42.2607 20.9959 40.1251 18.8604 37.5 18.8604ZM40.0635 43.3965C40.0635 44.8099 38.9134 45.96 37.5 45.96C36.0866 45.96 34.9365 44.8099 34.9365 43.3965V23.6211C34.9365 22.2077 36.0866 21.0576 37.5 21.0576C38.9134 21.0576 40.0635 22.2077 40.0635 23.6211V43.3965Z" fill="#FA902E"/>
<path d="M37.5 50.3545C34.8749 50.3545 32.7393 52.4901 32.7393 55.1152C32.7393 57.7404 34.8749 59.876 37.5 59.876C40.1251 59.876 42.2607 57.7404 42.2607 55.1152C42.2607 52.4901 40.1251 50.3545 37.5 50.3545ZM37.5 57.6787C36.0866 57.6787 34.9365 56.5287 34.9365 55.1152C34.9365 53.7018 36.0866 52.5518 37.5 52.5518C38.9134 52.5518 40.0635 53.7018 40.0635 55.1152C40.0635 56.5287 38.9134 57.6787 37.5 57.6787Z" fill="#FA902E"/>
</svg>
