<svg width="75" height="75" viewBox="0 0 75 75" fill="none" xmlns="http://www.w3.org/2000/svg">
<path d="M25.5226 46.6473H21.1246C19.7548 46.6473 18.6401 45.5332 18.6401 44.1628V41.7114C18.6401 41.5667 18.5377 41.4413 18.3861 41.3996C16.8612 40.9842 15.3906 40.373 14.0156 39.584C13.8908 39.5124 13.7438 39.5267 13.6505 39.62L11.8996 41.371C11.4304 41.8402 10.8067 42.0982 10.1429 42.0982C9.47971 42.0982 8.85544 41.8402 8.38623 41.371L5.2763 38.261C4.80709 37.7918 4.54845 37.1675 4.54845 36.5044C4.54845 35.8406 4.80709 35.2163 5.2763 34.7477L7.02667 32.9967C7.12051 32.9035 7.13482 32.7564 7.06272 32.6317C6.27422 31.2567 5.66311 29.7861 5.24769 28.2612C5.20592 28.1096 5.0806 28.0071 4.93584 28.0071H2.48451C1.11465 28.0071 0 26.8925 0 25.5226V21.1246C0 19.7548 1.11465 18.6401 2.48451 18.6401H4.93584C5.0806 18.6401 5.20592 18.5383 5.24769 18.3861C5.66311 16.8617 6.27422 15.3912 7.06329 14.0156C7.13482 13.8908 7.12051 13.7438 7.02724 13.6505L5.2763 11.8996C4.80709 11.4309 4.54845 10.8067 4.54845 10.1429C4.54845 9.47971 4.80709 8.85544 5.2763 8.38623L8.38623 5.2763C8.85544 4.80709 9.47914 4.54903 10.1429 4.54903C10.8067 4.54903 11.4309 4.80709 11.9001 5.27687L13.6505 7.02724C13.7438 7.12051 13.8903 7.13482 14.0156 7.06329C15.3906 6.27422 16.8606 5.66368 18.3855 5.24769C18.5383 5.20592 18.6401 5.0806 18.6401 4.93584V2.48451C18.6401 1.11465 19.7548 0 21.1246 0H25.5226C26.8925 0 28.0071 1.11465 28.0071 2.48451V4.93584C28.0071 5.0806 28.109 5.20592 28.2612 5.24712C29.7855 5.66311 31.2561 6.27422 32.6311 7.06329C32.7564 7.13482 32.9029 7.12051 32.9967 7.02724L34.7471 5.2763C35.7182 4.30584 37.29 4.30527 38.261 5.27687L38.59 5.60589C39.6172 6.63242 38.0648 8.18768 37.0365 7.15942C36.834 6.98433 36.5742 6.55689 36.3012 6.83041L34.5503 8.58078C33.7584 9.37271 32.5195 9.53236 31.5376 8.96873C30.3246 8.27293 29.0274 7.73392 27.6833 7.36713C26.58 7.06673 25.8093 6.06651 25.8093 4.93526V2.48451C25.8093 2.32601 25.6805 2.19727 25.522 2.19727H21.1241C20.9661 2.19727 20.8374 2.32601 20.8374 2.48451V4.93584C20.8374 6.06709 20.0666 7.06673 18.9634 7.36771C17.6188 7.73449 16.3216 8.27293 15.1085 8.96873C14.1272 9.53236 12.8883 9.37271 12.0964 8.58078L10.346 6.83041C10.2762 6.7606 10.1973 6.74629 10.1429 6.74629C10.0885 6.74629 10.0096 6.7606 9.94034 6.83041L6.82983 9.94034C6.7606 10.0096 6.74572 10.0891 6.74572 10.1429C6.74572 10.1973 6.7606 10.2768 6.82983 10.346L8.58078 12.097C9.37271 12.8889 9.53236 14.1272 8.96873 15.1091C8.27293 16.3227 7.73392 17.6193 7.36713 18.964C7.06673 20.0672 6.06651 20.8374 4.93584 20.8374H2.48451C2.32601 20.8374 2.19727 20.9667 2.19727 21.1246V25.5226C2.19727 25.6811 2.32601 25.8099 2.48451 25.8099H4.93584C6.06651 25.8099 7.06673 26.58 7.36771 27.6833C7.73392 29.0285 8.27293 30.3251 8.96873 31.5382C9.53236 32.5201 9.37271 33.7584 8.58078 34.5503L6.83041 36.3012C6.7606 36.3705 6.74629 36.45 6.74629 36.5044C6.74629 36.5582 6.76117 36.6377 6.83041 36.7075L9.94034 39.8169C10.0525 39.929 10.2345 39.9296 10.3466 39.8169L12.097 38.0665C12.8889 37.2746 14.1277 37.1149 15.1096 37.6785C16.3227 38.3743 17.6193 38.9133 18.964 39.2801C20.0672 39.5805 20.838 40.5807 20.838 41.712V44.1628C20.838 44.3213 20.9667 44.45 21.1246 44.45H25.5226C25.6811 44.45 25.8099 44.3213 25.8099 44.1628V41.712C25.8099 40.5807 26.5806 39.5805 27.6838 39.2801C29.0874 38.8979 29.6631 41.0179 28.2618 41.3996C28.1096 41.4413 28.0071 41.5667 28.0071 41.712V44.1628C28.0071 45.5326 26.8925 46.6473 25.5226 46.6473V46.6473Z" fill="#FA902E"/>
<path d="M12.9692 23.3237C12.9692 16.059 20.274 11.0791 27.0054 13.6437C28.3621 14.1616 27.5822 16.2152 26.2226 15.6974C20.9103 13.6723 15.1659 17.616 15.1659 23.3237C15.1659 27.9666 19.0764 31.7443 23.8108 31.4667C25.2585 31.3792 25.3941 33.5747 23.9401 33.6606C17.9703 34.0119 12.9692 29.2512 12.9692 23.3237Z" fill="#FA902E"/>
<path d="M60.7967 48.7865L49.6651 46.6219V43.8713C52.791 41.7387 54.4836 38.7186 54.8521 35.3266C56.4749 35.1978 57.7555 33.8365 57.7555 32.1817V29.9238C60.4008 28.7737 60.0437 24.913 57.2451 24.2618V23.3904C57.2451 15.5552 50.893 9.20312 43.0584 9.20312H41.8688C34.0336 9.20312 27.6821 15.5552 27.6821 23.3898V24.2618C24.8846 24.9124 24.5253 28.7737 27.1717 29.9238V32.1817C27.1717 33.8365 28.4523 35.1978 30.0751 35.3266C30.3966 38.286 31.7837 40.9948 33.9718 42.8785C34.3906 43.2396 34.8209 43.5703 35.2621 43.8713V46.6219L24.1304 48.7865C18.2573 49.9286 13.6797 53.2394 13.6797 59.3483V70.5229C13.6797 72.9954 15.6841 74.9998 18.1566 74.9998H66.7705C69.243 74.9998 71.2475 72.9954 71.2475 70.5229V59.3483C71.2475 53.2594 66.6979 49.9338 60.7967 48.7865V48.7865ZM51.6523 49.2466C50.8547 50.4064 49.6353 52.1768 48.3181 54.0834C47.7814 54.861 46.8183 54.96 46.4418 54.7346L44.7063 53.6937C46.3989 52.6941 48.741 50.9775 49.4516 48.8186L51.6523 49.2466ZM42.4633 52.4126C40.7947 51.5726 37.4685 49.4972 37.4594 47.5357C37.4594 47.5328 37.4594 47.53 37.4594 47.5271V45.0844C40.6568 46.4634 44.2663 46.4651 47.4678 45.0844V47.5271C47.4678 49.4921 44.1336 51.572 42.4633 52.4126ZM29.8794 23.3898C29.8794 18.8831 32.3788 14.9492 36.0643 12.9019V14.2792C36.0643 15.7314 38.2616 15.7337 38.2616 14.2792V11.9549C39.2475 11.643 40.2878 11.4559 41.3647 11.4113V16.8438C41.3647 18.296 43.5619 18.2983 43.5619 16.8438V11.4113C44.6388 11.4559 45.6797 11.643 46.6656 11.9549V14.2792C46.6656 15.7314 48.8628 15.7337 48.8628 14.2792V12.9019C52.5484 14.9492 55.0478 18.8831 55.0478 23.3898V24.184H29.8794V23.3898ZM28.3607 26.3813H56.5664C57.6193 26.3813 57.6181 27.9726 56.5664 27.9726H28.3607C27.3073 27.9726 27.3085 26.3813 28.3607 26.3813V26.3813ZM32.2025 34.2142C32.1899 33.6168 31.7018 33.139 31.1039 33.139C30.9208 33.0938 29.3684 33.4245 29.3684 32.1817V30.1704H55.5582V32.1817C55.5582 33.4223 53.9646 33.1041 53.8227 33.139C53.2253 33.139 52.7372 33.6168 52.7241 34.2142C52.6651 36.9608 51.4978 39.5117 49.522 41.2134C45.326 44.8263 39.6011 44.8269 35.4052 41.2134C33.4288 39.5117 32.2615 36.9608 32.2025 34.2142ZM35.475 48.8186C36.1862 50.9775 38.5277 52.6941 40.2208 53.6937C38.4813 54.6253 38.6043 54.904 37.8141 54.8107C37.3226 54.7518 36.8814 54.4782 36.5999 54.0708C35.2861 52.1688 34.0708 50.4036 33.2743 49.2466L35.475 48.8186ZM22.7989 72.8025H18.156C16.8972 72.8025 15.8764 71.7817 15.8764 70.5229V59.3483C15.8764 56.0558 17.3721 53.7796 20.6531 52.2072C20.7859 52.792 22.7989 58.2559 22.7989 65.8909V72.8025ZM41.3647 72.8025H24.9962V65.8909C24.9962 57.6185 22.9076 52.2918 22.7022 51.3901C23.9851 50.9638 23.0324 51.2922 30.9225 49.7038C33.1901 52.9991 37.4222 59.1474 39.917 62.6934C40.8646 64.0398 41.3647 65.6214 41.3647 67.2676V72.8025ZM42.4633 62.6728C42.2447 62.2442 41.9947 61.8288 41.7143 61.4294C40.8708 60.2312 39.7762 58.6588 38.6341 57.0102C38.9734 56.9353 39.3047 56.8048 39.6154 56.6189L42.4633 54.9108L45.3117 56.6189C45.6219 56.8048 45.9537 56.9353 46.2931 57.0102C45.1509 58.6576 44.0563 60.23 43.2129 61.4294C42.9319 61.8288 42.6819 62.2442 42.4633 62.6728V62.6728ZM69.0502 70.5229C69.0502 71.7817 68.03 72.8025 66.7705 72.8025H62.1277V68.6575C62.1277 67.2052 59.9304 67.2029 59.9304 68.6575V72.8025H43.5619V67.2676C43.5619 65.6214 44.0626 64.0398 45.0096 62.694C46.4287 60.6769 52.2715 52.2455 54.0047 49.7038C61.8908 51.2916 60.9398 50.9632 62.2244 51.3901C62.0647 52.0658 60.2159 57.0904 59.9607 64.2177C59.9081 65.6734 62.1042 65.7449 62.1563 64.2967C62.4035 57.3993 64.0955 52.9613 64.2734 52.2072C67.5545 53.7796 69.0502 56.0558 69.0502 59.3477V70.5229Z" fill="#FA902E"/>
</svg>
