<svg width="61" height="61" viewBox="0 0 61 61" fill="none" xmlns="http://www.w3.org/2000/svg">
<path d="M36.8084 29.9959L57.5717 9.27795C58.4809 8.36857 58.9918 7.13518 58.9918 5.84911C58.9918 4.56305 58.4809 3.32966 57.5717 2.42027C56.6624 1.51089 55.4292 1 54.1433 1C52.8575 1 51.6242 1.51089 50.715 2.42027L30 23.1865L9.28502 2.42027C8.37576 1.51089 7.14255 1 5.85667 1C4.57078 1 3.33757 1.51089 2.42831 2.42027C1.51906 3.32966 1.00824 4.56305 1.00824 5.84911C1.00824 7.13518 1.51906 8.36857 2.42831 9.27795L23.1916 29.9959L2.42831 50.7138C1.97573 51.1628 1.6165 51.6969 1.37136 52.2854C1.12621 52.8739 1 53.5051 1 54.1426C1 54.7802 1.12621 55.4114 1.37136 55.9999C1.6165 56.5884 1.97573 57.1225 2.42831 57.5715C2.8772 58.0241 3.41125 58.3834 3.99967 58.6286C4.58809 58.8738 5.21922 59 5.85667 59C6.49411 59 7.12524 58.8738 7.71366 58.6286C8.30208 58.3834 8.83613 58.0241 9.28502 57.5715L30 36.8053L50.715 57.5715C51.1639 58.0241 51.6979 58.3834 52.2863 58.6286C52.8748 58.8738 53.5059 59 54.1433 59C54.7808 59 55.4119 58.8738 56.0003 58.6286C56.5887 58.3834 57.1228 58.0241 57.5717 57.5715C58.0243 57.1225 58.3835 56.5884 58.6286 55.9999C58.8738 55.4114 59 54.7802 59 54.1426C59 53.5051 58.8738 52.8739 58.6286 52.2854C58.3835 51.6969 58.0243 51.1628 57.5717 50.7138L36.8084 29.9959Z" fill="#FA902E"/>
</svg>
