<svg width="120" height="120" viewBox="0 0 120 120" fill="none" xmlns="http://www.w3.org/2000/svg">
<circle cx="60" cy="60" r="60" fill="#F7F8FB"/>
<g filter="url(#filter0_d)">
<path d="M60.5 99C81.763 99 99 81.763 99 60.5C99 39.237 81.763 22 60.5 22C39.237 22 22 39.237 22 60.5C22 81.763 39.237 99 60.5 99Z" fill="#5993B9"/>
<path d="M60.5 63.7582C62.2995 63.7582 63.7583 62.2994 63.7583 60.4999C63.7583 58.7004 62.2995 57.2416 60.5 57.2416C58.7005 57.2416 57.2417 58.7004 57.2417 60.4999C57.2417 62.2994 58.7005 63.7582 60.5 63.7582Z" fill="white"/>
<path d="M86.7405 54.9583C87.0781 53.3994 87.1161 51.1463 86.5471 48.6618C86.4599 48.2787 84.973 45.6083 81.8968 44.789C80.8688 44.5159 79.9737 44.5349 79.3781 44.5956C76.154 45.2935 71.6516 46.5908 66.6902 49.1473C58.4781 53.3766 53.7254 58.6339 52.4547 60.0904C51.2637 61.4559 47.4971 65.9394 45.3843 72.3914C44.4892 75.1263 44.144 77.4363 44.9975 79.7501C45.2781 80.5087 46.0026 82.3977 47.9978 83.5773C50.5695 85.0945 53.7709 84.628 54.245 84.4763C56.8168 83.8049 60.7274 82.5228 64.9947 79.9473C68.3364 77.9294 70.9006 75.718 70.9499 75.7825C71.003 75.8508 68.1392 78.1949 65.044 80.577C60.0106 84.4459 58.3416 85.3525 56.9078 86.0011C55.3981 86.6839 53.8202 87.3856 51.5823 87.6966C49.9171 87.928 47.1747 88.3073 44.2237 86.9721C40.4837 85.2766 38.8678 81.9425 38.4619 81.017C37.6919 79.2683 36.9826 76.469 38.2685 71.189C40.6847 61.2511 47.2392 54.5032 50.0347 51.9163C57.0595 45.4187 64.0919 43.2377 68.5792 41.8456C72.0043 40.7835 75.4485 40.1159 79.2795 40.9732C81.0319 41.3639 83.8312 42.0314 85.815 44.5577C87.1578 46.2646 87.5637 48.0966 87.704 49.1587C87.6774 51.0097 87.8709 51.3966 86.7405 54.9583Z" fill="white"/>
<path d="M38.3183 67.2138C38.9252 65.34 40.029 62.9845 41.4514 60.5C42.0052 59.5328 42.9231 58.4062 43.97 57.2493C43.8524 55.9483 43.8259 54.0935 44.2924 51.9541C44.721 49.9931 46.4696 43.6321 52.8155 40.2676C53.1341 40.1007 59.0969 37.0548 65.8562 39.2359C67.2748 39.6948 68.39 40.2714 69.1486 40.719C70.5255 40.3966 71.9024 40.0741 73.2793 39.7517C72.4069 38.94 71.121 37.8855 69.4065 36.9107C68.4355 36.3607 63.7928 33.8269 57.3331 34.1986C55.08 34.3276 51.0934 34.9003 46.94 37.4266C45.1686 38.5038 41.9483 40.8024 39.4524 44.9141C38.8721 45.87 36.7745 49.4924 36.289 54.7269C35.7959 60.0183 37.4269 65.1048 38.3183 67.2138Z" fill="white"/>
<path d="M47.5201 70.1648C47.0763 70.8703 46.6174 71.7313 46.2305 72.7479C45.358 75.0275 45.468 77.3603 45.5022 78.7599C46.8412 80.2582 48.9349 82.2344 52.4284 83.983C55.7663 85.652 58.6225 86.0996 60.2574 86.3386C62.8594 86.7217 66.4818 87.2603 70.8136 85.9024C72.2929 85.4396 76.3287 84.1158 79.6249 80.2355C83.877 75.2361 83.9681 69.4441 83.9339 67.7903C83.8884 69.3417 83.5622 72.9034 81.0777 76.2641C80.7667 76.6851 79.2001 78.7524 76.3325 80.3796C72.9225 82.3141 69.7287 82.462 68.2949 82.5113C62.6736 82.701 58.5239 80.3265 56.4794 79.1203C51.6053 76.2489 48.8553 72.3951 47.5201 70.1648Z" fill="white"/>
</g>
<defs>
<filter id="filter0_d" x="18" y="22" width="85" height="85" filterUnits="userSpaceOnUse" color-interpolation-filters="sRGB">
<feFlood flood-opacity="0" result="BackgroundImageFix"/>
<feColorMatrix in="SourceAlpha" type="matrix" values="0 0 0 0 0 0 0 0 0 0 0 0 0 0 0 0 0 0 127 0"/>
<feOffset dy="4"/>
<feGaussianBlur stdDeviation="2"/>
<feColorMatrix type="matrix" values="0 0 0 0 0 0 0 0 0 0 0 0 0 0 0 0 0 0 0.25 0"/>
<feBlend mode="normal" in2="BackgroundImageFix" result="effect1_dropShadow"/>
<feBlend mode="normal" in="SourceGraphic" in2="effect1_dropShadow" result="shape"/>
</filter>
</defs>
</svg>
