<svg width="45" height="45" viewBox="0 0 45 45" fill="none" xmlns="http://www.w3.org/2000/svg">
<path d="M41.7546 0H3.24543C1.45294 0 0 1.45294 0 3.24543V41.7546C0 43.5471 1.45294 45 3.24543 45H24.0381V27.5977H18.1934V20.7861H24.0381V15.7733C24.0381 9.96014 27.587 6.79607 32.7726 6.79607C35.2562 6.79607 37.3906 6.98112 38.0127 7.06387V13.1396H34.437C31.6156 13.1396 31.0693 14.4803 31.0693 16.4479V20.7861H37.8149L36.936 27.5977H31.0693V45H41.7546C43.5471 45 45 43.5471 45 41.7546V3.24543C45 1.45294 43.5471 0 41.7546 0V0Z" fill="#5A93B9"/>
</svg>
